SplineFontDB: 3.0
FontName: RuslanOne
FullName: Ruslan One
FamilyName: Ruslan One
Weight: Book
Copyright: Copyright (c) 2011 by Denis Masharov <denis.masharov@gmail.com>, All rights reserved.
Version: 1.000
ItalicAngle: 0
UnderlinePosition: -50
UnderlineWidth: 50
Ascent: 750
Descent: 250
sfntRevision: 0x00010000
LayerCount: 2
Layer: 0 1 "Back"  1
Layer: 1 1 "Fore"  0
XUID: [1021 288 713564382 12729849]
FSType: 0
OS2Version: 2
OS2_WeightWidthSlopeOnly: 0
OS2_UseTypoMetrics: 1
CreationTime: 1302091440
ModificationTime: 1304061332
PfmFamily: 81
TTFWeight: 400
TTFWidth: 5
LineGap: 0
VLineGap: 0
Panose: 0 0 0 0 0 0 0 0 0 0
OS2TypoAscent: 688
OS2TypoAOffset: 0
OS2TypoDescent: -397
OS2TypoDOffset: 0
OS2TypoLinegap: 0
OS2WinAscent: 688
OS2WinAOffset: 0
OS2WinDescent: 397
OS2WinDOffset: 0
HheadAscent: 688
HheadAOffset: 0
HheadDescent: -397
HheadDOffset: 0
OS2SubXSize: 700
OS2SubYSize: 650
OS2SubXOff: 0
OS2SubYOff: 140
OS2SupXSize: 700
OS2SupYSize: 650
OS2SupXOff: 0
OS2SupYOff: 477
OS2StrikeYSize: 50
OS2StrikeYPos: 250
OS2Vendor: 'pyrs'
OS2CodePages: 00000097.00000000
OS2UnicodeRanges: a000022f.0000004a.00000000.00000000
Lookup: 258 0 0 "'kern' Horizontal Kerning in Latin lookup 0"  {"'kern' Horizontal Kerning in Latin lookup 0 subtable"  } ['kern' ('latn' <'dflt' > ) ]
MarkAttachClasses: 1
DEI: 91125
TtTable: prep
PUSHW_1
 0
CALL
SVTCA[y-axis]
PUSHW_3
 1
 3
 2
CALL
SVTCA[x-axis]
PUSHW_3
 4
 4
 2
CALL
SVTCA[x-axis]
PUSHW_8
 4
 53
 44
 34
 25
 13
 0
 8
CALL
PUSHW_8
 5
 27
 20
 16
 12
 7
 0
 8
CALL
PUSHW_8
 6
 23
 20
 16
 12
 7
 0
 8
CALL
PUSHW_8
 7
 23
 20
 16
 12
 7
 0
 8
CALL
SVTCA[y-axis]
PUSHW_8
 1
 85
 67
 52
 37
 23
 0
 8
CALL
PUSHW_8
 2
 77
 67
 52
 37
 23
 0
 8
CALL
PUSHW_8
 3
 38
 31
 24
 17
 13
 0
 8
CALL
SVTCA[y-axis]
PUSHW_3
 8
 4
 7
CALL
PUSHW_1
 0
DUP
RCVT
RDTG
ROUND[Black]
RTG
WCVTP
EndTTInstrs
TtTable: fpgm
PUSHW_1
 0
FDEF
MPPEM
PUSHW_1
 9
LT
IF
PUSHB_2
 1
 1
INSTCTRL
EIF
PUSHW_1
 511
SCANCTRL
PUSHW_1
 68
SCVTCI
PUSHW_2
 9
 3
SDS
SDB
ENDF
PUSHW_1
 1
FDEF
DUP

StartChar: D
Encoding: 68 68 4
Width: 718
Flags: W
LayerCount: 2
Fore
SplineSet
80 500 m 1,0,1
 143 509 143 509 201.5 516 c 128,-1,2
 260 523 260 523 315 523 c 0,3,4
 412 523 412 523 491 510.5 c 128,-1,5
 570 498 570 498 629 475 c 1,6,7
 672 389 672 389 672 301 c 0,8,9
 672 248 672 248 654 197.5 c 128,-1,10
 636 147 636 147 595 105 c 1,11,12
 562 69 562 69 525 46 c 128,-1,13
 488 23 488 23 449 9.5 c 128,-1,14
 410 -4 410 -4 370.5 -9 c 128,-1,15
 331 -14 331 -14 292 -14 c 0,16,17
 243 -14 243 -14 200.5 -9.5 c 128,-1,18
 158 -5 158 -5 113 1 c 1,19,20
 95 95 95 95 84.5 187 c 128,-1,21
 74 279 74 279 74 372 c 0,22,23
 74 405 74 405 75.5 435 c 128,-1,24
 77 465 77 465 80 500 c 1,0,1
345 448 m 1,25,26
 338 377 338 377 332.5 302 c 128,-1,27
 327 227 327 227 327 145 c 0,28,29
 327 97 327 97 330 46 c 1,30,31
 358 61 358 61 379.5 87.5 c 128,-1,32
 401 114 401 114 415.5 146.5 c 128,-1,33
 430 179 430 179 437.5 215 c 128,-1,34
 445 251 445 251 445 286 c 0,35,36
 445 317 445 317 439 345.5 c 128,-1,37
 433 374 433 374 420.5 396 c 128,-1,38
 408 418 408 418 389 431.5 c 128,-1,39
 370 445 370 445 345 448 c 1,25,26
EndSplineSet
EndChar

StartChar: E
Encoding: 69 69 5
Width: 671
Flags: W
LayerCount: 2
Fore
SplineSet
614 500 m 1,0,1
 611 485 611 485 607.5 464.5 c 128,-1,2
 604 444 604 444 600 423 c 128,-1,3
 596 402 596 402 591 382.5 c 128,-1,4
 586 363 586 363 582 348 c 1,5,6
 550 346 550 346 527.5 345.5 c 128,-1,7
 505 345 505 345 474 344 c 1,8,9
 482 367 482 367 482 387 c 0,10,11
 482 414 482 414 463.5 424 c 128,-1,12
 445 434 445 434 410 435 c 0,13,14
 383 435 383 435 350 429 c 1,15,16
 340 387 340 387 331.5 345.5 c 128,-1,17
 323 304 323 304 316 262 c 1,18,19
 336 280 336 280 362.5 289.5 c 128,-1,20
 389 299 389 299 415 299 c 0,21,22
 438 299 438 299 462 296 c 128,-1,23
 486 293 486 293 509 293 c 0,24,25
 514 293 514 293 519.5 293 c 128,-1,26
 525 293 525 293 530 294 c 1,27,-1
 483 206 l 1,28,-1
 474 206 l 2,29,30
 446 206 446 206 419.5 216 c 128,-1,31
 393 226 393 226 370 227 c 0,32,33
 351 227 351 227 335 216.5 c 128,-1,34
 319 206 319 206 305 174 c 1,35,36
 301 125 301 125 299 76 c 1,37,38
 322 71 322 71 341.5 68.5 c 128,-1,39
 361 66 361 66 381 66 c 2,40,-1
 390 66 l 2,41,42
 431 66 431 66 457 84 c 128,-1,43
 483 102 483 102 495 153 c 1,44,-1
 615 148 l 1,45,46
 607 104 607 104 598 69.5 c 128,-1,47
 589 35 589 35 575 0 c 1,48,-1
 84 0 l 1,49,50
 75 61 75 61 69.5 132.5 c 128,-1,51
 64 204 64 204 64 280 c 0,52,53
 64 336 64 336 67 391 c 128,-1,54
 70 446 70 446 78 500 c 1,55,-1
 614 500 l 1,0,1
EndSplineSet
EndChar

StartChar: F
Encoding: 70 70 6
Width: 619
Flags: W
LayerCount: 2
Fore
SplineSet
315 247 m 1,0,1
 335 265 335 265 361 274.5 c 128,-1,2
 387 284 387 284 413 284 c 0,3,4
 436 284 436 284 460.5 281 c 128,-1,5
 485 278 485 278 508 278 c 0,6,7
 513 278 513 278 518 278 c 128,-1,8
 523 278 523 278 528 279 c 1,9,-1
 481 191 l 1,10,-1
 472 191 l 2,11,12
 444 191 444 191 417.5 201 c 128,-1,13
 391 211 391 211 368 212 c 0,14,15
 348 212 348 212 333.5 201 c 128,-1,16
 319 190 319 190 305 161 c 1,17,18
 303 135 303 135 301.5 110.5 c 128,-1,19
 300 86 300 86 300 60 c 0,20,21
 300 45 300 45 300.5 29.5 c 128,-1,22
 301 14 301 14 302 0 c 1,23,-1
 85 0 l 1,24,25
 76 61 76 61 71 133 c 128,-1,26
 66 205 66 205 66 280 c 0,27,28
 66 336 66 336 69 391 c 128,-1,29
 72 446 72 446 80 499 c 1,30,-1
 614 499 l 1,31,32
 611 484 611 484 607.5 463.5 c 128,-1,33
 604 443 604 443 600 422 c 128,-1,34
 596 401 596 401 591 381.5 c 128,-1,35
 586 362 586 362 582 348 c 1,36,-1
 474 343 l 1,37,38
 483 368 483 368 483 386 c 0,39,40
 483 412 483 412 464 422.5 c 128,-1,41
 445 433 445 433 410 434 c 0,42,43
 397 434 397 434 382.5 433 c 128,-1,44
 368 432 368 432 351 429 c 1,45,46
 329 340 329 340 315 247 c 1,0,1
EndSplineSet
EndChar

StartChar: G
Encoding: 71 71 7
Width: 675
Flags: W
LayerCount: 2
Fore
SplineSet
593 498 m 1,0,1
 586 471 586 471 575.5 437 c 128,-1,2
 565 403 565 403 554 378 c 1,3,4
 522 376 522 376 488.5 374.5 c 128,-1,5
 455 373 455 373 423 372 c 1,6,7
 434 406 434 406 439 439 c 1,8,9
 407 445 407 445 378 445 c 0,10,11
 357 445 357 445 336.5 442 c 128,-1,12
 316 439 316 439 294 434 c 1,13,14
 278 366 278 366 278 311 c 0,15,16
 278 301 278 301 278.5 292 c 128,-1,17
 279 283 279 283 280 274 c 0,18,19
 288 202 288 202 323 141 c 128,-1,20
 358 80 358 80 416 49 c 1,21,22
 416 60 416 60 416.5 70.5 c 128,-1,23
 417 81 417 81 417 91 c 0,24,25
 417 133 417 133 414 172 c 128,-1,26
 411 211 411 211 405 260 c 1,27,-1
 621 260 l 1,28,29
 621 193 621 193 618 131.5 c 128,-1,30
 615 70 615 70 607 0 c 1,31,32
 562 -6 562 -6 522.5 -10.5 c 128,-1,33
 483 -15 483 -15 445 -17.5 c 128,-1,34
 407 -20 407 -20 368 -21 c 128,-1,35
 329 -22 329 -22 286 -22 c 2,36,-1
 222 -22 l 1,37,38
 175 -2 175 -2 139 28.5 c 128,-1,39
 103 59 103 59 78.5 95 c 128,-1,40
 54 131 54 131 41.5 171.5 c 128,-1,41
 29 212 29 212 29 253 c 0,42,43
 29 305 29 305 50 353.5 c 128,-1,44
 71 402 71 402 115 439.5 c 128,-1,45
 159 477 159 477 227 500 c 128,-1,46
 295 523 295 523 388 523 c 0,47,48
 480 523 480 523 593 498 c 1,0,1
EndSplineSet
EndChar

StartChar: H
Encoding: 72 72 8
Width: 740
Flags: W
LayerCount: 2
Fore
SplineSet
697 500 m 1,0,1
 698 479 698 479 698.5 458 c 128,-1,2
 699 437 699 437 699 417 c 0,3,4
 699 308 699 308 688.5 204.5 c 128,-1,5
 678 101 678 101 661 0 c 1,6,-1
 422 0 l 1,7,8
 438 118 438 118 443 254 c 1,9,10
 420 268 420 268 387.5 279 c 128,-1,11
 355 290 355 290 327 293 c 1,12,13
 324 217 324 217 316 144.5 c 128,-1,14
 308 72 308 72 295 0 c 1,15,-1
 68 0 l 1,16,17
 75 51 75 51 78 106.5 c 128,-1,18
 81 162 81 162 81 220 c 0,19,20
 81 292 81 292 76.5 363.5 c 128,-1,21
 72 435 72 435 63 500 c 1,22,-1
 327 500 l 1,23,24
 329 469 329 469 329 438.5 c 128,-1,25
 329 408 329 408 329 378 c 1,26,27
 361 368 361 368 389.5 355.5 c 128,-1,28
 418 343 418 343 444 329 c 1,29,30
 444 372 444 372 442.5 415 c 128,-1,31
 441 458 441 458 437 500 c 1,32,-1
 697 500 l 1,0,1
EndSplineSet
EndChar

StartChar: I
Encoding: 73 73 9
Width: 396
Flags: W
LayerCount: 2
Fore
SplineSet
341 500 m 1,0,-1
 341 473 l 2,1,2
 341 355 341 355 334 237 c 128,-1,3
 327 119 327 119 308 0 c 1,4,-1
 68 0 l 1,5,6
 79 51 79 51 83 106.5 c 128,-1,7
 87 162 87 162 87 222 c 0,8,9
 87 290 87 290 82.5 359.5 c 128,-1,10
 78 429 78 429 71 500 c 1,11,-1
 341 500 l 1,0,-1
EndSplineSet
EndChar

StartChar: J
Encoding: 74 74 10
Width: 531
Flags: W
LayerCount: 2
Fore
SplineSet
192 -45 m 1,0,1
 196 -3 196 -3 197.5 40.5 c 128,-1,2
 199 84 199 84 199 130 c 0,3,4
 199 220 199 220 193 313 c 128,-1,5
 187 406 187 406 176 500 c 1,6,-1
 446 500 l 1,7,8
 448 471 448 471 448 441.5 c 128,-1,9
 448 412 448 412 448 383 c 0,10,11
 448 284 448 284 441 186 c 128,-1,12
 434 88 434 88 420 0 c 1,13,14
 372 -45 372 -45 321.5 -69 c 128,-1,15
 271 -93 271 -93 223 -115 c 1,16,17
 155 -110 155 -110 104 -99.5 c 128,-1,18
 53 -89 53 -89 5 -70 c 1,19,20
 6 -38 6 -38 7.5 -7.5 c 128,-1,21
 9 23 9 23 11 52 c 1,22,23
 62 15 62 15 103.5 -7 c 128,-1,24
 145 -29 145 -29 192 -45 c 1,0,1
EndSplineSet
EndChar

StartChar: K
Encoding: 75 75 11
Width: 707
Flags: W
LayerCount: 2
Fore
SplineSet
293 292 m 1,0,1
 334 359 334 359 383 412 c 128,-1,2
 432 465 432 465 505 502 c 1,3,4
 521 505 521 505 537 506 c 128,-1,5
 553 507 553 507 570 507 c 2,6,-1
 603 507 l 2,7,8
 628 507 628 507 652 509 c 128,-1,9
 676 511 676 511 698 522 c 1,10,11
 678 492 678 492 657 463.5 c 128,-1,12
 636 435 636 435 613 409 c 1,13,-1
 597 409 l 2,14,15
 546 409 546 409 498 425 c 1,16,17
 460 393 460 393 434.5 357.5 c 128,-1,18
 409 322 409 322 389 276 c 1,19,20
 440 263 440 263 496.5 255 c 128,-1,21
 553 247 553 247 625 244 c 1,22,23
 634 223 634 223 640.5 193.5 c 128,-1,24
 647 164 647 164 652 131 c 128,-1,25
 657 98 657 98 660.5 64 c 128,-1,26
 664 30 664 30 666 0 c 1,27,-1
 407 0 l 1,28,29
 399 37 399 37 385.5 72 c 128,-1,30
 372 107 372 107 356 136.5 c 128,-1,31
 340 166 340 166 321.5 188 c 128,-1,32
 303 210 303 210 284 222 c 1,33,34
 281 187 281 187 279 152 c 128,-1,35
 277 117 277 117 277 82 c 0,36,37
 277 40 277 40 280 0 c 1,38,-1
 60 0 l 1,39,40
 52 64 52 64 46.5 129.5 c 128,-1,41
 41 195 41 195 41 261 c 0,42,43
 41 321 41 321 45.5 380.5 c 128,-1,44
 50 440 50 440 56 500 c 1,45,-1
 334 500 l 1,46,47
 321 446 321 446 310.5 394.5 c 128,-1,48
 300 343 300 343 293 292 c 1,0,1
EndSplineSet
EndChar

StartChar: L
Encoding: 76 76 12
Width: 602
Flags: W
LayerCount: 2
Fore
SplineSet
274 77 m 1,0,1
 300 71 300 71 320.5 68.5 c 128,-1,2
 341 66 341 66 364 66 c 0,3,4
 404 67 404 67 431 85 c 128,-1,5
 458 103 458 103 470 153 c 1,6,-1
 590 149 l 1,7,8
 582 105 582 105 573 70 c 128,-1,9
 564 35 564 35 550 0 c 1,10,-1
 59 0 l 1,11,12
 50 61 50 61 45 133 c 128,-1,13
 40 205 40 205 40 281 c 0,14,15
 40 337 40 337 43 392 c 128,-1,16
 46 447 46 447 54 500 c 1,17,-1
 342 500 l 1,18,19
 316 398 316 398 296 290 c 128,-1,20
 276 182 276 182 274 77 c 1,0,1
EndSplineSet
EndChar

StartChar: M
Encoding: 77 77 13
Width: 1052
Flags: W
LayerCount: 2
Fore
SplineSet
550 500 m 1,0,1
 570 445 570 445 584 389.5 c 128,-1,2
 598 334 598 334 607 276 c 1,3,4
 630 318 630 318 643.5 367 c 128,-1,5
 657 416 657 416 657 454 c 0,6,7
 657 481 657 481 649 500 c 1,8,-1
 934 500 l 1,9,10
 953 448 953 448 967 383.5 c 128,-1,11
 981 319 981 319 989.5 252 c 128,-1,12
 998 185 998 185 1002 119.5 c 128,-1,13
 1006 54 1006 54 1006 0 c 1,14,-1
 775 0 l 1,15,16
 772 83 772 83 757 174.5 c 128,-1,17
 742 266 742 266 716 347 c 1,18,19
 678 272 678 272 652 189.5 c 128,-1,20
 626 107 626 107 622 0 c 1,21,-1
 426 0 l 1,22,23
 413 98 413 98 388.5 184 c 128,-1,24
 364 270 364 270 326 348 c 1,25,26
 302 291 302 291 287 232.5 c 128,-1,27
 272 174 272 174 272 112 c 0,28,29
 272 84 272 84 275 56.5 c 128,-1,30
 278 29 278 29 286 0 c 1,31,-1
 43 0 l 1,32,33
 39 22 39 22 37.5 45 c 128,-1,34
 36 68 36 68 36 91 c 0,35,36
 36 134 36 134 41.5 173.5 c 128,-1,37
 47 213 47 213 56 244 c 1,38,39
 90 254 90 254 125 271.5 c 128,-1,40
 160 289 160 289 191 312 c 128,-1,41
 222 335 222 335 247.5 362 c 128,-1,42
 273 389 273 389 289 418 c 1,43,44
 263 461 263 461 234 500 c 1,45,-1
 550 500 l 1,0,1
EndSplineSet
EndChar

StartChar: N
Encoding: 78 78 14
Width: 715
Flags: W
LayerCount: 2
Fore
SplineSet
646 500 m 1,0,1
 652 395 652 395 652 290 c 0,2,3
 652 217 652 217 649.5 145 c 128,-1,4
 647 73 647 73 642 0 c 1,5,-1
 546 0 l 1,6,7
 493 28 493 28 442.5 63 c 128,-1,8
 392 98 392 98 346.5 135 c 128,-1,9
 301 172 301 172 261.5 210 c 128,-1,10
 222 248 222 248 190 283 c 1,11,12
 194 251 194 251 196 213.5 c 128,-1,13
 198 176 198 176 198 134 c 0,14,15
 198 102 198 102 196.5 68 c 128,-1,16
 195 34 195 34 193 0 c 1,17,-1
 76 0 l 1,18,19
 86 60 86 60 91 122.5 c 128,-1,20
 96 185 96 185 96 245 c 0,21,22
 96 286 96 286 93.5 323.5 c 128,-1,23
 91 361 91 361 86 393 c 1,24,25
 78 405 78 405 71 415.5 c 128,-1,26
 64 426 64 426 56.5 438 c 128,-1,27
 49 450 49 450 41 464.5 c 128,-1,28
 33 479 33 479 23 500 c 1,29,-1
 307 500 l 1,30,31
 328 463 328 463 358.5 424.5 c 128,-1,32
 389 386 389 386 423 350 c 128,-1,33
 457 314 457 314 492.5 283.5 c 128,-1,34
 528 253 528 253 560 232 c 1,35,36
 560 297 560 297 553.5 361 c 128,-1,37
 547 425 547 425 527 500 c 1,38,-1
 646 500 l 1,0,1
EndSplineSet
EndChar

StartChar: O
Encoding: 79 79 15
Width: 658
Flags: W
LayerCount: 2
Fore
SplineSet
123 3 m 1,0,1
 77 62 77 62 55.5 119.5 c 128,-1,2
 34 177 34 177 34 232 c 0,3,4
 34 250 34 250 36.5 269 c 128,-1,5
 39 288 39 288 44 305 c 0,6,7
 57 353 57 353 88 393 c 128,-1,8
 119 433 119 433 164 461.5 c 128,-1,9
 209 490 209 490 266 506.5 c 128,-1,10
 323 523 323 523 390 523 c 0,11,12
 430 523 430 523 471.5 517 c 128,-1,13
 513 511 513 511 555 498 c 1,14,15
 593 450 593 450 610 400.5 c 128,-1,16
 627 351 627 351 627 303 c 0,17,18
 627 283 627 283 624.5 264 c 128,-1,19
 622 245 622 245 617 228 c 0,20,21
 602 175 602 175 569.5 130 c 128,-1,22
 537 85 537 85 490 51 c 128,-1,23
 443 17 443 17 385 -2.5 c 128,-1,24
 327 -22 327 -22 261 -22 c 0,25,26
 196 -22 196 -22 123 3 c 1,0,1
275 436 m 1,27,28
 256 404 256 404 248 367.5 c 128,-1,29
 240 331 240 331 240 293 c 0,30,31
 240 254 240 254 249 216.5 c 128,-1,32
 258 179 258 179 275 146.5 c 128,-1,33
 292 114 292 114 316.5 88 c 128,-1,34
 341 62 341 62 373 47 c 1,35,36
 397 78 397 78 408.5 115 c 128,-1,37
 420 152 420 152 420 191 c 0,38,39
 420 227 420 227 410.5 263 c 128,-1,40
 401 299 401 299 382.5 331.5 c 128,-1,41
 364 364 364 364 337 391 c 128,-1,42
 310 418 310 418 275 436 c 1,27,28
EndSplineSet
EndChar

StartChar: P
Encoding: 80 80 16
Width: 665
Flags: W
LayerCount: 2
Fore
SplineSet
294 145 m 1,0,1
 294 108 294 108 295.5 72 c 128,-1,2
 297 36 297 36 299 0 c 1,3,-1
 79 0 l 1,4,5
 60 73 60 73 49 160 c 128,-1,6
 38 247 38 247 38 338 c 0,7,8
 38 380 38 380 40.5 420.5 c 128,-1,9
 43 461 43 461 49 500 c 1,10,-1
 591 500 l 1,11,12
 599 470 599 470 604.5 440 c 128,-1,13
 610 410 610 410 614 378 c 128,-1,14
 618 346 618 346 620 310 c 128,-1,15
 622 274 622 274 623 231 c 1,16,17
 551 199 551 199 464.5 176.5 c 128,-1,18
 378 154 378 154 294 145 c 1,0,1
295 214 m 1,19,20
 307 215 307 215 322 218.5 c 128,-1,21
 337 222 337 222 352 226.5 c 128,-1,22
 367 231 367 231 380 236 c 128,-1,23
 393 241 393 241 402 246 c 1,24,25
 394 297 394 297 370.5 347.5 c 128,-1,26
 347 398 347 398 316 434 c 1,27,28
 307 378 307 378 302 323.5 c 128,-1,29
 297 269 297 269 295 214 c 1,19,20
EndSplineSet
EndChar

StartChar: Q
Encoding: 81 81 17
Width: 666
Flags: W
LayerCount: 2
Fore
SplineSet
129 3 m 1,0,1
 83 62 83 62 61.5 120 c 128,-1,2
 40 178 40 178 40 232 c 0,3,4
 40 250 40 250 42.5 268.5 c 128,-1,5
 45 287 45 287 50 304 c 0,6,7
 64 352 64 352 94.5 392 c 128,-1,8
 125 432 125 432 169.5 461.5 c 128,-1,9
 214 491 214 491 271.5 507 c 128,-1,10
 329 523 329 523 396 523 c 0,11,12
 435 523 435 523 476.5 517.5 c 128,-1,13
 518 512 518 512 560 499 c 1,14,15
 598 451 598 451 615.5 400.5 c 128,-1,16
 633 350 633 350 633 302 c 0,17,18
 633 261 633 261 623 227 c 0,19,20
 609 177 609 177 579.5 134.5 c 128,-1,21
 550 92 550 92 508 59 c 1,22,23
 532 63 532 63 552 70 c 128,-1,24
 572 77 572 77 595 77 c 0,25,26
 614 77 614 77 635 70 c 1,27,-1
 707 -23 l 2,28,29
 697 -9 697 -9 679.5 -4 c 128,-1,30
 662 1 662 1 640 1 c 0,31,32
 619 1 619 1 596 -2 c 128,-1,33
 573 -5 573 -5 549 -9 c 128,-1,34
 525 -13 525 -13 502 -17 c 128,-1,35
 479 -21 479 -21 459 -22 c 1,36,37
 450 -18 450 -18 438.5 -9 c 128,-1,38
 427 0 427 0 419 8 c 1,39,40
 384 -6 384 -6 346 -14 c 128,-1,41
 308 -22 308 -22 267 -22 c 0,42,43
 202 -22 202 -22 129 3 c 1,0,1
281 435 m 1,44,45
 262 403 262 403 253.5 367 c 128,-1,46
 245 331 245 331 245 293 c 0,47,48
 245 254 245 254 254 216.5 c 128,-1,49
 263 179 263 179 280.5 146.5 c 128,-1,50
 298 114 298 114 322.5 88 c 128,-1,51
 347 62 347 62 379 47 c 1,52,53
 403 78 403 78 414.5 114.5 c 128,-1,54
 426 151 426 151 426 191 c 0,55,56
 426 227 426 227 416.5 263 c 128,-1,57
 407 299 407 299 388.5 331.5 c 128,-1,58
 370 364 370 364 343 390.5 c 128,-1,59
 316 417 316 417 281 435 c 1,44,45
EndSplineSet
EndChar

StartChar: R
Encoding: 82 82 18
Width: 706
Flags: W
LayerCount: 2
Fore
SplineSet
421 225 m 1,0,1
 466 213 466 213 505.5 207.5 c 128,-1,2
 545 202 545 202 587 202 c 2,3,-1
 608 202 l 1,4,5
 634 164 634 164 652.5 113.5 c 128,-1,6
 671 63 671 63 679 0 c 1,7,-1
 420 0 l 1,8,9
 410 70 410 70 379.5 120.5 c 128,-1,10
 349 171 349 171 305 189 c 1,11,12
 304 176 304 176 304 164 c 128,-1,13
 304 152 304 152 304 140 c 0,14,15
 304 70 304 70 310 0 c 1,16,-1
 92 0 l 1,17,18
 63 145 63 145 63 293 c 0,19,20
 63 345 63 345 66.5 397 c 128,-1,21
 70 449 70 449 77 500 c 1,22,-1
 599 500 l 1,23,24
 611 447 611 447 616.5 408 c 128,-1,25
 622 369 622 369 622 326 c 0,26,27
 622 318 622 318 621.5 309.5 c 128,-1,28
 621 301 621 301 621 292 c 1,29,30
 579 269 579 269 528.5 252.5 c 128,-1,31
 478 236 478 236 421 225 c 1,0,1
326 433 m 1,32,33
 314 345 314 345 308 260 c 1,34,35
 334 264 334 264 357 273.5 c 128,-1,36
 380 283 380 283 398 299 c 1,37,38
 387 340 387 340 369.5 370 c 128,-1,39
 352 400 352 400 326 433 c 1,32,33
EndSplineSet
EndChar

StartChar: S
Encoding: 83 83 19
Width: 635
Flags: W
LayerCount: 2
Fore
SplineSet
575 499 m 1,0,1
 568 472 568 472 557.5 438.5 c 128,-1,2
 547 405 547 405 536 380 c 1,3,4
 504 378 504 378 471 376 c 128,-1,5
 438 374 438 374 406 374 c 1,6,7
 412 390 412 390 416 407 c 128,-1,8
 420 424 420 424 423 440 c 1,9,10
 382 446 382 446 337 446 c 0,11,12
 316 446 316 446 293.5 444.5 c 128,-1,13
 271 443 271 443 249 440 c 1,14,15
 272 401 272 401 300 377 c 128,-1,16
 328 353 328 353 359 334.5 c 128,-1,17
 390 316 390 316 423.5 299.5 c 128,-1,18
 457 283 457 283 490 261 c 0,19,20
 508 249 508 249 530 229 c 128,-1,21
 552 209 552 209 572.5 182.5 c 128,-1,22
 593 156 593 156 609 125 c 128,-1,23
 625 94 625 94 631 61 c 1,24,25
 607 30 607 30 574.5 2 c 128,-1,26
 542 -26 542 -26 504.5 -48.5 c 128,-1,27
 467 -71 467 -71 425.5 -87.5 c 128,-1,28
 384 -104 384 -104 342 -112 c 1,29,30
 300 -109 300 -109 264.5 -99.5 c 128,-1,31
 229 -90 229 -90 197 -80 c 128,-1,32
 165 -70 165 -70 135.5 -62 c 128,-1,33
 106 -54 106 -54 77 -54 c 0,34,35
 54 -54 54 -54 32 -60 c 128,-1,36
 10 -66 10 -66 -14 -81 c 1,37,38
 -3 -49 -3 -49 12.5 -17 c 128,-1,39
 28 15 28 15 45 47 c 1,40,-1
 53 47 l 2,41,42
 109 47 109 47 150.5 34.5 c 128,-1,43
 192 22 192 22 227 7 c 128,-1,44
 262 -8 262 -8 293.5 -20.5 c 128,-1,45
 325 -33 325 -33 361 -33 c 0,46,47
 369 -33 369 -33 377 -32 c 128,-1,48
 385 -31 385 -31 393 -29 c 1,49,50
 393 5 393 5 382 31.5 c 128,-1,51
 371 58 371 58 353.5 78.5 c 128,-1,52
 336 99 336 99 313.5 116 c 128,-1,53
 291 133 291 133 267 150 c 2,54,-1
 250 162 l 2,55,56
 223 181 223 181 196 202 c 128,-1,57
 169 223 169 223 145.5 248.5 c 128,-1,58
 122 274 122 274 103.5 305.5 c 128,-1,59
 85 337 85 337 74 377 c 1,60,61
 87 406 87 406 105 441.5 c 128,-1,62
 123 477 123 477 137 500 c 1,63,64
 232 523 232 523 334 523 c 2,65,-1
 378 523 l 2,66,67
 464 523 464 523 575 499 c 1,0,1
EndSplineSet
EndChar

StartChar: T
Encoding: 84 84 20
Width: 705
Flags: W
LayerCount: 2
Fore
SplineSet
472 435 m 1,0,1
 460 362 460 362 453 290.5 c 128,-1,2
 446 219 446 219 446 147 c 0,3,4
 446 110 446 110 448 73 c 128,-1,5
 450 36 450 36 454 0 c 1,6,-1
 236 0 l 1,7,8
 218 85 218 85 210 170 c 128,-1,9
 202 255 202 255 202 342 c 0,10,11
 202 365 202 365 202.5 388.5 c 128,-1,12
 203 412 203 412 204 435 c 1,13,14
 157 421 157 421 133 392 c 128,-1,15
 109 363 109 363 100 320 c 1,16,-1
 1 326 l 1,17,-1
 37 500 l 1,18,-1
 702 500 l 1,19,20
 693 451 693 451 683 408 c 128,-1,21
 673 365 673 365 656 320 c 1,22,-1
 555 326 l 1,23,24
 559 342 559 342 559 358 c 0,25,26
 559 400 559 400 533.5 417.5 c 128,-1,27
 508 435 508 435 472 435 c 1,0,1
EndSplineSet
EndChar

StartChar: U
Encoding: 85 85 21
Width: 701
Flags: W
LayerCount: 2
Fore
SplineSet
658 500 m 1,0,1
 660 463 660 463 661 425.5 c 128,-1,2
 662 388 662 388 662 350 c 0,3,4
 662 272 662 272 658 195 c 128,-1,5
 654 118 654 118 646 45 c 1,6,7
 597 13 597 13 532 -4.5 c 128,-1,8
 467 -22 467 -22 397 -22 c 0,9,10
 204 -22 204 -22 85 45 c 1,11,12
 78 102 78 102 75 151.5 c 128,-1,13
 72 201 72 201 72 251 c 0,14,15
 72 308 72 308 75.5 368 c 128,-1,16
 79 428 79 428 87 500 c 1,17,-1
 356 500 l 1,18,19
 316 283 316 283 314 83 c 1,20,21
 328 70 328 70 358.5 57.5 c 128,-1,22
 389 45 389 45 438 45 c 0,23,24
 488 45 488 45 514 53.5 c 128,-1,25
 540 62 540 62 556 73 c 1,26,27
 558 98 558 98 558 121.5 c 128,-1,28
 558 145 558 145 558 168 c 0,29,30
 558 251 558 251 551 331 c 128,-1,31
 544 411 544 411 530 500 c 1,32,-1
 658 500 l 1,0,1
EndSplineSet
EndChar

StartChar: V
Encoding: 86 86 22
Width: 703
Flags: W
LayerCount: 2
Fore
SplineSet
220 0 m 1,0,1
 132 112 132 112 80 241.5 c 128,-1,2
 28 371 28 371 8 500 c 1,3,-1
 281 500 l 1,4,5
 283 408 283 408 308 316 c 128,-1,6
 333 224 333 224 375 143 c 1,7,8
 429 233 429 233 429 341 c 0,9,10
 429 414 429 414 403 500 c 1,11,-1
 670 500 l 1,12,13
 671 489 671 489 671 478 c 128,-1,14
 671 467 671 467 671 456 c 0,15,16
 671 396 671 396 662.5 341.5 c 128,-1,17
 654 287 654 287 637 245 c 1,18,19
 599 229 599 229 563 210.5 c 128,-1,20
 527 192 527 192 498 171 c 128,-1,21
 469 150 469 150 451.5 126.5 c 128,-1,22
 434 103 434 103 434 76 c 0,23,24
 434 59 434 59 442.5 39.5 c 128,-1,25
 451 20 451 20 471 0 c 1,26,-1
 220 0 l 1,0,1
EndSplineSet
EndChar

StartChar: W
Encoding: 87 87 23
Width: 1040
Flags: W
LayerCount: 2
Fore
SplineSet
640 500 m 1,0,1
 648 407 648 407 671.5 315 c 128,-1,2
 695 223 695 223 734 143 c 1,3,4
 759 189 759 189 772 239.5 c 128,-1,5
 785 290 785 290 785 346 c 0,6,7
 785 383 785 383 779.5 421 c 128,-1,8
 774 459 774 459 761 500 c 1,9,-1
 1029 500 l 1,10,11
 1030 489 1030 489 1030 478 c 128,-1,12
 1030 467 1030 467 1030 456 c 0,13,14
 1030 396 1030 396 1021.5 341.5 c 128,-1,15
 1013 287 1013 287 996 244 c 1,16,17
 933 226 933 226 880.5 196.5 c 128,-1,18
 828 167 828 167 804 131 c 0,19,20
 796 119 796 119 792.5 106.5 c 128,-1,21
 789 94 789 94 789 82 c 0,22,23
 789 59 789 59 800.5 38.5 c 128,-1,24
 812 18 812 18 830 0 c 1,25,-1
 578 0 l 1,26,27
 545 50 545 50 519 103 c 128,-1,28
 493 156 493 156 473 213 c 1,29,30
 457 177 457 177 448.5 145 c 128,-1,31
 440 113 440 113 440 85 c 0,32,33
 440 35 440 35 469 0 c 1,34,-1
 218 0 l 1,35,36
 179 52 179 52 146 112.5 c 128,-1,37
 113 173 113 173 86.5 237.5 c 128,-1,38
 60 302 60 302 41.5 369 c 128,-1,39
 23 436 23 436 14 500 c 1,40,-1
 280 500 l 1,41,42
 288 406 288 406 308 314.5 c 128,-1,43
 328 223 328 223 368 143 c 1,44,45
 393 185 393 185 406 238.5 c 128,-1,46
 419 292 419 292 419 354 c 0,47,48
 419 421 419 421 402 500 c 1,49,-1
 640 500 l 1,0,1
EndSplineSet
EndChar

StartChar: X
Encoding: 88 88 24
Width: 701
Flags: W
LayerCount: 2
Fore
SplineSet
587 555 m 0,0,1
 605 561 605 561 624 562.5 c 128,-1,2
 643 564 643 564 661.5 566 c 128,-1,3
 680 568 680 568 698 572 c 128,-1,4
 716 576 716 576 731 586 c 1,5,6
 717 553 717 553 704 529.5 c 128,-1,7
 691 506 691 506 674 481 c 1,8,9
 642 473 642 473 614 473 c 0,10,11
 595 473 595 473 574 476 c 1,12,13
 534 447 534 447 499 411.5 c 128,-1,14
 464 376 464 376 432 339 c 1,15,16
 472 276 472 276 521.5 194.5 c 128,-1,17
 571 113 571 113 625 0 c 1,18,-1
 376 0 l 1,19,20
 356 42 356 42 336 81.5 c 128,-1,21
 316 121 316 121 294 159 c 1,22,23
 243 86 243 86 198 13 c 128,-1,24
 153 -60 153 -60 123 -121 c 1,25,26
 95 -128 95 -128 66 -134 c 128,-1,27
 37 -140 37 -140 8 -147 c 1,28,29
 30 -108 30 -108 58 -63.5 c 128,-1,30
 86 -19 86 -19 118.5 27.5 c 128,-1,31
 151 74 151 74 187 122 c 128,-1,32
 223 170 223 170 259 217 c 1,33,34
 210 294 210 294 153 364 c 128,-1,35
 96 434 96 434 26 500 c 1,36,-1
 337 500 l 1,37,38
 350 473 350 473 365.5 445.5 c 128,-1,39
 381 418 381 418 401 388 c 1,40,41
 421 410 421 410 441.5 435 c 128,-1,42
 462 460 462 460 485 483.5 c 128,-1,43
 508 507 508 507 533 525.5 c 128,-1,44
 558 544 558 544 587 555 c 0,0,1
EndSplineSet
EndChar

StartChar: uni0425
Encoding: 1061 1061 25
Width: 702
Flags: W
LayerCount: 2
Fore
SplineSet
588 555 m 0,0,1
 606 561 606 561 625 562.5 c 128,-1,2
 644 564 644 564 662.5 566 c 128,-1,3
 681 568 681 568 699 572 c 128,-1,4
 717 576 717 576 732 586 c 1,5,6
 718 553 718 553 705 529.5 c 128,-1,7
 692 506 692 506 675 481 c 1,8,9
 643 473 643 473 615 473 c 0,10,11
 596 473 596 473 575 476 c 1,12,13
 535 447 535 447 500 411.5 c 128,-1,14
 465 376 465 376 433 339 c 1,15,16
 473 276 473 276 522.5 194.5 c 128,-1,17
 572 113 572 113 626 0 c 1,18,-1
 377 0 l 1,19,20
 357 42 357 42 337 81.5 c 128,-1,21
 317 121 317 121 295 159 c 1,22,23
 244 86 244 86 199 13 c 128,-1,24
 154 -60 154 -60 124 -121 c 1,25,26
 96 -128 96 -128 67 -134 c 128,-1,27
 38 -140 38 -140 9 -147 c 1,28,29
 31 -108 31 -108 59 -63.5 c 128,-1,30
 87 -19 87 -19 119.5 27.5 c 128,-1,31
 152 74 152 74 188 122 c 128,-1,32
 224 170 224 170 260 217 c 1,33,34
 211 294 211 294 154 364 c 128,-1,35
 97 434 97 434 27 500 c 1,36,-1
 338 500 l 1,37,38
 351 473 351 473 366.5 445.5 c 128,-1,39
 382 418 382 418 402 388 c 1,40,41
 422 410 422 410 442.5 435 c 128,-1,42
 463 460 463 460 486 483.5 c 128,-1,43
 509 507 509 507 534 525.5 c 128,-1,44
 559 544 559 544 588 555 c 0,0,1
EndSplineSet
EndChar

StartChar: Y
Encoding: 89 89 26
Width: 688
Flags: W
LayerCount: 2
Fore
SplineSet
572 556 m 0,0,1
 590 562 590 562 609 563.5 c 128,-1,2
 628 565 628 565 646.5 567 c 128,-1,3
 665 569 665 569 683 573 c 128,-1,4
 701 577 701 577 716 587 c 1,5,6
 702 554 702 554 689.5 530 c 128,-1,7
 677 506 677 506 660 481 c 1,8,9
 644 477 644 477 629 475 c 128,-1,10
 614 473 614 473 599 473 c 0,11,12
 580 473 580 473 559 476 c 1,13,14
 534 446 534 446 515.5 406.5 c 128,-1,15
 497 367 497 367 482.5 323 c 128,-1,16
 468 279 468 279 457.5 233.5 c 128,-1,17
 447 188 447 188 438 146 c 0,18,19
 427 94 427 94 412 27.5 c 128,-1,20
 397 -39 397 -39 378 -109 c 128,-1,21
 359 -179 359 -179 336 -246.5 c 128,-1,22
 313 -314 313 -314 286 -368 c 1,23,24
 259 -376 259 -376 226.5 -383.5 c 128,-1,25
 194 -391 194 -391 162 -397 c 1,26,27
 192 -345 192 -345 217 -291 c 128,-1,28
 242 -237 242 -237 262.5 -185.5 c 128,-1,29
 283 -134 283 -134 298 -86.5 c 128,-1,30
 313 -39 313 -39 324 0 c 1,31,-1
 117 0 l 1,32,33
 79 122 79 122 58 247 c 128,-1,34
 37 372 37 372 35 500 c 1,35,-1
 327 500 l 1,36,37
 306 407 306 407 306 316 c 0,38,39
 306 253 306 253 315 190 c 128,-1,40
 324 127 324 127 340 64 c 1,41,42
 362 149 362 149 382.5 230 c 128,-1,43
 403 311 403 311 428 377.5 c 128,-1,44
 453 444 453 444 487 491 c 128,-1,45
 521 538 521 538 572 556 c 0,0,1
EndSplineSet
EndChar

StartChar: Z
Encoding: 90 90 27
Width: 638
Flags: W
LayerCount: 2
Fore
SplineSet
312 77 m 1,0,1
 335 72 335 72 355.5 69.5 c 128,-1,2
 376 67 376 67 396 67 c 2,3,-1
 405 67 l 2,4,5
 445 67 445 67 471.5 85 c 128,-1,6
 498 103 498 103 510 153 c 1,7,8
 541 152 541 152 569.5 151.5 c 128,-1,9
 598 151 598 151 630 149 c 1,10,11
 622 105 622 105 613 70 c 128,-1,12
 604 35 604 35 590 0 c 1,13,-1
 19 0 l 1,14,15
 75 100 75 100 149.5 212 c 128,-1,16
 224 324 224 324 315 430 c 1,17,18
 301 433 301 433 288.5 434 c 128,-1,19
 276 435 276 435 254 435 c 0,20,21
 207 435 207 435 173 410 c 128,-1,22
 139 385 139 385 130 342 c 1,23,24
 107 344 107 344 81 345.5 c 128,-1,25
 55 347 55 347 32 349 c 1,26,-1
 63 500 l 1,27,-1
 620 500 l 1,28,29
 529 402 529 402 453 297 c 128,-1,30
 377 192 377 192 312 77 c 1,0,1
EndSplineSet
EndChar

StartChar: one
Encoding: 49 49 28
Width: 432
Flags: W
LayerCount: 2
Fore
SplineSet
381 500 m 1,0,1
 382 465 382 465 382.5 429 c 128,-1,2
 383 393 383 393 383 358 c 0,3,4
 383 268 383 268 378.5 179.5 c 128,-1,5
 374 91 374 91 362 0 c 1,6,-1
 135 0 l 1,7,8
 137 38 137 38 138.5 72 c 128,-1,9
 140 106 140 106 140 140 c 0,10,11
 140 185 140 185 137.5 230.5 c 128,-1,12
 135 276 135 276 129 324 c 1,13,14
 103 304 103 304 62 278 c 1,15,16
 51 298 51 298 42 314.5 c 128,-1,17
 33 331 33 331 17 357 c 1,18,19
 47 368 47 368 79 383.5 c 128,-1,20
 111 399 111 399 143.5 418 c 128,-1,21
 176 437 176 437 206.5 457.5 c 128,-1,22
 237 478 237 478 263 500 c 1,23,-1
 381 500 l 1,0,1
EndSplineSet
EndChar

StartChar: zero
Encoding: 48 48 29
Width: 658
Flags: W
LayerCount: 2
Fore
SplineSet
123 3 m 1,0,1
 77 62 77 62 55.5 119.5 c 128,-1,2
 34 177 34 177 34 232 c 0,3,4
 34 250 34 250 36.5 269 c 128,-1,5
 39 288 39 288 44 305 c 0,6,7
 57 353 57 353 88 393 c 128,-1,8
 119 433 119 433 164 461.5 c 128,-1,9
 209 490 209 490 266 506.5 c 128,-1,10
 323 523 323 523 390 523 c 0,11,12
 430 523 430 523 471.5 517 c 128,-1,13
 513 511 513 511 555 498 c 1,14,15
 593 450 593 450 610 400.5 c 128,-1,16
 627 351 627 351 627 303 c 0,17,18
 627 283 627 283 624.5 264 c 128,-1,19
 622 245 622 245 617 228 c 0,20,21
 602 175 602 175 569.5 130 c 128,-1,22
 537 85 537 85 490 51 c 128,-1,23
 443 17 443 17 385 -2.5 c 128,-1,24
 327 -22 327 -22 261 -22 c 0,25,26
 196 -22 196 -22 123 3 c 1,0,1
275 436 m 1,27,28
 256 404 256 404 248 367.5 c 128,-1,29
 240 331 240 331 240 293 c 0,30,31
 240 254 240 254 249 216.5 c 128,-1,32
 258 179 258 179 275 146.5 c 128,-1,33
 292 114 292 114 316.5 88 c 128,-1,34
 341 62 341 62 373 47 c 1,35,36
 397 78 397 78 408.5 115 c 128,-1,37
 420 152 420 152 420 191 c 0,38,39
 420 227 420 227 410.5 263 c 128,-1,40
 401 299 401 299 382.5 331.5 c 128,-1,41
 364 364 364 364 337 391 c 128,-1,42
 310 418 310 418 275 436 c 1,27,28
EndSplineSet
EndChar

StartChar: two
Encoding: 50 50 30
Width: 569
Flags: W
LayerCount: 2
Fore
SplineSet
425 500 m 1,0,1
 456 477 456 477 485 440.5 c 128,-1,2
 514 404 514 404 528 364 c 1,3,4
 509 328 509 328 477.5 289.5 c 128,-1,5
 446 251 446 251 404 213.5 c 128,-1,6
 362 176 362 176 310.5 140 c 128,-1,7
 259 104 259 104 201 71 c 1,8,9
 226 68 226 68 252 66.5 c 128,-1,10
 278 65 278 65 304 65 c 0,11,12
 367 65 367 65 397 88.5 c 128,-1,13
 427 112 427 112 442 153 c 1,14,-1
 537 148 l 1,15,16
 534 128 534 128 530 107.5 c 128,-1,17
 526 87 526 87 520.5 67.5 c 128,-1,18
 515 48 515 48 509 30.5 c 128,-1,19
 503 13 503 13 497 0 c 1,20,-1
 22 0 l 1,21,-1
 29 6 l 1,22,23
 55 31 55 31 93.5 71 c 128,-1,24
 132 111 132 111 168 157.5 c 128,-1,25
 204 204 204 204 229.5 253.5 c 128,-1,26
 255 303 255 303 255 348 c 0,27,28
 255 375 255 375 243.5 398.5 c 128,-1,29
 232 422 232 422 206 442 c 1,30,31
 182 425 182 425 162 401.5 c 128,-1,32
 142 378 142 378 129 348 c 1,33,34
 105 355 105 355 82 362.5 c 128,-1,35
 59 370 59 370 34 377 c 1,36,37
 60 418 60 418 91.5 449.5 c 128,-1,38
 123 481 123 481 153 500 c 1,39,-1
 425 500 l 1,0,1
EndSplineSet
EndChar

StartChar: three
Encoding: 51 51 31
Width: 508
Flags: W
LayerCount: 2
Fore
SplineSet
492 500 m 1,0,1
 477 468 477 468 455 438.5 c 128,-1,2
 433 409 433 409 406 382.5 c 128,-1,3
 379 356 379 356 349 333.5 c 128,-1,4
 319 311 319 311 289 293 c 1,5,6
 314 286 314 286 343 276 c 128,-1,7
 372 266 372 266 400.5 253 c 128,-1,8
 429 240 429 240 454.5 226 c 128,-1,9
 480 212 480 212 500 198 c 1,10,11
 491 178 491 178 478 153.5 c 128,-1,12
 465 129 465 129 447 103 c 128,-1,13
 429 77 429 77 405.5 50.5 c 128,-1,14
 382 24 382 24 353 0 c 1,15,-1
 40 0 l 1,16,17
 72 20 72 20 108 48.5 c 128,-1,18
 144 77 144 77 176.5 108.5 c 128,-1,19
 209 140 209 140 235.5 171 c 128,-1,20
 262 202 262 202 276 228 c 1,21,22
 266 235 266 235 250.5 244 c 128,-1,23
 235 253 235 253 218 260.5 c 128,-1,24
 201 268 201 268 183.5 274.5 c 128,-1,25
 166 281 166 281 151 284 c 1,26,27
 172 296 172 296 190.5 313 c 128,-1,28
 209 330 209 330 224.5 349.5 c 128,-1,29
 240 369 240 369 252 390 c 128,-1,30
 264 411 264 411 272 429 c 1,31,32
 264 432 264 432 244 433.5 c 128,-1,33
 224 435 224 435 212 435 c 0,34,35
 176 435 176 435 155.5 429 c 128,-1,36
 135 423 135 423 124 413.5 c 128,-1,37
 113 404 113 404 109 391 c 128,-1,38
 105 378 105 378 102 364 c 2,39,-1
 100 355 l 1,40,41
 82 355 82 355 59 355.5 c 128,-1,42
 36 356 36 356 16 357 c 1,43,44
 24 399 24 399 32 433.5 c 128,-1,45
 40 468 40 468 48 500 c 1,46,-1
 492 500 l 1,0,1
EndSplineSet
EndChar

StartChar: four
Encoding: 52 52 32
Width: 590
Flags: W
LayerCount: 2
Fore
SplineSet
500 142 m 1,0,1
 528 147 528 147 545.5 154 c 128,-1,2
 563 161 563 161 588 176 c 1,3,4
 581 159 581 159 575.5 145.5 c 128,-1,5
 570 132 570 132 565 121 c 128,-1,6
 560 110 560 110 555 99 c 128,-1,7
 550 88 550 88 544 75 c 1,8,-1
 494 75 l 1,9,-1
 485 0 l 1,10,-1
 255 0 l 1,11,12
 259 18 259 18 261 36.5 c 128,-1,13
 263 55 263 55 265 75 c 1,14,-1
 40 75 l 1,15,16
 36 97 36 97 32 118.5 c 128,-1,17
 28 140 28 140 23 163 c 1,18,19
 56 196 56 196 83.5 238 c 128,-1,20
 111 280 111 280 132.5 325 c 128,-1,21
 154 370 154 370 168.5 415 c 128,-1,22
 183 460 183 460 189 500 c 1,23,-1
 407 500 l 1,24,25
 388 452 388 452 355 407 c 128,-1,26
 322 362 322 362 282.5 320.5 c 128,-1,27
 243 279 243 279 202 242 c 128,-1,28
 161 205 161 205 125 174 c 2,29,-1
 107 159 l 1,30,31
 122 155 122 155 142.5 151.5 c 128,-1,32
 163 148 163 148 184.5 146 c 128,-1,33
 206 144 206 144 228 142.5 c 128,-1,34
 250 141 250 141 269 141 c 1,35,-1
 269 157 l 2,36,37
 269 174 269 174 268.5 187.5 c 128,-1,38
 268 201 268 201 266.5 214.5 c 128,-1,39
 265 228 265 228 263 242.5 c 128,-1,40
 261 257 261 257 258 276 c 1,41,-1
 509 276 l 1,42,43
 509 254 509 254 508 239 c 128,-1,44
 507 224 507 224 506 209.5 c 128,-1,45
 505 195 505 195 503.5 179.5 c 128,-1,46
 502 164 502 164 500 142 c 1,0,1
EndSplineSet
EndChar

StartChar: five
Encoding: 53 53 33
Width: 485
Flags: W
LayerCount: 2
Fore
SplineSet
360 500 m 2,0,1
 394 500 394 500 421.5 506.5 c 128,-1,2
 449 513 449 513 482 523 c 1,3,4
 474 510 474 510 469 500 c 128,-1,5
 464 490 464 490 459 481 c 128,-1,6
 454 472 454 472 449 462 c 128,-1,7
 444 452 444 452 437 440 c 1,8,9
 427 438 427 438 413 436.5 c 128,-1,10
 399 435 399 435 386 435 c 2,11,-1
 234 435 l 1,12,13
 223 413 223 413 213 380.5 c 128,-1,14
 203 348 203 348 198 316 c 1,15,16
 229 316 229 316 267 313 c 128,-1,17
 305 310 305 310 343.5 304.5 c 128,-1,18
 382 299 382 299 418.5 290.5 c 128,-1,19
 455 282 455 282 482 271 c 1,20,21
 472 235 472 235 457.5 198 c 128,-1,22
 443 161 443 161 424.5 126 c 128,-1,23
 406 91 406 91 383.5 59 c 128,-1,24
 361 27 361 27 336 0 c 1,25,-1
 23 0 l 1,26,27
 101 50 101 50 153.5 107.5 c 128,-1,28
 206 165 206 165 238 234 c 1,29,30
 218 242 218 242 190.5 249 c 128,-1,31
 163 256 163 256 132 261 c 128,-1,32
 101 266 101 266 69 269 c 128,-1,33
 37 272 37 272 9 272 c 1,34,-1
 9 279 l 2,35,36
 9 308 9 308 11.5 339 c 128,-1,37
 14 370 14 370 19.5 399.5 c 128,-1,38
 25 429 25 429 32 455 c 128,-1,39
 39 481 39 481 48 500 c 1,40,-1
 360 500 l 2,0,1
EndSplineSet
EndChar

StartChar: six
Encoding: 54 54 34
Width: 540
Flags: W
LayerCount: 2
Fore
SplineSet
86 0 m 1,0,1
 63 30 63 30 47.5 88 c 128,-1,2
 32 146 32 146 32 215 c 0,3,4
 32 252 32 252 37.5 291 c 128,-1,5
 43 330 43 330 55 367 c 128,-1,6
 67 404 67 404 86 438 c 128,-1,7
 105 472 105 472 132 500 c 1,8,-1
 432 500 l 1,9,10
 378 467 378 467 343.5 420 c 128,-1,11
 309 373 309 373 290 319 c 1,12,13
 358 316 358 316 416.5 302.5 c 128,-1,14
 475 289 475 289 516 276 c 1,15,16
 527 246 527 246 531.5 217.5 c 128,-1,17
 536 189 536 189 536 161 c 0,18,19
 536 119 536 119 525 79 c 128,-1,20
 514 39 514 39 493 0 c 1,21,-1
 86 0 l 1,0,1
274 264 m 1,22,23
 267 234 267 234 264.5 207 c 128,-1,24
 262 180 262 180 262 154 c 0,25,26
 262 105 262 105 271 65 c 1,27,28
 286 82 286 82 299 103.5 c 128,-1,29
 312 125 312 125 321.5 147 c 128,-1,30
 331 169 331 169 337 190.5 c 128,-1,31
 343 212 343 212 344 230 c 1,32,33
 330 243 330 243 312 251 c 128,-1,34
 294 259 294 259 274 264 c 1,22,23
EndSplineSet
EndChar

StartChar: seven
Encoding: 55 55 35
Width: 547
Flags: W
LayerCount: 2
Fore
SplineSet
41 0 m 1,0,1
 131 89 131 89 195.5 201 c 128,-1,2
 260 313 260 313 304 429 c 1,3,4
 290 431 290 431 270.5 433 c 128,-1,5
 251 435 251 435 226 435 c 2,6,-1
 210 435 l 2,7,8
 155 435 155 435 130.5 418 c 128,-1,9
 106 401 106 401 96 354 c 1,10,-1
 12 357 l 1,11,12
 18 392 18 392 26 424.5 c 128,-1,13
 34 457 34 457 42 491 c 2,14,-1
 44 500 l 1,15,-1
 540 500 l 1,16,17
 523 433 523 433 501 363 c 128,-1,18
 479 293 479 293 454 227.5 c 128,-1,19
 429 162 429 162 403 103.5 c 128,-1,20
 377 45 377 45 352 0 c 1,21,-1
 41 0 l 1,22,-1
 41 0 l 1,0,1
EndSplineSet
EndChar

StartChar: eight
Encoding: 56 56 36
Width: 532
Flags: W
LayerCount: 2
Fore
SplineSet
86 0 m 1,0,1
 59 35 59 35 39.5 71.5 c 128,-1,2
 20 108 20 108 4 158 c 1,3,4
 32 192 32 192 67 222.5 c 128,-1,5
 102 253 102 253 136 274 c 1,6,7
 115 302 115 302 96.5 333.5 c 128,-1,8
 78 365 78 365 62 403 c 1,9,10
 79 429 79 429 97 453 c 128,-1,11
 115 477 115 477 141 500 c 1,12,-1
 403 500 l 1,13,14
 430 474 430 474 447 443 c 128,-1,15
 464 412 464 412 469 382 c 1,16,17
 437 323 437 323 394 287 c 1,18,19
 436 267 436 267 472.5 227 c 128,-1,20
 509 187 509 187 527 142 c 1,21,22
 513 95 513 95 497.5 63.5 c 128,-1,23
 482 32 482 32 455 0 c 1,24,-1
 86 0 l 1,0,1
181 222 m 1,25,26
 172 196 172 196 172 175 c 0,27,28
 172 149 172 149 183 129.5 c 128,-1,29
 194 110 194 110 211.5 96.5 c 128,-1,30
 229 83 229 83 251 75.5 c 128,-1,31
 273 68 273 68 295 66 c 1,32,33
 289 102 289 102 259 144.5 c 128,-1,34
 229 187 229 187 181 222 c 1,25,26
331 313 m 1,35,36
 339 327 339 327 339 345 c 0,37,38
 339 360 339 360 333 375 c 128,-1,39
 327 390 327 390 313.5 402.5 c 128,-1,40
 300 415 300 415 277.5 424 c 128,-1,41
 255 433 255 433 222 435 c 1,42,43
 235 390 235 390 263.5 361 c 128,-1,44
 292 332 292 332 331 313 c 1,35,36
EndSplineSet
EndChar

StartChar: nine
Encoding: 57 57 37
Width: 553
Flags: W
LayerCount: 2
Fore
SplineSet
478 500 m 1,0,1
 501 470 501 470 516 412.5 c 128,-1,2
 531 355 531 355 531 286 c 0,3,4
 531 248 531 248 525.5 209.5 c 128,-1,5
 520 171 520 171 508 133.5 c 128,-1,6
 496 96 496 96 477 62 c 128,-1,7
 458 28 458 28 431 0 c 1,8,-1
 131 0 l 1,9,10
 185 34 185 34 219.5 81 c 128,-1,11
 254 128 254 128 273 181 c 1,12,13
 205 184 205 184 146.5 198 c 128,-1,14
 88 212 88 212 48 224 c 1,15,16
 37 254 37 254 32.5 283 c 128,-1,17
 28 312 28 312 28 340 c 0,18,19
 28 422 28 422 70 500 c 1,20,-1
 478 500 l 1,0,1
289 237 m 1,21,22
 296 268 296 268 299 296 c 128,-1,23
 302 324 302 324 302 350 c 0,24,25
 302 396 302 396 293 435 c 1,26,27
 278 418 278 418 265 397 c 128,-1,28
 252 376 252 376 242 353.5 c 128,-1,29
 232 331 232 331 226 309.5 c 128,-1,30
 220 288 220 288 219 271 c 1,31,32
 233 257 233 257 251 249.5 c 128,-1,33
 269 242 269 242 289 237 c 1,21,22
EndSplineSet
EndChar

StartChar: uni0410
Encoding: 1040 1040 38
Width: 767
Flags: W
LayerCount: 2
Fore
SplineSet
591 500 m 1,0,1
 639 395 639 395 664.5 268.5 c 128,-1,2
 690 142 690 142 690 8 c 2,3,-1
 690 0 l 1,4,-1
 458 0 l 1,5,6
 456 31 456 31 451.5 60 c 128,-1,7
 447 89 447 89 441 118 c 1,8,9
 409 86 409 86 374 56 c 128,-1,10
 339 26 339 26 301 0 c 1,11,-1
 68 0 l 1,12,13
 64 22 64 22 62.5 44.5 c 128,-1,14
 61 67 61 67 61 90 c 0,15,16
 61 133 61 133 66.5 173 c 128,-1,17
 72 213 72 213 81 244 c 1,18,19
 116 254 116 254 151.5 272.5 c 128,-1,20
 187 291 187 291 218.5 314.5 c 128,-1,21
 250 338 250 338 275.5 366 c 128,-1,22
 301 394 301 394 316 423 c 1,23,24
 289 465 289 465 259 500 c 1,25,-1
 591 500 l 1,0,1
423 191 m 1,26,27
 397 280 397 280 355 359 c 1,28,29
 308 221 308 221 301 98 c 1,30,31
 333 115 333 115 365 138.5 c 128,-1,32
 397 162 397 162 423 191 c 1,26,27
EndSplineSet
EndChar

StartChar: uni0412
Encoding: 1042 1042 39
Width: 695
Flags: W
LayerCount: 2
Fore
SplineSet
322 65 m 1,0,1
 351 65 351 65 380.5 67.5 c 128,-1,2
 410 70 410 70 433 76 c 1,3,4
 423 136 423 136 397.5 175.5 c 128,-1,5
 372 215 372 215 331 241 c 1,6,7
 322 152 322 152 322 65 c 1,0,1
644 500 m 1,8,9
 621 428 621 428 576 377 c 128,-1,10
 531 326 531 326 472 297 c 1,11,12
 527 277 527 277 572.5 250.5 c 128,-1,13
 618 224 618 224 656 183 c 1,14,15
 651 137 651 137 640 89.5 c 128,-1,16
 629 42 629 42 613 0 c 1,17,-1
 110 0 l 1,18,19
 91 66 91 66 80.5 142.5 c 128,-1,20
 70 219 70 219 70 300 c 0,21,22
 70 351 70 351 74.5 401 c 128,-1,23
 79 451 79 451 89 500 c 1,24,-1
 644 500 l 1,8,9
339 310 m 1,25,26
 361 316 361 316 384 326.5 c 128,-1,27
 407 337 407 337 427 352.5 c 128,-1,28
 447 368 447 368 463.5 388.5 c 128,-1,29
 480 409 480 409 490 434 c 1,30,31
 455 434 455 434 422.5 433 c 128,-1,32
 390 432 390 432 360 429 c 1,33,34
 348 371 348 371 339 310 c 1,25,26
EndSplineSet
EndChar

StartChar: uni0415
Encoding: 1045 1045 40
Width: 671
Flags: W
LayerCount: 2
Fore
SplineSet
614 500 m 1,0,1
 611 485 611 485 607.5 464.5 c 128,-1,2
 604 444 604 444 600 423 c 128,-1,3
 596 402 596 402 591 382.5 c 128,-1,4
 586 363 586 363 582 348 c 1,5,6
 550 346 550 346 527.5 345.5 c 128,-1,7
 505 345 505 345 474 344 c 1,8,9
 482 367 482 367 482 387 c 0,10,11
 482 414 482 414 463.5 424 c 128,-1,12
 445 434 445 434 410 435 c 0,13,14
 383 435 383 435 350 429 c 1,15,16
 340 387 340 387 331.5 345.5 c 128,-1,17
 323 304 323 304 316 262 c 1,18,19
 336 280 336 280 362.5 289.5 c 128,-1,20
 389 299 389 299 415 299 c 0,21,22
 438 299 438 299 462 296 c 128,-1,23
 486 293 486 293 509 293 c 0,24,25
 514 293 514 293 519.5 293 c 128,-1,26
 525 293 525 293 530 294 c 1,27,-1
 483 206 l 1,28,-1
 474 206 l 2,29,30
 446 206 446 206 419.5 216 c 128,-1,31
 393 226 393 226 370 227 c 0,32,33
 351 227 351 227 335 216.5 c 128,-1,34
 319 206 319 206 305 174 c 1,35,36
 301 125 301 125 299 76 c 1,37,38
 322 71 322 71 341.5 68.5 c 128,-1,39
 361 66 361 66 381 66 c 2,40,-1
 390 66 l 2,41,42
 431 66 431 66 457 84 c 128,-1,43
 483 102 483 102 495 153 c 1,44,-1
 615 148 l 1,45,46
 607 104 607 104 598 69.5 c 128,-1,47
 589 35 589 35 575 0 c 1,48,-1
 84 0 l 1,49,50
 75 61 75 61 69.5 132.5 c 128,-1,51
 64 204 64 204 64 280 c 0,52,53
 64 336 64 336 67 391 c 128,-1,54
 70 446 70 446 78 500 c 1,55,-1
 614 500 l 1,0,1
EndSplineSet
EndChar

StartChar: uni041A
Encoding: 1050 1050 41
Width: 707
Flags: W
LayerCount: 2
Fore
SplineSet
293 292 m 1,0,1
 334 359 334 359 383 412 c 128,-1,2
 432 465 432 465 505 502 c 1,3,4
 521 505 521 505 537 506 c 128,-1,5
 553 507 553 507 570 507 c 2,6,-1
 603 507 l 2,7,8
 628 507 628 507 652 509 c 128,-1,9
 676 511 676 511 698 522 c 1,10,11
 678 492 678 492 657 463.5 c 128,-1,12
 636 435 636 435 613 409 c 1,13,-1
 597 409 l 2,14,15
 546 409 546 409 498 425 c 1,16,17
 460 393 460 393 434.5 357.5 c 128,-1,18
 409 322 409 322 389 276 c 1,19,20
 440 263 440 263 496.5 255 c 128,-1,21
 553 247 553 247 625 244 c 1,22,23
 634 223 634 223 640.5 193.5 c 128,-1,24
 647 164 647 164 652 131 c 128,-1,25
 657 98 657 98 660.5 64 c 128,-1,26
 664 30 664 30 666 0 c 1,27,-1
 407 0 l 1,28,29
 399 37 399 37 385.5 72 c 128,-1,30
 372 107 372 107 356 136.5 c 128,-1,31
 340 166 340 166 321.5 188 c 128,-1,32
 303 210 303 210 284 222 c 1,33,34
 281 187 281 187 279 152 c 128,-1,35
 277 117 277 117 277 82 c 0,36,37
 277 40 277 40 280 0 c 1,38,-1
 60 0 l 1,39,40
 52 64 52 64 46.5 129.5 c 128,-1,41
 41 195 41 195 41 261 c 0,42,43
 41 321 41 321 45.5 380.5 c 128,-1,44
 50 440 50 440 56 500 c 1,45,-1
 334 500 l 1,46,47
 321 446 321 446 310.5 394.5 c 128,-1,48
 300 343 300 343 293 292 c 1,0,1
EndSplineSet
EndChar

StartChar: uni041C
Encoding: 1052 1052 42
Width: 1052
Flags: W
LayerCount: 2
Fore
SplineSet
550 500 m 1,0,1
 570 445 570 445 584 389.5 c 128,-1,2
 598 334 598 334 607 276 c 1,3,4
 630 318 630 318 643.5 367 c 128,-1,5
 657 416 657 416 657 454 c 0,6,7
 657 481 657 481 649 500 c 1,8,-1
 934 500 l 1,9,10
 953 448 953 448 967 383.5 c 128,-1,11
 981 319 981 319 989.5 252 c 128,-1,12
 998 185 998 185 1002 119.5 c 128,-1,13
 1006 54 1006 54 1006 0 c 1,14,-1
 775 0 l 1,15,16
 772 83 772 83 757 174.5 c 128,-1,17
 742 266 742 266 716 347 c 1,18,19
 678 272 678 272 652 189.5 c 128,-1,20
 626 107 626 107 622 0 c 1,21,-1
 426 0 l 1,22,23
 413 98 413 98 388.5 184 c 128,-1,24
 364 270 364 270 326 348 c 1,25,26
 302 291 302 291 287 232.5 c 128,-1,27
 272 174 272 174 272 112 c 0,28,29
 272 84 272 84 275 56.5 c 128,-1,30
 278 29 278 29 286 0 c 1,31,-1
 43 0 l 1,32,33
 39 22 39 22 37.5 45 c 128,-1,34
 36 68 36 68 36 91 c 0,35,36
 36 134 36 134 41.5 173.5 c 128,-1,37
 47 213 47 213 56 244 c 1,38,39
 90 254 90 254 125 271.5 c 128,-1,40
 160 289 160 289 191 312 c 128,-1,41
 222 335 222 335 247.5 362 c 128,-1,42
 273 389 273 389 289 418 c 1,43,44
 263 461 263 461 234 500 c 1,45,-1
 550 500 l 1,0,1
EndSplineSet
EndChar

StartChar: uni2116
Encoding: 8470 8470 43
Width: 1007
Flags: W
LayerCount: 2
Fore
SplineSet
652 500 m 1,0,1
 658 396 658 396 658 294 c 0,2,3
 658 220 658 220 655 147 c 128,-1,4
 652 74 652 74 647 1 c 1,5,-1
 552 1 l 1,6,7
 499 29 499 29 448.5 64 c 128,-1,8
 398 99 398 99 353 136 c 128,-1,9
 308 173 308 173 268.5 211 c 128,-1,10
 229 249 229 249 197 284 c 1,11,12
 200 252 200 252 202 214.5 c 128,-1,13
 204 177 204 177 204 135 c 0,14,15
 204 103 204 103 203 69.5 c 128,-1,16
 202 36 202 36 199 1 c 1,17,-1
 83 1 l 1,18,19
 93 62 93 62 98 125.5 c 128,-1,20
 103 189 103 189 103 249 c 0,21,22
 103 289 103 289 100.5 325.5 c 128,-1,23
 98 362 98 362 93 394 c 1,24,25
 85 406 85 406 78 416.5 c 128,-1,26
 71 427 71 427 63.5 439 c 128,-1,27
 56 451 56 451 48 465.5 c 128,-1,28
 40 480 40 480 30 500 c 1,29,-1
 313 500 l 1,30,31
 335 463 335 463 365 424.5 c 128,-1,32
 395 386 395 386 429 350.5 c 128,-1,33
 463 315 463 315 498 284 c 128,-1,34
 533 253 533 253 565 232 c 1,35,-1
 565 249 l 2,36,37
 565 310 565 310 558.5 370.5 c 128,-1,38
 552 431 552 431 532 500 c 1,39,-1
 652 500 l 1,0,1
699 228 m 1,40,41
 733 226 733 226 766.5 224.5 c 128,-1,42
 800 223 800 223 833 223 c 0,43,44
 869 223 869 223 904.5 224.5 c 128,-1,45
 940 226 940 226 976 228 c 1,46,-1
 976 161 l 1,47,48
 904 167 904 167 833 167 c 0,49,50
 766 167 766 167 699 161 c 1,51,-1
 699 228 l 1,40,41
743 267 m 1,52,53
 722 296 722 296 712 323.5 c 128,-1,54
 702 351 702 351 702 377 c 0,55,56
 702 407 702 407 714 432.5 c 128,-1,57
 726 458 726 458 748.5 477 c 128,-1,58
 771 496 771 496 801.5 506.5 c 128,-1,59
 832 517 832 517 870 517 c 0,60,61
 903 517 903 517 939 508 c 1,62,63
 973 462 973 462 973 413 c 0,64,65
 973 382 973 382 960 353.5 c 128,-1,66
 947 325 947 325 924.5 303.5 c 128,-1,67
 902 282 902 282 871.5 269 c 128,-1,68
 841 256 841 256 806 256 c 0,69,70
 778 256 778 256 743 267 c 1,52,53
813 475 m 1,71,72
 809 463 809 463 807.5 449.5 c 128,-1,73
 806 436 806 436 806 422 c 0,74,75
 806 380 806 380 820 342.5 c 128,-1,76
 834 305 834 305 858 289 c 1,77,78
 869 314 869 314 869 346 c 0,79,80
 869 384 869 384 854.5 420 c 128,-1,81
 840 456 840 456 813 475 c 1,71,72
EndSplineSet
EndChar

StartChar: exclam
Encoding: 33 33 44
Width: 302
Flags: W
LayerCount: 2
Fore
SplineSet
283 517 m 1,0,1
 280 467 280 467 271 413 c 128,-1,2
 262 359 262 359 249 308 c 128,-1,3
 236 257 236 257 220 213 c 128,-1,4
 204 169 204 169 188 138 c 1,5,6
 177 139 177 139 163.5 140.5 c 128,-1,7
 150 142 150 142 136.5 144 c 128,-1,8
 123 146 123 146 110 148.5 c 128,-1,9
 97 151 97 151 88 154 c 1,10,11
 86 210 86 210 81.5 260 c 128,-1,12
 77 310 77 310 68.5 357.5 c 128,-1,13
 60 405 60 405 47 452 c 128,-1,14
 34 499 34 499 15 549 c 1,15,-1
 283 517 l 1,0,1
55 102 m 1,16,17
 90 96 90 96 122.5 94 c 128,-1,18
 155 92 155 92 190 92 c 2,19,-1
 223 92 l 1,20,21
 217 68 217 68 209 43.5 c 128,-1,22
 201 19 201 19 188 -5 c 1,23,24
 180 -6 180 -6 169 -6 c 128,-1,25
 158 -6 158 -6 145 -6 c 0,26,27
 116 -6 116 -6 84 -4.5 c 128,-1,28
 52 -3 52 -3 33 0 c 1,29,30
 44 25 44 25 49 50.5 c 128,-1,31
 54 76 54 76 55 102 c 1,16,17
EndSplineSet
EndChar

StartChar: question
Encoding: 63 63 45
Width: 472
Flags: W
LayerCount: 2
Fore
SplineSet
15 526 m 1,0,1
 77 540 77 540 123.5 544.5 c 128,-1,2
 170 549 170 549 216 549 c 0,3,4
 286 549 286 549 334.5 537.5 c 128,-1,5
 383 526 383 526 413 506.5 c 128,-1,6
 443 487 443 487 456 461 c 128,-1,7
 469 435 469 435 469 405 c 1,8,9
 464 365 464 365 438.5 332 c 128,-1,10
 413 299 413 299 382.5 268 c 128,-1,11
 352 237 352 237 323.5 206 c 128,-1,12
 295 175 295 175 283 139 c 1,13,14
 255 142 255 142 233 144.5 c 128,-1,15
 211 147 211 147 183 154 c 1,16,17
 192 185 192 185 207 214.5 c 128,-1,18
 222 244 222 244 237 273.5 c 128,-1,19
 252 303 252 303 263 333 c 128,-1,20
 274 363 274 363 274 395 c 0,21,22
 274 413 274 413 269.5 432 c 128,-1,23
 265 451 265 451 254 471 c 1,24,25
 228 480 228 480 202 480 c 0,26,27
 192 480 192 480 183 478.5 c 128,-1,28
 174 477 174 477 164 475 c 1,29,30
 167 458 167 458 171.5 438.5 c 128,-1,31
 176 419 176 419 181 402 c 1,32,33
 150 402 150 402 117 404 c 128,-1,34
 84 406 84 406 53 409 c 1,35,36
 42 432 42 432 31.5 463 c 128,-1,37
 21 494 21 494 15 526 c 1,0,1
150 102 m 1,38,39
 193 94 193 94 234 93 c 128,-1,40
 275 92 275 92 318 92 c 1,41,42
 312 68 312 68 304 44 c 128,-1,43
 296 20 296 20 283 -5 c 1,44,45
 275 -6 275 -6 265 -6 c 128,-1,46
 255 -6 255 -6 244 -6 c 0,47,48
 213 -6 213 -6 180.5 -4.5 c 128,-1,49
 148 -3 148 -3 128 0 c 1,50,51
 139 26 139 26 144 51 c 128,-1,52
 149 76 149 76 150 102 c 1,38,39
EndSplineSet
EndChar

StartChar: comma
Encoding: 44 44 46
Width: 215
Flags: W
LayerCount: 2
Fore
SplineSet
38 102 m 1,0,1
 80 94 80 94 120.5 92.5 c 128,-1,2
 161 91 161 91 206 91 c 1,3,4
 198 45 198 45 180 -2 c 128,-1,5
 162 -49 162 -49 136 -88 c 1,6,7
 111 -85 111 -85 89 -79 c 1,8,9
 99 -62 99 -62 105.5 -42 c 128,-1,10
 112 -22 112 -22 112 -6 c 1,11,12
 86 -6 86 -6 59.5 -4.5 c 128,-1,13
 33 -3 33 -3 16 0 c 1,14,15
 27 25 27 25 32 50.5 c 128,-1,16
 37 76 37 76 38 102 c 1,0,1
EndSplineSet
EndChar

StartChar: period
Encoding: 46 46 47
Width: 219
Flags: W
LayerCount: 2
Fore
SplineSet
40 102 m 1,0,1
 83 94 83 94 124 93 c 128,-1,2
 165 92 165 92 208 92 c 1,3,4
 202 68 202 68 194 44 c 128,-1,5
 186 20 186 20 173 -5 c 1,6,7
 165 -6 165 -6 155 -6 c 128,-1,8
 145 -6 145 -6 134 -6 c 0,9,10
 103 -6 103 -6 70.5 -4.5 c 128,-1,11
 38 -3 38 -3 18 0 c 1,12,13
 29 26 29 26 34 51 c 128,-1,14
 39 76 39 76 40 102 c 1,0,1
EndSplineSet
EndChar

StartChar: parenleft
Encoding: 40 40 48
Width: 203
Flags: W
LayerCount: 2
Fore
SplineSet
169 605 m 1,0,1
 149 527 149 527 140 449.5 c 128,-1,2
 131 372 131 372 131 294 c 0,3,4
 131 186 131 186 149 83.5 c 128,-1,5
 167 -19 167 -19 204 -114 c 1,6,7
 179 -111 179 -111 166.5 -109 c 128,-1,8
 154 -107 154 -107 145 -105 c 128,-1,9
 136 -103 136 -103 125 -101 c 128,-1,10
 114 -99 114 -99 92 -94 c 1,11,12
 46 -23 46 -23 25.5 60.5 c 128,-1,13
 5 144 5 144 5 232 c 0,14,15
 5 334 5 334 30.5 432 c 128,-1,16
 56 530 56 530 102 605 c 1,17,-1
 169 605 l 1,0,1
EndSplineSet
EndChar

StartChar: parenright
Encoding: 41 41 49
Width: 207
Flags: W
LayerCount: 2
Fore
SplineSet
35 -114 m 1,0,1
 55 -36 55 -36 64 41.5 c 128,-1,2
 73 119 73 119 73 197 c 0,3,4
 73 305 73 305 55 407.5 c 128,-1,5
 37 510 37 510 0 605 c 1,6,7
 25 602 25 602 37.5 600 c 128,-1,8
 50 598 50 598 59 596.5 c 128,-1,9
 68 595 68 595 78.5 592 c 128,-1,10
 89 589 89 589 112 585 c 1,11,12
 158 515 158 515 178.5 431 c 128,-1,13
 199 347 199 347 199 259 c 0,14,15
 199 157 199 157 173.5 59 c 128,-1,16
 148 -39 148 -39 102 -114 c 1,17,-1
 35 -114 l 1,0,1
EndSplineSet
EndChar

StartChar: colon
Encoding: 58 58 50
Width: 205
Flags: W
LayerCount: 2
Fore
SplineSet
30 102 m 1,0,1
 65 96 65 96 97.5 94 c 128,-1,2
 130 92 130 92 165 92 c 2,3,-1
 198 92 l 1,4,5
 192 68 192 68 184 43.5 c 128,-1,6
 176 19 176 19 163 -5 c 1,7,8
 155 -6 155 -6 144 -6 c 128,-1,9
 133 -6 133 -6 120 -6 c 0,10,11
 91 -6 91 -6 59 -4.5 c 128,-1,12
 27 -3 27 -3 8 0 c 1,13,14
 19 25 19 25 24 50.5 c 128,-1,15
 29 76 29 76 30 102 c 1,0,1
30 447 m 1,16,17
 67 440 67 440 101 438 c 128,-1,18
 135 436 135 436 172 436 c 2,19,-1
 198 436 l 1,20,21
 192 412 192 412 184 388 c 128,-1,22
 176 364 176 364 163 340 c 1,23,24
 154 339 154 339 141 339 c 128,-1,25
 128 339 128 339 113 339 c 0,26,27
 85 339 85 339 55 340 c 128,-1,28
 25 341 25 341 8 345 c 1,29,30
 19 370 19 370 24 395.5 c 128,-1,31
 29 421 29 421 30 447 c 1,16,17
EndSplineSet
EndChar

StartChar: semicolon
Encoding: 59 59 51
Width: 207
Flags: W
LayerCount: 2
Fore
SplineSet
34 447 m 1,0,1
 70 441 70 441 104 439 c 128,-1,2
 138 437 138 437 175 437 c 2,3,-1
 202 437 l 1,4,5
 197 413 197 413 188.5 389 c 128,-1,6
 180 365 180 365 167 341 c 1,7,8
 158 340 158 340 145 339.5 c 128,-1,9
 132 339 132 339 117 339 c 0,10,11
 88 339 88 339 59 340.5 c 128,-1,12
 30 342 30 342 12 346 c 1,13,14
 23 371 23 371 28 396 c 128,-1,15
 33 421 33 421 34 447 c 1,0,1
34 103 m 1,16,17
 77 95 77 95 117 93.5 c 128,-1,18
 157 92 157 92 202 92 c 1,19,20
 194 46 194 46 176 -1 c 128,-1,21
 158 -48 158 -48 132 -87 c 1,22,23
 110 -84 110 -84 85 -78 c 1,24,25
 95 -61 95 -61 101.5 -41 c 128,-1,26
 108 -21 108 -21 109 -5 c 1,27,28
 82 -5 82 -5 55.5 -3.5 c 128,-1,29
 29 -2 29 -2 12 1 c 1,30,31
 23 26 23 26 28 51.5 c 128,-1,32
 33 77 33 77 34 103 c 1,16,17
EndSplineSet
EndChar

StartChar: quotesinglbase
Encoding: 8218 8218 52
Width: 215
Flags: W
LayerCount: 2
Fore
SplineSet
38 102 m 1,0,1
 80 94 80 94 120.5 92.5 c 128,-1,2
 161 91 161 91 206 91 c 1,3,4
 198 45 198 45 180 -2 c 128,-1,5
 162 -49 162 -49 136 -88 c 1,6,7
 111 -85 111 -85 89 -79 c 1,8,9
 99 -62 99 -62 105.5 -42 c 128,-1,10
 112 -22 112 -22 112 -6 c 1,11,12
 86 -6 86 -6 59.5 -4.5 c 128,-1,13
 33 -3 33 -3 16 0 c 1,14,15
 27 25 27 25 32 50.5 c 128,-1,16
 37 76 37 76 38 102 c 1,0,1
EndSplineSet
EndChar

StartChar: quotedblbase
Encoding: 8222 8222 53
Width: 443
Flags: W
LayerCount: 2
Fore
SplineSet
38 102 m 1,0,1
 80 94 80 94 120.5 92.5 c 128,-1,2
 161 91 161 91 206 91 c 1,3,4
 198 45 198 45 180 -2 c 128,-1,5
 162 -49 162 -49 136 -88 c 1,6,7
 111 -85 111 -85 89 -79 c 1,8,9
 99 -62 99 -62 105.5 -42 c 128,-1,10
 112 -22 112 -22 112 -6 c 1,11,12
 86 -6 86 -6 59.5 -4.5 c 128,-1,13
 33 -3 33 -3 16 0 c 1,14,15
 27 25 27 25 32 50.5 c 128,-1,16
 37 76 37 76 38 102 c 1,0,1
262 102 m 1,17,18
 304 94 304 94 344.5 92.5 c 128,-1,19
 385 91 385 91 430 91 c 1,20,21
 422 45 422 45 404 -2 c 128,-1,22
 386 -49 386 -49 360 -88 c 1,23,24
 335 -85 335 -85 313 -79 c 1,25,26
 323 -62 323 -62 329.5 -42 c 128,-1,27
 336 -22 336 -22 336 -6 c 1,28,29
 310 -6 310 -6 283.5 -4.5 c 128,-1,30
 257 -3 257 -3 240 0 c 1,31,32
 251 25 251 25 256 50.5 c 128,-1,33
 261 76 261 76 262 102 c 1,17,18
EndSplineSet
EndChar

StartChar: ellipsis
Encoding: 8230 8230 54
Width: 657
Flags: W
LayerCount: 2
Fore
SplineSet
40 102 m 1,0,1
 83 94 83 94 124 93 c 128,-1,2
 165 92 165 92 208 92 c 1,3,4
 202 68 202 68 194 44 c 128,-1,5
 186 20 186 20 173 -5 c 1,6,7
 165 -6 165 -6 155 -6 c 128,-1,8
 145 -6 145 -6 134 -6 c 0,9,10
 103 -6 103 -6 70.5 -4.5 c 128,-1,11
 38 -3 38 -3 18 0 c 1,12,13
 29 26 29 26 34 51 c 128,-1,14
 39 76 39 76 40 102 c 1,0,1
259 102 m 1,15,16
 302 94 302 94 343 93 c 128,-1,17
 384 92 384 92 427 92 c 1,18,19
 421 68 421 68 413 44 c 128,-1,20
 405 20 405 20 392 -5 c 1,21,22
 384 -6 384 -6 374 -6 c 128,-1,23
 364 -6 364 -6 353 -6 c 0,24,25
 322 -6 322 -6 289.5 -4.5 c 128,-1,26
 257 -3 257 -3 237 0 c 1,27,28
 248 26 248 26 253 51 c 128,-1,29
 258 76 258 76 259 102 c 1,15,16
478 102 m 1,30,31
 521 94 521 94 562 93 c 128,-1,32
 603 92 603 92 646 92 c 1,33,34
 640 68 640 68 632 44 c 128,-1,35
 624 20 624 20 611 -5 c 1,36,37
 603 -6 603 -6 593 -6 c 128,-1,38
 583 -6 583 -6 572 -6 c 0,39,40
 541 -6 541 -6 508.5 -4.5 c 128,-1,41
 476 -3 476 -3 456 0 c 1,42,43
 467 26 467 26 472 51 c 128,-1,44
 477 76 477 76 478 102 c 1,30,31
EndSplineSet
EndChar

StartChar: asterisk
Encoding: 42 42 55
Width: 273
Flags: W
LayerCount: 2
Fore
SplineSet
9 285 m 1,0,1
 54 282 54 282 99 282 c 1,2,-1
 51 358 l 1,3,-1
 97 384 l 1,4,5
 107 363 107 363 117 342.5 c 128,-1,6
 127 322 127 322 138 302 c 1,7,8
 149 322 149 322 159.5 342.5 c 128,-1,9
 170 363 170 363 180 384 c 1,10,-1
 226 358 l 1,11,12
 213 339 213 339 201.5 320 c 128,-1,13
 190 301 190 301 178 282 c 1,14,15
 201 282 201 282 223 283 c 128,-1,16
 245 284 245 284 268 285 c 1,17,-1
 268 232 l 1,18,19
 245 234 245 234 222 235 c 128,-1,20
 199 236 199 236 176 237 c 1,21,22
 188 217 188 217 200 198 c 128,-1,23
 212 179 212 179 226 160 c 1,24,-1
 180 134 l 1,25,26
 170 154 170 154 159.5 173.5 c 128,-1,27
 149 193 149 193 138 213 c 1,28,-1
 97 134 l 1,29,30
 85 140 85 140 73.5 146.5 c 128,-1,31
 62 153 62 153 51 160 c 1,32,33
 64 179 64 179 76.5 198 c 128,-1,34
 89 217 89 217 101 237 c 1,35,36
 78 236 78 236 55 235 c 128,-1,37
 32 234 32 234 9 232 c 1,38,-1
 9 285 l 1,0,1
EndSplineSet
EndChar

StartChar: plus
Encoding: 43 43 56
Width: 272
Flags: W
LayerCount: 2
Fore
SplineSet
6 277 m 1,0,1
 33 275 33 275 59.5 274.5 c 128,-1,2
 86 274 86 274 113 273 c 1,3,4
 112 300 112 300 111.5 326.5 c 128,-1,5
 111 353 111 353 109 380 c 1,6,-1
 162 380 l 1,7,8
 160 353 160 353 158.5 326.5 c 128,-1,9
 157 300 157 300 157 273 c 1,10,11
 184 274 184 274 211 274.5 c 128,-1,12
 238 275 238 275 265 277 c 1,13,-1
 265 224 l 1,14,15
 238 226 238 226 211 227.5 c 128,-1,16
 184 229 184 229 157 229 c 1,17,18
 157 202 157 202 158.5 175 c 128,-1,19
 160 148 160 148 162 121 c 1,20,-1
 109 121 l 1,21,22
 111 148 111 148 111.5 175 c 128,-1,23
 112 202 112 202 113 229 c 1,24,25
 86 229 86 229 59.5 227.5 c 128,-1,26
 33 226 33 226 6 224 c 1,27,-1
 6 277 l 1,0,1
EndSplineSet
EndChar

StartChar: equal
Encoding: 61 61 57
Width: 287
Flags: W
LayerCount: 2
Fore
SplineSet
13 221 m 1,0,1
 74 218 74 218 135 218 c 0,2,3
 203 218 203 218 272 221 c 1,4,-1
 272 169 l 1,5,6
 238 171 238 171 205 172.5 c 128,-1,7
 172 174 172 174 138 174 c 0,8,9
 107 174 107 174 76 172.5 c 128,-1,10
 45 171 45 171 13 169 c 1,11,-1
 13 221 l 1,0,1
13 319 m 1,12,13
 45 317 45 317 77.5 316 c 128,-1,14
 110 315 110 315 142 315 c 256,15,16
 174 315 174 315 206.5 316 c 128,-1,17
 239 317 239 317 272 319 c 1,18,-1
 272 266 l 1,19,20
 240 268 240 268 207.5 269.5 c 128,-1,21
 175 271 175 271 143 271 c 256,22,23
 111 271 111 271 78 269.5 c 128,-1,24
 45 268 45 268 13 266 c 1,25,-1
 13 319 l 1,12,13
EndSplineSet
EndChar

StartChar: ampersand
Encoding: 38 38 58
Width: 745
Flags: W
LayerCount: 2
Fore
SplineSet
108 433 m 1,0,1
 119 462 119 462 134.5 488.5 c 128,-1,2
 150 515 150 515 169 537 c 1,3,-1
 398 537 l 1,4,5
 435 492 435 492 450 438 c 1,6,7
 443 422 443 422 428.5 407 c 128,-1,8
 414 392 414 392 397 379 c 128,-1,9
 380 366 380 366 362 354.5 c 128,-1,10
 344 343 344 343 329 333 c 1,11,12
 350 303 350 303 378.5 272.5 c 128,-1,13
 407 242 407 242 438 214 c 1,14,15
 443 226 443 226 448 241.5 c 128,-1,16
 453 257 453 257 458 271 c 1,17,-1
 565 271 l 1,18,19
 554 242 554 242 538.5 215.5 c 128,-1,20
 523 189 523 189 504 164 c 1,21,22
 555 121 555 121 616 78 c 128,-1,23
 677 35 677 35 740 0 c 1,24,-1
 459 0 l 1,25,26
 430 19 430 19 395 49 c 1,27,28
 381 36 381 36 365.5 24 c 128,-1,29
 350 12 350 12 334 0 c 1,30,-1
 96 0 l 1,31,32
 68 26 68 26 44 73.5 c 128,-1,33
 20 121 20 121 6 174 c 1,34,35
 20 193 20 193 40.5 212.5 c 128,-1,36
 61 232 61 232 84.5 249.5 c 128,-1,37
 108 267 108 267 133 282 c 128,-1,38
 158 297 158 297 180 308 c 1,39,40
 159 340 159 340 141 371.5 c 128,-1,41
 123 403 123 403 108 433 c 1,0,1
351 90 m 1,42,43
 316 125 316 125 282 167 c 128,-1,44
 248 209 248 209 216 254 c 1,45,46
 199 236 199 236 199 211 c 0,47,48
 199 190 199 190 210 167.5 c 128,-1,49
 221 145 221 145 237.5 124 c 128,-1,50
 254 103 254 103 274 85 c 128,-1,51
 294 67 294 67 312 54 c 1,52,53
 333 70 333 70 351 90 c 1,42,43
234 497 m 1,54,55
 245 465 245 465 260 434.5 c 128,-1,56
 275 404 275 404 297 374 c 1,57,58
 310 383 310 383 315.5 393.5 c 128,-1,59
 321 404 321 404 321 415 c 0,60,61
 321 428 321 428 313.5 441.5 c 128,-1,62
 306 455 306 455 293.5 466 c 128,-1,63
 281 477 281 477 265.5 485.5 c 128,-1,64
 250 494 250 494 234 497 c 1,54,55
EndSplineSet
EndChar

StartChar: hyphen
Encoding: 45 45 59
Width: 381
Flags: W
LayerCount: 2
Fore
SplineSet
12 245 m 1,0,1
 13 245 13 245 22 253 c 128,-1,2
 31 261 31 261 43.5 271 c 128,-1,3
 56 281 56 281 69.5 291 c 128,-1,4
 83 301 83 301 93 305 c 1,5,6
 107 305 107 305 123.5 304.5 c 128,-1,7
 140 304 140 304 160 304 c 0,8,9
 187 304 187 304 216.5 304.5 c 128,-1,10
 246 305 246 305 274 307 c 128,-1,11
 302 309 302 309 326 312.5 c 128,-1,12
 350 316 350 316 366 321 c 1,13,14
 347 291 347 291 331.5 270.5 c 128,-1,15
 316 250 316 250 291 224 c 1,16,-1
 261 224 l 2,17,18
 235 224 235 224 203 225 c 128,-1,19
 171 226 171 226 138 228.5 c 128,-1,20
 105 231 105 231 72.5 235 c 128,-1,21
 40 239 40 239 12 245 c 1,0,1
EndSplineSet
EndChar

StartChar: uni00AD
Encoding: 173 173 60
Width: 381
Flags: W
LayerCount: 2
Fore
SplineSet
12 245 m 1,0,1
 13 245 13 245 22 253 c 128,-1,2
 31 261 31 261 43.5 271 c 128,-1,3
 56 281 56 281 69.5 291 c 128,-1,4
 83 301 83 301 93 305 c 1,5,6
 107 305 107 305 123.5 304.5 c 128,-1,7
 140 304 140 304 160 304 c 0,8,9
 187 304 187 304 216.5 304.5 c 128,-1,10
 246 305 246 305 274 307 c 128,-1,11
 302 309 302 309 326 312.5 c 128,-1,12
 350 316 350 316 366 321 c 1,13,14
 347 291 347 291 331.5 270.5 c 128,-1,15
 316 250 316 250 291 224 c 1,16,-1
 261 224 l 2,17,18
 235 224 235 224 203 225 c 128,-1,19
 171 226 171 226 138 228.5 c 128,-1,20
 105 231 105 231 72.5 235 c 128,-1,21
 40 239 40 239 12 245 c 1,0,1
EndSplineSet
EndChar

StartChar: numbersign
Encoding: 35 35 61
Width: 383
Flags: W
LayerCount: 2
Fore
SplineSet
19 227 m 1,0,-1
 90 224 l 1,1,2
 94 242 94 242 97 260 c 128,-1,3
 100 278 100 278 103 296 c 1,4,5
 86 295 86 295 69 294.5 c 128,-1,6
 52 294 52 294 35 292 c 1,7,8
 39 309 39 309 42 325.5 c 128,-1,9
 45 342 45 342 48 359 c 1,10,-1
 114 356 l 1,11,12
 119 385 119 385 123 413 c 128,-1,13
 127 441 127 441 131 469 c 1,14,-1
 198 469 l 1,15,16
 191 440 191 440 184.5 412 c 128,-1,17
 178 384 178 384 172 355 c 1,18,19
 181 354 181 354 190 354 c 128,-1,20
 199 354 199 354 208 354 c 256,21,22
 217 354 217 354 226.5 354 c 128,-1,23
 236 354 236 354 245 355 c 1,24,25
 250 384 250 384 254 412 c 128,-1,26
 258 440 258 440 263 469 c 1,27,-1
 330 469 l 1,28,29
 323 441 323 441 316.5 413 c 128,-1,30
 310 385 310 385 304 356 c 1,31,-1
 376 359 l 1,32,33
 373 342 373 342 370 325.5 c 128,-1,34
 367 309 367 309 363 292 c 1,35,36
 346 294 346 294 328 294.5 c 128,-1,37
 310 295 310 295 292 296 c 1,38,39
 288 278 288 278 284.5 260 c 128,-1,40
 281 242 281 242 278 224 c 1,41,-1
 347 227 l 1,42,-1
 335 160 l 1,43,44
 318 162 318 162 301.5 162.5 c 128,-1,45
 285 163 285 163 268 164 c 1,46,47
 263 135 263 135 259 107 c 128,-1,48
 255 79 255 79 252 50 c 1,49,-1
 184 50 l 1,50,51
 192 79 192 79 198 108 c 128,-1,52
 204 137 204 137 210 166 c 1,53,54
 201 166 201 166 191.5 166.5 c 128,-1,55
 182 167 182 167 173 167 c 256,56,57
 164 167 164 167 154.5 166.5 c 128,-1,58
 145 166 145 166 136 166 c 1,59,60
 131 137 131 137 127.5 108 c 128,-1,61
 124 79 124 79 120 50 c 1,62,-1
 53 50 l 1,63,64
 60 79 60 79 66 107 c 128,-1,65
 72 135 72 135 78 164 c 1,66,67
 60 163 60 163 42.5 162.5 c 128,-1,68
 25 162 25 162 7 160 c 1,69,-1
 19 227 l 1,0,-1
146 223 m 1,70,71
 155 222 155 222 164.5 222 c 128,-1,72
 174 222 174 222 184 222 c 256,73,74
 194 222 194 222 203 222 c 128,-1,75
 212 222 212 222 222 223 c 1,76,77
 225 242 225 242 228.5 260.5 c 128,-1,78
 232 279 232 279 236 298 c 1,79,-1
 160 298 l 1,80,81
 156 279 156 279 152.5 260.5 c 128,-1,82
 149 242 149 242 146 223 c 1,70,71
EndSplineSet
EndChar

StartChar: slash
Encoding: 47 47 62
Width: 372
Flags: W
LayerCount: 2
Fore
SplineSet
284 587 m 1,0,1
 303 592 303 592 319 595.5 c 128,-1,2
 335 599 335 599 350.5 601.5 c 128,-1,3
 366 604 366 604 382 605.5 c 128,-1,4
 398 607 398 607 418 607 c 1,5,6
 319 433 319 433 235 258.5 c 128,-1,7
 151 84 151 84 73 -94 c 1,8,-1
 63 -96 l 1,9,10
 29 -104 29 -104 2.5 -109 c 128,-1,11
 -24 -114 -24 -114 -60 -114 c 1,12,13
 39 61 39 61 122.5 235 c 128,-1,14
 206 409 206 409 284 587 c 1,0,1
EndSplineSet
EndChar

StartChar: guillemotleft
Encoding: 171 171 63
Width: 362
Flags: W
LayerCount: 2
Fore
SplineSet
4 244 m 1,0,-1
 113 465 l 1,1,-1
 195 465 l 1,2,-1
 119 244 l 1,3,-1
 195 23 l 1,4,-1
 113 23 l 1,5,-1
 4 244 l 1,0,-1
161 244 m 1,6,-1
 271 465 l 1,7,-1
 352 465 l 1,8,-1
 277 244 l 1,9,-1
 352 23 l 1,10,-1
 271 23 l 1,11,-1
 161 244 l 1,6,-1
EndSplineSet
EndChar

StartChar: guillemotright
Encoding: 187 187 64
Width: 362
Flags: W
LayerCount: 2
Fore
SplineSet
246 23 m 1,0,-1
 164 23 l 1,1,-1
 240 244 l 1,2,-1
 164 465 l 1,3,-1
 246 465 l 1,4,-1
 355 244 l 1,5,-1
 246 23 l 1,0,-1
88 23 m 1,6,-1
 7 23 l 1,7,-1
 82 244 l 1,8,-1
 7 465 l 1,9,-1
 88 465 l 1,10,-1
 198 244 l 1,11,-1
 88 23 l 1,6,-1
EndSplineSet
EndChar

StartChar: guilsinglleft
Encoding: 8249 8249 65
Width: 198
Flags: W
LayerCount: 2
Fore
SplineSet
4 244 m 1,0,-1
 113 465 l 1,1,-1
 195 465 l 1,2,-1
 119 244 l 1,3,-1
 195 23 l 1,4,-1
 113 23 l 1,5,-1
 4 244 l 1,0,-1
EndSplineSet
EndChar

StartChar: guilsinglright
Encoding: 8250 8250 66
Width: 198
Flags: W
LayerCount: 2
Fore
SplineSet
86 23 m 1,0,-1
 4 23 l 1,1,-1
 80 244 l 1,2,-1
 4 465 l 1,3,-1
 86 465 l 1,4,-1
 195 244 l 1,5,-1
 86 23 l 1,0,-1
EndSplineSet
EndChar

StartChar: a
Encoding: 97 97 67
Width: 709
Flags: W
LayerCount: 2
Fore
SplineSet
591 500 m 1,0,1
 639 395 639 395 664.5 268.5 c 128,-1,2
 690 142 690 142 690 8 c 2,3,-1
 690 0 l 1,4,-1
 458 0 l 1,5,6
 456 31 456 31 451.5 60 c 128,-1,7
 447 89 447 89 441 118 c 1,8,9
 409 86 409 86 374 56 c 128,-1,10
 339 26 339 26 301 0 c 1,11,-1
 68 0 l 1,12,13
 64 22 64 22 62.5 44.5 c 128,-1,14
 61 67 61 67 61 90 c 0,15,16
 61 133 61 133 66.5 173 c 128,-1,17
 72 213 72 213 81 244 c 1,18,19
 116 254 116 254 151.5 272.5 c 128,-1,20
 187 291 187 291 218.5 314.5 c 128,-1,21
 250 338 250 338 275.5 366 c 128,-1,22
 301 394 301 394 316 423 c 1,23,24
 289 465 289 465 259 500 c 1,25,-1
 591 500 l 1,0,1
423 191 m 1,26,27
 397 280 397 280 355 359 c 1,28,29
 308 221 308 221 301 98 c 1,30,31
 333 115 333 115 365 138.5 c 128,-1,32
 397 162 397 162 423 191 c 1,26,27
EndSplineSet
EndChar

StartChar: b
Encoding: 98 98 68
Width: 695
Flags: W
LayerCount: 2
Fore
SplineSet
322 65 m 1,0,1
 351 65 351 65 380.5 67.5 c 128,-1,2
 410 70 410 70 433 76 c 1,3,4
 423 136 423 136 397.5 175.5 c 128,-1,5
 372 215 372 215 331 241 c 1,6,7
 322 152 322 152 322 65 c 1,0,1
644 500 m 1,8,9
 621 428 621 428 576 377 c 128,-1,10
 531 326 531 326 472 297 c 1,11,12
 527 277 527 277 572.5 250.5 c 128,-1,13
 618 224 618 224 656 183 c 1,14,15
 651 137 651 137 640 89.5 c 128,-1,16
 629 42 629 42 613 0 c 1,17,-1
 110 0 l 1,18,19
 91 66 91 66 80.5 142.5 c 128,-1,20
 70 219 70 219 70 300 c 0,21,22
 70 351 70 351 74.5 401 c 128,-1,23
 79 451 79 451 89 500 c 1,24,-1
 644 500 l 1,8,9
339 310 m 1,25,26
 361 316 361 316 384 326.5 c 128,-1,27
 407 337 407 337 427 352.5 c 128,-1,28
 447 368 447 368 463.5 388.5 c 128,-1,29
 480 409 480 409 490 434 c 1,30,31
 455 434 455 434 422.5 433 c 128,-1,32
 390 432 390 432 360 429 c 1,33,34
 348 371 348 371 339 310 c 1,25,26
EndSplineSet
EndChar

StartChar: c
Encoding: 99 99 69
Width: 632
Flags: W
LayerCount: 2
Fore
SplineSet
602 498 m 1,0,1
 595 472 595 472 584 438 c 128,-1,2
 573 404 573 404 562 379 c 1,3,4
 530 376 530 376 497 374.5 c 128,-1,5
 464 373 464 373 432 373 c 1,6,7
 437 388 437 388 441.5 405.5 c 128,-1,8
 446 423 446 423 449 439 c 1,9,10
 414 445 414 445 385 445 c 0,11,12
 365 445 365 445 345 442 c 128,-1,13
 325 439 325 439 303 434 c 1,14,15
 295 399 295 399 291.5 368.5 c 128,-1,16
 288 338 288 338 288 311 c 0,17,18
 288 223 288 223 325 167 c 128,-1,19
 362 111 362 111 426 73 c 1,20,21
 474 105 474 105 514 141.5 c 128,-1,22
 554 178 554 178 592 225 c 1,23,24
 594 197 594 197 595 167.5 c 128,-1,25
 596 138 596 138 597 103 c 1,26,27
 568 80 568 80 535 58 c 128,-1,28
 502 36 502 36 461 18.5 c 128,-1,29
 420 1 420 1 369 -10 c 128,-1,30
 318 -21 318 -21 254 -21 c 2,31,-1
 231 -21 l 1,32,33
 184 -1 184 -1 148.5 29 c 128,-1,34
 113 59 113 59 88 95.5 c 128,-1,35
 63 132 63 132 50.5 172.5 c 128,-1,36
 38 213 38 213 38 254 c 0,37,38
 38 306 38 306 59.5 354.5 c 128,-1,39
 81 403 81 403 125 440.5 c 128,-1,40
 169 478 169 478 236.5 500.5 c 128,-1,41
 304 523 304 523 397 523 c 0,42,43
 443 523 443 523 493.5 517.5 c 128,-1,44
 544 512 544 512 602 498 c 1,0,1
EndSplineSet
EndChar

StartChar: d
Encoding: 100 100 70
Width: 718
Flags: W
LayerCount: 2
Fore
SplineSet
80 500 m 1,0,1
 143 509 143 509 201.5 516 c 128,-1,2
 260 523 260 523 315 523 c 0,3,4
 412 523 412 523 491 510.5 c 128,-1,5
 570 498 570 498 629 475 c 1,6,7
 672 389 672 389 672 301 c 0,8,9
 672 248 672 248 654 197.5 c 128,-1,10
 636 147 636 147 595 105 c 1,11,12
 562 69 562 69 525 46 c 128,-1,13
 488 23 488 23 449 9.5 c 128,-1,14
 410 -4 410 -4 370.5 -9 c 128,-1,15
 331 -14 331 -14 292 -14 c 0,16,17
 243 -14 243 -14 200.5 -9.5 c 128,-1,18
 158 -5 158 -5 113 1 c 1,19,20
 95 95 95 95 84.5 187 c 128,-1,21
 74 279 74 279 74 372 c 0,22,23
 74 405 74 405 75.5 435 c 128,-1,24
 77 465 77 465 80 500 c 1,0,1
345 448 m 1,25,26
 338 377 338 377 332.5 302 c 128,-1,27
 327 227 327 227 327 145 c 0,28,29
 327 97 327 97 330 46 c 1,30,31
 358 61 358 61 379.5 87.5 c 128,-1,32
 401 114 401 114 415.5 146.5 c 128,-1,33
 430 179 430 179 437.5 215 c 128,-1,34
 445 251 445 251 445 286 c 0,35,36
 445 317 445 317 439 345.5 c 128,-1,37
 433 374 433 374 420.5 396 c 128,-1,38
 408 418 408 418 389 431.5 c 128,-1,39
 370 445 370 445 345 448 c 1,25,26
EndSplineSet
EndChar

StartChar: e
Encoding: 101 101 71
Width: 671
Flags: W
LayerCount: 2
Fore
SplineSet
614 500 m 1,0,1
 611 485 611 485 607.5 464.5 c 128,-1,2
 604 444 604 444 600 423 c 128,-1,3
 596 402 596 402 591 382.5 c 128,-1,4
 586 363 586 363 582 348 c 1,5,6
 550 346 550 346 527.5 345.5 c 128,-1,7
 505 345 505 345 474 344 c 1,8,9
 482 367 482 367 482 387 c 0,10,11
 482 414 482 414 463.5 424 c 128,-1,12
 445 434 445 434 410 435 c 0,13,14
 383 435 383 435 350 429 c 1,15,16
 340 387 340 387 331.5 345.5 c 128,-1,17
 323 304 323 304 316 262 c 1,18,19
 336 280 336 280 362.5 289.5 c 128,-1,20
 389 299 389 299 415 299 c 0,21,22
 438 299 438 299 462 296 c 128,-1,23
 486 293 486 293 509 293 c 0,24,25
 514 293 514 293 519.5 293 c 128,-1,26
 525 293 525 293 530 294 c 1,27,-1
 483 206 l 1,28,-1
 474 206 l 2,29,30
 446 206 446 206 419.5 216 c 128,-1,31
 393 226 393 226 370 227 c 0,32,33
 351 227 351 227 335 216.5 c 128,-1,34
 319 206 319 206 305 174 c 1,35,36
 301 125 301 125 299 76 c 1,37,38
 322 71 322 71 341.5 68.5 c 128,-1,39
 361 66 361 66 381 66 c 2,40,-1
 390 66 l 2,41,42
 431 66 431 66 457 84 c 128,-1,43
 483 102 483 102 495 153 c 1,44,-1
 615 148 l 1,45,46
 607 104 607 104 598 69.5 c 128,-1,47
 589 35 589 35 575 0 c 1,48,-1
 84 0 l 1,49,50
 75 61 75 61 69.5 132.5 c 128,-1,51
 64 204 64 204 64 280 c 0,52,53
 64 336 64 336 67 391 c 128,-1,54
 70 446 70 446 78 500 c 1,55,-1
 614 500 l 1,0,1
EndSplineSet
EndChar

StartChar: f
Encoding: 102 102 72
Width: 619
Flags: W
LayerCount: 2
Fore
SplineSet
315 247 m 1,0,1
 335 265 335 265 361 274.5 c 128,-1,2
 387 284 387 284 413 284 c 0,3,4
 436 284 436 284 460.5 281 c 128,-1,5
 485 278 485 278 508 278 c 0,6,7
 513 278 513 278 518 278 c 128,-1,8
 523 278 523 278 528 279 c 1,9,-1
 481 191 l 1,10,-1
 472 191 l 2,11,12
 444 191 444 191 417.5 201 c 128,-1,13
 391 211 391 211 368 212 c 0,14,15
 348 212 348 212 333.5 201 c 128,-1,16
 319 190 319 190 305 161 c 1,17,18
 303 135 303 135 301.5 110.5 c 128,-1,19
 300 86 300 86 300 60 c 0,20,21
 300 45 300 45 300.5 29.5 c 128,-1,22
 301 14 301 14 302 0 c 1,23,-1
 85 0 l 1,24,25
 76 61 76 61 71 133 c 128,-1,26
 66 205 66 205 66 280 c 0,27,28
 66 336 66 336 69 391 c 128,-1,29
 72 446 72 446 80 499 c 1,30,-1
 614 499 l 1,31,32
 611 484 611 484 607.5 463.5 c 128,-1,33
 604 443 604 443 600 422 c 128,-1,34
 596 401 596 401 591 381.5 c 128,-1,35
 586 362 586 362 582 348 c 1,36,-1
 474 343 l 1,37,38
 483 368 483 368 483 386 c 0,39,40
 483 412 483 412 464 422.5 c 128,-1,41
 445 433 445 433 410 434 c 0,42,43
 397 434 397 434 382.5 433 c 128,-1,44
 368 432 368 432 351 429 c 1,45,46
 329 340 329 340 315 247 c 1,0,1
EndSplineSet
EndChar

StartChar: g
Encoding: 103 103 73
Width: 675
Flags: W
LayerCount: 2
Fore
SplineSet
593 498 m 1,0,1
 586 471 586 471 575.5 437 c 128,-1,2
 565 403 565 403 554 378 c 1,3,4
 522 376 522 376 488.5 374.5 c 128,-1,5
 455 373 455 373 423 372 c 1,6,7
 434 406 434 406 439 439 c 1,8,9
 407 445 407 445 378 445 c 0,10,11
 357 445 357 445 336.5 442 c 128,-1,12
 316 439 316 439 294 434 c 1,13,14
 278 366 278 366 278 311 c 0,15,16
 278 301 278 301 278.5 292 c 128,-1,17
 279 283 279 283 280 274 c 0,18,19
 288 202 288 202 323 141 c 128,-1,20
 358 80 358 80 416 49 c 1,21,22
 416 60 416 60 416.5 70.5 c 128,-1,23
 417 81 417 81 417 91 c 0,24,25
 417 133 417 133 414 172 c 128,-1,26
 411 211 411 211 405 260 c 1,27,-1
 621 260 l 1,28,29
 621 193 621 193 618 131.5 c 128,-1,30
 615 70 615 70 607 0 c 1,31,32
 562 -6 562 -6 522.5 -10.5 c 128,-1,33
 483 -15 483 -15 445 -17.5 c 128,-1,34
 407 -20 407 -20 368 -21 c 128,-1,35
 329 -22 329 -22 286 -22 c 2,36,-1
 222 -22 l 1,37,38
 175 -2 175 -2 139 28.5 c 128,-1,39
 103 59 103 59 78.5 95 c 128,-1,40
 54 131 54 131 41.5 171.5 c 128,-1,41
 29 212 29 212 29 253 c 0,42,43
 29 305 29 305 50 353.5 c 128,-1,44
 71 402 71 402 115 439.5 c 128,-1,45
 159 477 159 477 227 500 c 128,-1,46
 295 523 295 523 388 523 c 0,47,48
 480 523 480 523 593 498 c 1,0,1
EndSplineSet
EndChar

StartChar: h
Encoding: 104 104 74
Width: 740
Flags: W
LayerCount: 2
Fore
SplineSet
697 500 m 1,0,1
 698 479 698 479 698.5 458 c 128,-1,2
 699 437 699 437 699 417 c 0,3,4
 699 308 699 308 688.5 204.5 c 128,-1,5
 678 101 678 101 661 0 c 1,6,-1
 422 0 l 1,7,8
 438 118 438 118 443 254 c 1,9,10
 420 268 420 268 387.5 279 c 128,-1,11
 355 290 355 290 327 293 c 1,12,13
 324 217 324 217 316 144.5 c 128,-1,14
 308 72 308 72 295 0 c 1,15,-1
 68 0 l 1,16,17
 75 51 75 51 78 106.5 c 128,-1,18
 81 162 81 162 81 220 c 0,19,20
 81 292 81 292 76.5 363.5 c 128,-1,21
 72 435 72 435 63 500 c 1,22,-1
 327 500 l 1,23,24
 329 469 329 469 329 438.5 c 128,-1,25
 329 408 329 408 329 378 c 1,26,27
 361 368 361 368 389.5 355.5 c 128,-1,28
 418 343 418 343 444 329 c 1,29,30
 444 372 444 372 442.5 415 c 128,-1,31
 441 458 441 458 437 500 c 1,32,-1
 697 500 l 1,0,1
EndSplineSet
EndChar

StartChar: i
Encoding: 105 105 75
Width: 396
Flags: W
LayerCount: 2
Fore
SplineSet
341 500 m 1,0,-1
 341 473 l 2,1,2
 341 355 341 355 334 237 c 128,-1,3
 327 119 327 119 308 0 c 1,4,-1
 68 0 l 1,5,6
 79 51 79 51 83 106.5 c 128,-1,7
 87 162 87 162 87 222 c 0,8,9
 87 290 87 290 82.5 359.5 c 128,-1,10
 78 429 78 429 71 500 c 1,11,-1
 341 500 l 1,0,-1
EndSplineSet
EndChar

StartChar: j
Encoding: 106 106 76
Width: 531
Flags: W
LayerCount: 2
Fore
SplineSet
192 -45 m 1,0,1
 196 -3 196 -3 197.5 40.5 c 128,-1,2
 199 84 199 84 199 130 c 0,3,4
 199 220 199 220 193 313 c 128,-1,5
 187 406 187 406 176 500 c 1,6,-1
 446 500 l 1,7,8
 448 471 448 471 448 441.5 c 128,-1,9
 448 412 448 412 448 383 c 0,10,11
 448 284 448 284 441 186 c 128,-1,12
 434 88 434 88 420 0 c 1,13,14
 372 -45 372 -45 321.5 -69 c 128,-1,15
 271 -93 271 -93 223 -115 c 1,16,17
 155 -110 155 -110 104 -99.5 c 128,-1,18
 53 -89 53 -89 5 -70 c 1,19,20
 6 -38 6 -38 7.5 -7.5 c 128,-1,21
 9 23 9 23 11 52 c 1,22,23
 62 15 62 15 103.5 -7 c 128,-1,24
 145 -29 145 -29 192 -45 c 1,0,1
EndSplineSet
EndChar

StartChar: k
Encoding: 107 107 77
Width: 707
Flags: W
LayerCount: 2
Fore
SplineSet
293 292 m 1,0,1
 334 359 334 359 383 412 c 128,-1,2
 432 465 432 465 505 502 c 1,3,4
 521 505 521 505 537 506 c 128,-1,5
 553 507 553 507 570 507 c 2,6,-1
 603 507 l 2,7,8
 628 507 628 507 652 509 c 128,-1,9
 676 511 676 511 698 522 c 1,10,11
 678 492 678 492 657 463.5 c 128,-1,12
 636 435 636 435 613 409 c 1,13,-1
 597 409 l 2,14,15
 546 409 546 409 498 425 c 1,16,17
 460 393 460 393 434.5 357.5 c 128,-1,18
 409 322 409 322 389 276 c 1,19,20
 440 263 440 263 496.5 255 c 128,-1,21
 553 247 553 247 625 244 c 1,22,23
 634 223 634 223 640.5 193.5 c 128,-1,24
 647 164 647 164 652 131 c 128,-1,25
 657 98 657 98 660.5 64 c 128,-1,26
 664 30 664 30 666 0 c 1,27,-1
 407 0 l 1,28,29
 399 37 399 37 385.5 72 c 128,-1,30
 372 107 372 107 356 136.5 c 128,-1,31
 340 166 340 166 321.5 188 c 128,-1,32
 303 210 303 210 284 222 c 1,33,34
 281 187 281 187 279 152 c 128,-1,35
 277 117 277 117 277 82 c 0,36,37
 277 40 277 40 280 0 c 1,38,-1
 60 0 l 1,39,40
 52 64 52 64 46.5 129.5 c 128,-1,41
 41 195 41 195 41 261 c 0,42,43
 41 321 41 321 45.5 380.5 c 128,-1,44
 50 440 50 440 56 500 c 1,45,-1
 334 500 l 1,46,47
 321 446 321 446 310.5 394.5 c 128,-1,48
 300 343 300 343 293 292 c 1,0,1
EndSplineSet
EndChar

StartChar: l
Encoding: 108 108 78
Width: 602
Flags: W
LayerCount: 2
Fore
SplineSet
274 77 m 1,0,1
 300 71 300 71 320.5 68.5 c 128,-1,2
 341 66 341 66 364 66 c 0,3,4
 404 67 404 67 431 85 c 128,-1,5
 458 103 458 103 470 153 c 1,6,-1
 590 149 l 1,7,8
 582 105 582 105 573 70 c 128,-1,9
 564 35 564 35 550 0 c 1,10,-1
 59 0 l 1,11,12
 50 61 50 61 45 133 c 128,-1,13
 40 205 40 205 40 281 c 0,14,15
 40 337 40 337 43 392 c 128,-1,16
 46 447 46 447 54 500 c 1,17,-1
 342 500 l 1,18,19
 316 398 316 398 296 290 c 128,-1,20
 276 182 276 182 274 77 c 1,0,1
EndSplineSet
EndChar

StartChar: m
Encoding: 109 109 79
Width: 1052
Flags: W
LayerCount: 2
Fore
SplineSet
550 500 m 1,0,1
 570 445 570 445 584 389.5 c 128,-1,2
 598 334 598 334 607 276 c 1,3,4
 630 318 630 318 643.5 367 c 128,-1,5
 657 416 657 416 657 454 c 0,6,7
 657 481 657 481 649 500 c 1,8,-1
 934 500 l 1,9,10
 953 448 953 448 967 383.5 c 128,-1,11
 981 319 981 319 989.5 252 c 128,-1,12
 998 185 998 185 1002 119.5 c 128,-1,13
 1006 54 1006 54 1006 0 c 1,14,-1
 775 0 l 1,15,16
 772 83 772 83 757 174.5 c 128,-1,17
 742 266 742 266 716 347 c 1,18,19
 678 272 678 272 652 189.5 c 128,-1,20
 626 107 626 107 622 0 c 1,21,-1
 426 0 l 1,22,23
 413 98 413 98 388.5 184 c 128,-1,24
 364 270 364 270 326 348 c 1,25,26
 302 291 302 291 287 232.5 c 128,-1,27
 272 174 272 174 272 112 c 0,28,29
 272 84 272 84 275 56.5 c 128,-1,30
 278 29 278 29 286 0 c 1,31,-1
 43 0 l 1,32,33
 39 22 39 22 37.5 45 c 128,-1,34
 36 68 36 68 36 91 c 0,35,36
 36 134 36 134 41.5 173.5 c 128,-1,37
 47 213 47 213 56 244 c 1,38,39
 90 254 90 254 125 271.5 c 128,-1,40
 160 289 160 289 191 312 c 128,-1,41
 222 335 222 335 247.5 362 c 128,-1,42
 273 389 273 389 289 418 c 1,43,44
 263 461 263 461 234 500 c 1,45,-1
 550 500 l 1,0,1
EndSplineSet
EndChar

StartChar: n
Encoding: 110 110 80
Width: 715
Flags: W
LayerCount: 2
Fore
SplineSet
646 500 m 1,0,1
 652 395 652 395 652 290 c 0,2,3
 652 217 652 217 649.5 145 c 128,-1,4
 647 73 647 73 642 0 c 1,5,-1
 546 0 l 1,6,7
 493 28 493 28 442.5 63 c 128,-1,8
 392 98 392 98 346.5 135 c 128,-1,9
 301 172 301 172 261.5 210 c 128,-1,10
 222 248 222 248 190 283 c 1,11,12
 194 251 194 251 196 213.5 c 128,-1,13
 198 176 198 176 198 134 c 0,14,15
 198 102 198 102 196.5 68 c 128,-1,16
 195 34 195 34 193 0 c 1,17,-1
 76 0 l 1,18,19
 86 60 86 60 91 122.5 c 128,-1,20
 96 185 96 185 96 245 c 0,21,22
 96 286 96 286 93.5 323.5 c 128,-1,23
 91 361 91 361 86 393 c 1,24,25
 78 405 78 405 71 415.5 c 128,-1,26
 64 426 64 426 56.5 438 c 128,-1,27
 49 450 49 450 41 464.5 c 128,-1,28
 33 479 33 479 23 500 c 1,29,-1
 307 500 l 1,30,31
 328 463 328 463 358.5 424.5 c 128,-1,32
 389 386 389 386 423 350 c 128,-1,33
 457 314 457 314 492.5 283.5 c 128,-1,34
 528 253 528 253 560 232 c 1,35,36
 560 297 560 297 553.5 361 c 128,-1,37
 547 425 547 425 527 500 c 1,38,-1
 646 500 l 1,0,1
EndSplineSet
EndChar

StartChar: o
Encoding: 111 111 81
Width: 658
Flags: W
LayerCount: 2
Fore
SplineSet
123 3 m 1,0,1
 77 62 77 62 55.5 119.5 c 128,-1,2
 34 177 34 177 34 232 c 0,3,4
 34 250 34 250 36.5 269 c 128,-1,5
 39 288 39 288 44 305 c 0,6,7
 57 353 57 353 88 393 c 128,-1,8
 119 433 119 433 164 461.5 c 128,-1,9
 209 490 209 490 266 506.5 c 128,-1,10
 323 523 323 523 390 523 c 0,11,12
 430 523 430 523 471.5 517 c 128,-1,13
 513 511 513 511 555 498 c 1,14,15
 593 450 593 450 610 400.5 c 128,-1,16
 627 351 627 351 627 303 c 0,17,18
 627 283 627 283 624.5 264 c 128,-1,19
 622 245 622 245 617 228 c 0,20,21
 602 175 602 175 569.5 130 c 128,-1,22
 537 85 537 85 490 51 c 128,-1,23
 443 17 443 17 385 -2.5 c 128,-1,24
 327 -22 327 -22 261 -22 c 0,25,26
 196 -22 196 -22 123 3 c 1,0,1
275 436 m 1,27,28
 256 404 256 404 248 367.5 c 128,-1,29
 240 331 240 331 240 293 c 0,30,31
 240 254 240 254 249 216.5 c 128,-1,32
 258 179 258 179 275 146.5 c 128,-1,33
 292 114 292 114 316.5 88 c 128,-1,34
 341 62 341 62 373 47 c 1,35,36
 397 78 397 78 408.5 115 c 128,-1,37
 420 152 420 152 420 191 c 0,38,39
 420 227 420 227 410.5 263 c 128,-1,40
 401 299 401 299 382.5 331.5 c 128,-1,41
 364 364 364 364 337 391 c 128,-1,42
 310 418 310 418 275 436 c 1,27,28
EndSplineSet
EndChar

StartChar: p
Encoding: 112 112 82
Width: 665
Flags: W
LayerCount: 2
Fore
SplineSet
294 145 m 1,0,1
 294 108 294 108 295.5 72 c 128,-1,2
 297 36 297 36 299 0 c 1,3,-1
 79 0 l 1,4,5
 60 73 60 73 49 160 c 128,-1,6
 38 247 38 247 38 338 c 0,7,8
 38 380 38 380 40.5 420.5 c 128,-1,9
 43 461 43 461 49 500 c 1,10,-1
 591 500 l 1,11,12
 599 470 599 470 604.5 440 c 128,-1,13
 610 410 610 410 614 378 c 128,-1,14
 618 346 618 346 620 310 c 128,-1,15
 622 274 622 274 623 231 c 1,16,17
 551 199 551 199 464.5 176.5 c 128,-1,18
 378 154 378 154 294 145 c 1,0,1
295 214 m 1,19,20
 307 215 307 215 322 218.5 c 128,-1,21
 337 222 337 222 352 226.5 c 128,-1,22
 367 231 367 231 380 236 c 128,-1,23
 393 241 393 241 402 246 c 1,24,25
 394 297 394 297 370.5 347.5 c 128,-1,26
 347 398 347 398 316 434 c 1,27,28
 307 378 307 378 302 323.5 c 128,-1,29
 297 269 297 269 295 214 c 1,19,20
EndSplineSet
EndChar

StartChar: q
Encoding: 113 113 83
Width: 666
Flags: W
LayerCount: 2
Fore
SplineSet
129 3 m 1,0,1
 83 62 83 62 61.5 120 c 128,-1,2
 40 178 40 178 40 232 c 0,3,4
 40 250 40 250 42.5 268.5 c 128,-1,5
 45 287 45 287 50 304 c 0,6,7
 64 352 64 352 94.5 392 c 128,-1,8
 125 432 125 432 169.5 461.5 c 128,-1,9
 214 491 214 491 271.5 507 c 128,-1,10
 329 523 329 523 396 523 c 0,11,12
 435 523 435 523 476.5 517.5 c 128,-1,13
 518 512 518 512 560 499 c 1,14,15
 598 451 598 451 615.5 400.5 c 128,-1,16
 633 350 633 350 633 302 c 0,17,18
 633 261 633 261 623 227 c 0,19,20
 609 177 609 177 579.5 134.5 c 128,-1,21
 550 92 550 92 508 59 c 1,22,23
 532 63 532 63 552 70 c 128,-1,24
 572 77 572 77 595 77 c 0,25,26
 614 77 614 77 635 70 c 1,27,-1
 707 -23 l 2,28,29
 697 -9 697 -9 679.5 -4 c 128,-1,30
 662 1 662 1 640 1 c 0,31,32
 619 1 619 1 596 -2 c 128,-1,33
 573 -5 573 -5 549 -9 c 128,-1,34
 525 -13 525 -13 502 -17 c 128,-1,35
 479 -21 479 -21 459 -22 c 1,36,37
 450 -18 450 -18 438.5 -9 c 128,-1,38
 427 0 427 0 419 8 c 1,39,40
 384 -6 384 -6 346 -14 c 128,-1,41
 308 -22 308 -22 267 -22 c 0,42,43
 202 -22 202 -22 129 3 c 1,0,1
281 435 m 1,44,45
 262 403 262 403 253.5 367 c 128,-1,46
 245 331 245 331 245 293 c 0,47,48
 245 254 245 254 254 216.5 c 128,-1,49
 263 179 263 179 280.5 146.5 c 128,-1,50
 298 114 298 114 322.5 88 c 128,-1,51
 347 62 347 62 379 47 c 1,52,53
 403 78 403 78 414.5 114.5 c 128,-1,54
 426 151 426 151 426 191 c 0,55,56
 426 227 426 227 416.5 263 c 128,-1,57
 407 299 407 299 388.5 331.5 c 128,-1,58
 370 364 370 364 343 390.5 c 128,-1,59
 316 417 316 417 281 435 c 1,44,45
EndSplineSet
EndChar

StartChar: r
Encoding: 114 114 84
Width: 706
Flags: W
LayerCount: 2
Fore
SplineSet
421 225 m 1,0,1
 466 213 466 213 505.5 207.5 c 128,-1,2
 545 202 545 202 587 202 c 2,3,-1
 608 202 l 1,4,5
 634 164 634 164 652.5 113.5 c 128,-1,6
 671 63 671 63 679 0 c 1,7,-1
 420 0 l 1,8,9
 410 70 410 70 379.5 120.5 c 128,-1,10
 349 171 349 171 305 189 c 1,11,12
 304 176 304 176 304 164 c 128,-1,13
 304 152 304 152 304 140 c 0,14,15
 304 70 304 70 310 0 c 1,16,-1
 92 0 l 1,17,18
 63 145 63 145 63 293 c 0,19,20
 63 345 63 345 66.5 397 c 128,-1,21
 70 449 70 449 77 500 c 1,22,-1
 599 500 l 1,23,24
 611 447 611 447 616.5 408 c 128,-1,25
 622 369 622 369 622 326 c 0,26,27
 622 318 622 318 621.5 309.5 c 128,-1,28
 621 301 621 301 621 292 c 1,29,30
 579 269 579 269 528.5 252.5 c 128,-1,31
 478 236 478 236 421 225 c 1,0,1
326 433 m 1,32,33
 314 345 314 345 308 260 c 1,34,35
 334 264 334 264 357 273.5 c 128,-1,36
 380 283 380 283 398 299 c 1,37,38
 387 340 387 340 369.5 370 c 128,-1,39
 352 400 352 400 326 433 c 1,32,33
EndSplineSet
EndChar

StartChar: s
Encoding: 115 115 85
Width: 635
Flags: W
LayerCount: 2
Fore
SplineSet
575 499 m 1,0,1
 568 472 568 472 557.5 438.5 c 128,-1,2
 547 405 547 405 536 380 c 1,3,4
 504 378 504 378 471 376 c 128,-1,5
 438 374 438 374 406 374 c 1,6,7
 412 390 412 390 416 407 c 128,-1,8
 420 424 420 424 423 440 c 1,9,10
 382 446 382 446 337 446 c 0,11,12
 316 446 316 446 293.5 444.5 c 128,-1,13
 271 443 271 443 249 440 c 1,14,15
 272 401 272 401 300 377 c 128,-1,16
 328 353 328 353 359 334.5 c 128,-1,17
 390 316 390 316 423.5 299.5 c 128,-1,18
 457 283 457 283 490 261 c 0,19,20
 508 249 508 249 530 229 c 128,-1,21
 552 209 552 209 572.5 182.5 c 128,-1,22
 593 156 593 156 609 125 c 128,-1,23
 625 94 625 94 631 61 c 1,24,25
 607 30 607 30 574.5 2 c 128,-1,26
 542 -26 542 -26 504.5 -48.5 c 128,-1,27
 467 -71 467 -71 425.5 -87.5 c 128,-1,28
 384 -104 384 -104 342 -112 c 1,29,30
 300 -109 300 -109 264.5 -99.5 c 128,-1,31
 229 -90 229 -90 197 -80 c 128,-1,32
 165 -70 165 -70 135.5 -62 c 128,-1,33
 106 -54 106 -54 77 -54 c 0,34,35
 54 -54 54 -54 32 -60 c 128,-1,36
 10 -66 10 -66 -14 -81 c 1,37,38
 -3 -49 -3 -49 12.5 -17 c 128,-1,39
 28 15 28 15 45 47 c 1,40,-1
 53 47 l 2,41,42
 109 47 109 47 150.5 34.5 c 128,-1,43
 192 22 192 22 227 7 c 128,-1,44
 262 -8 262 -8 293.5 -20.5 c 128,-1,45
 325 -33 325 -33 361 -33 c 0,46,47
 369 -33 369 -33 377 -32 c 128,-1,48
 385 -31 385 -31 393 -29 c 1,49,50
 393 5 393 5 382 31.5 c 128,-1,51
 371 58 371 58 353.5 78.5 c 128,-1,52
 336 99 336 99 313.5 116 c 128,-1,53
 291 133 291 133 267 150 c 2,54,-1
 250 162 l 2,55,56
 223 181 223 181 196 202 c 128,-1,57
 169 223 169 223 145.5 248.5 c 128,-1,58
 122 274 122 274 103.5 305.5 c 128,-1,59
 85 337 85 337 74 377 c 1,60,61
 87 406 87 406 105 441.5 c 128,-1,62
 123 477 123 477 137 500 c 1,63,64
 232 523 232 523 334 523 c 2,65,-1
 378 523 l 2,66,67
 464 523 464 523 575 499 c 1,0,1
EndSplineSet
EndChar

StartChar: t
Encoding: 116 116 86
Width: 705
Flags: W
LayerCount: 2
Fore
SplineSet
472 435 m 1,0,1
 460 362 460 362 453 290.5 c 128,-1,2
 446 219 446 219 446 147 c 0,3,4
 446 110 446 110 448 73 c 128,-1,5
 450 36 450 36 454 0 c 1,6,-1
 236 0 l 1,7,8
 218 85 218 85 210 170 c 128,-1,9
 202 255 202 255 202 342 c 0,10,11
 202 365 202 365 202.5 388.5 c 128,-1,12
 203 412 203 412 204 435 c 1,13,14
 157 421 157 421 133 392 c 128,-1,15
 109 363 109 363 100 320 c 1,16,-1
 1 326 l 1,17,-1
 37 500 l 1,18,-1
 702 500 l 1,19,20
 693 451 693 451 683 408 c 128,-1,21
 673 365 673 365 656 320 c 1,22,-1
 555 326 l 1,23,24
 559 342 559 342 559 358 c 0,25,26
 559 400 559 400 533.5 417.5 c 128,-1,27
 508 435 508 435 472 435 c 1,0,1
EndSplineSet
EndChar

StartChar: u
Encoding: 117 117 87
Width: 701
Flags: W
LayerCount: 2
Fore
SplineSet
658 500 m 1,0,1
 660 463 660 463 661 425.5 c 128,-1,2
 662 388 662 388 662 350 c 0,3,4
 662 272 662 272 658 195 c 128,-1,5
 654 118 654 118 646 45 c 1,6,7
 597 13 597 13 532 -4.5 c 128,-1,8
 467 -22 467 -22 397 -22 c 0,9,10
 204 -22 204 -22 85 45 c 1,11,12
 78 102 78 102 75 151.5 c 128,-1,13
 72 201 72 201 72 251 c 0,14,15
 72 308 72 308 75.5 368 c 128,-1,16
 79 428 79 428 87 500 c 1,17,-1
 356 500 l 1,18,19
 316 283 316 283 314 83 c 1,20,21
 328 70 328 70 358.5 57.5 c 128,-1,22
 389 45 389 45 438 45 c 0,23,24
 488 45 488 45 514 53.5 c 128,-1,25
 540 62 540 62 556 73 c 1,26,27
 558 98 558 98 558 121.5 c 128,-1,28
 558 145 558 145 558 168 c 0,29,30
 558 251 558 251 551 331 c 128,-1,31
 544 411 544 411 530 500 c 1,32,-1
 658 500 l 1,0,1
EndSplineSet
EndChar

StartChar: v
Encoding: 118 118 88
Width: 703
Flags: W
LayerCount: 2
Fore
SplineSet
220 0 m 1,0,1
 132 112 132 112 80 241.5 c 128,-1,2
 28 371 28 371 8 500 c 1,3,-1
 281 500 l 1,4,5
 283 408 283 408 308 316 c 128,-1,6
 333 224 333 224 375 143 c 1,7,8
 429 233 429 233 429 341 c 0,9,10
 429 414 429 414 403 500 c 1,11,-1
 670 500 l 1,12,13
 671 489 671 489 671 478 c 128,-1,14
 671 467 671 467 671 456 c 0,15,16
 671 396 671 396 662.5 341.5 c 128,-1,17
 654 287 654 287 637 245 c 1,18,19
 599 229 599 229 563 210.5 c 128,-1,20
 527 192 527 192 498 171 c 128,-1,21
 469 150 469 150 451.5 126.5 c 128,-1,22
 434 103 434 103 434 76 c 0,23,24
 434 59 434 59 442.5 39.5 c 128,-1,25
 451 20 451 20 471 0 c 1,26,-1
 220 0 l 1,0,1
EndSplineSet
EndChar

StartChar: w
Encoding: 119 119 89
Width: 1040
Flags: W
LayerCount: 2
Fore
SplineSet
640 500 m 1,0,1
 648 407 648 407 671.5 315 c 128,-1,2
 695 223 695 223 734 143 c 1,3,4
 759 189 759 189 772 239.5 c 128,-1,5
 785 290 785 290 785 346 c 0,6,7
 785 383 785 383 779.5 421 c 128,-1,8
 774 459 774 459 761 500 c 1,9,-1
 1029 500 l 1,10,11
 1030 489 1030 489 1030 478 c 128,-1,12
 1030 467 1030 467 1030 456 c 0,13,14
 1030 396 1030 396 1021.5 341.5 c 128,-1,15
 1013 287 1013 287 996 244 c 1,16,17
 933 226 933 226 880.5 196.5 c 128,-1,18
 828 167 828 167 804 131 c 0,19,20
 796 119 796 119 792.5 106.5 c 128,-1,21
 789 94 789 94 789 82 c 0,22,23
 789 59 789 59 800.5 38.5 c 128,-1,24
 812 18 812 18 830 0 c 1,25,-1
 578 0 l 1,26,27
 545 50 545 50 519 103 c 128,-1,28
 493 156 493 156 473 213 c 1,29,30
 457 177 457 177 448.5 145 c 128,-1,31
 440 113 440 113 440 85 c 0,32,33
 440 35 440 35 469 0 c 1,34,-1
 218 0 l 1,35,36
 179 52 179 52 146 112.5 c 128,-1,37
 113 173 113 173 86.5 237.5 c 128,-1,38
 60 302 60 302 41.5 369 c 128,-1,39
 23 436 23 436 14 500 c 1,40,-1
 280 500 l 1,41,42
 288 406 288 406 308 314.5 c 128,-1,43
 328 223 328 223 368 143 c 1,44,45
 393 185 393 185 406 238.5 c 128,-1,46
 419 292 419 292 419 354 c 0,47,48
 419 421 419 421 402 500 c 1,49,-1
 640 500 l 1,0,1
EndSplineSet
EndChar

StartChar: x
Encoding: 120 120 90
Width: 701
Flags: W
LayerCount: 2
Fore
SplineSet
587 555 m 0,0,1
 605 561 605 561 624 562.5 c 128,-1,2
 643 564 643 564 661.5 566 c 128,-1,3
 680 568 680 568 698 572 c 128,-1,4
 716 576 716 576 731 586 c 1,5,6
 717 553 717 553 704 529.5 c 128,-1,7
 691 506 691 506 674 481 c 1,8,9
 642 473 642 473 614 473 c 0,10,11
 595 473 595 473 574 476 c 1,12,13
 534 447 534 447 499 411.5 c 128,-1,14
 464 376 464 376 432 339 c 1,15,16
 472 276 472 276 521.5 194.5 c 128,-1,17
 571 113 571 113 625 0 c 1,18,-1
 376 0 l 1,19,20
 356 42 356 42 336 81.5 c 128,-1,21
 316 121 316 121 294 159 c 1,22,23
 243 86 243 86 198 13 c 128,-1,24
 153 -60 153 -60 123 -121 c 1,25,26
 95 -128 95 -128 66 -134 c 128,-1,27
 37 -140 37 -140 8 -147 c 1,28,29
 30 -108 30 -108 58 -63.5 c 128,-1,30
 86 -19 86 -19 118.5 27.5 c 128,-1,31
 151 74 151 74 187 122 c 128,-1,32
 223 170 223 170 259 217 c 1,33,34
 210 294 210 294 153 364 c 128,-1,35
 96 434 96 434 26 500 c 1,36,-1
 337 500 l 1,37,38
 350 473 350 473 365.5 445.5 c 128,-1,39
 381 418 381 418 401 388 c 1,40,41
 421 410 421 410 441.5 435 c 128,-1,42
 462 460 462 460 485 483.5 c 128,-1,43
 508 507 508 507 533 525.5 c 128,-1,44
 558 544 558 544 587 555 c 0,0,1
EndSplineSet
EndChar

StartChar: y
Encoding: 121 121 91
Width: 688
Flags: W
LayerCount: 2
Fore
SplineSet
572 556 m 0,0,1
 590 562 590 562 609 563.5 c 128,-1,2
 628 565 628 565 646.5 567 c 128,-1,3
 665 569 665 569 683 573 c 128,-1,4
 701 577 701 577 716 587 c 1,5,6
 702 554 702 554 689.5 530 c 128,-1,7
 677 506 677 506 660 481 c 1,8,9
 644 477 644 477 629 475 c 128,-1,10
 614 473 614 473 599 473 c 0,11,12
 580 473 580 473 559 476 c 1,13,14
 534 446 534 446 515.5 406.5 c 128,-1,15
 497 367 497 367 482.5 323 c 128,-1,16
 468 279 468 279 457.5 233.5 c 128,-1,17
 447 188 447 188 438 146 c 0,18,19
 427 94 427 94 412 27.5 c 128,-1,20
 397 -39 397 -39 378 -109 c 128,-1,21
 359 -179 359 -179 336 -246.5 c 128,-1,22
 313 -314 313 -314 286 -368 c 1,23,24
 259 -376 259 -376 226.5 -383.5 c 128,-1,25
 194 -391 194 -391 162 -397 c 1,26,27
 192 -345 192 -345 217 -291 c 128,-1,28
 242 -237 242 -237 262.5 -185.5 c 128,-1,29
 283 -134 283 -134 298 -86.5 c 128,-1,30
 313 -39 313 -39 324 0 c 1,31,-1
 117 0 l 1,32,33
 79 122 79 122 58 247 c 128,-1,34
 37 372 37 372 35 500 c 1,35,-1
 327 500 l 1,36,37
 306 407 306 407 306 316 c 0,38,39
 306 253 306 253 315 190 c 128,-1,40
 324 127 324 127 340 64 c 1,41,42
 362 149 362 149 382.5 230 c 128,-1,43
 403 311 403 311 428 377.5 c 128,-1,44
 453 444 453 444 487 491 c 128,-1,45
 521 538 521 538 572 556 c 0,0,1
EndSplineSet
EndChar

StartChar: z
Encoding: 122 122 92
Width: 638
Flags: W
LayerCount: 2
Fore
SplineSet
312 77 m 1,0,1
 335 72 335 72 355.5 69.5 c 128,-1,2
 376 67 376 67 396 67 c 2,3,-1
 405 67 l 2,4,5
 445 67 445 67 471.5 85 c 128,-1,6
 498 103 498 103 510 153 c 1,7,8
 541 152 541 152 569.5 151.5 c 128,-1,9
 598 151 598 151 630 149 c 1,10,11
 622 105 622 105 613 70 c 128,-1,12
 604 35 604 35 590 0 c 1,13,-1
 19 0 l 1,14,15
 75 100 75 100 149.5 212 c 128,-1,16
 224 324 224 324 315 430 c 1,17,18
 301 433 301 433 288.5 434 c 128,-1,19
 276 435 276 435 254 435 c 0,20,21
 207 435 207 435 173 410 c 128,-1,22
 139 385 139 385 130 342 c 1,23,24
 107 344 107 344 81 345.5 c 128,-1,25
 55 347 55 347 32 349 c 1,26,-1
 63 500 l 1,27,-1
 620 500 l 1,28,29
 529 402 529 402 453 297 c 128,-1,30
 377 192 377 192 312 77 c 1,0,1
EndSplineSet
EndChar

StartChar: percent
Encoding: 37 37 93
Width: 540
Flags: W
LayerCount: 2
Fore
SplineSet
372 204 m 1,0,1
 369 192 369 192 367 179.5 c 128,-1,2
 365 167 365 167 365 153 c 0,3,4
 365 112 365 112 379 73.5 c 128,-1,5
 393 35 393 35 417 19 c 1,6,7
 428 44 428 44 428 77 c 0,8,9
 428 114 428 114 413.5 150 c 128,-1,10
 399 186 399 186 372 204 c 1,0,1
84 -13 m 1,11,12
 167 124 167 124 246 261.5 c 128,-1,13
 325 399 325 399 403 539 c 1,14,-1
 443 516 l 1,15,16
 360 381 360 381 280.5 244 c 128,-1,17
 201 107 201 107 124 -36 c 1,18,-1
 84 -13 l 1,11,12
115 476 m 1,19,20
 112 464 112 464 110 451 c 128,-1,21
 108 438 108 438 108 424 c 0,22,23
 108 382 108 382 122 344 c 128,-1,24
 136 306 136 306 160 290 c 1,25,26
 171 315 171 315 171 347 c 0,27,28
 171 385 171 385 156.5 421 c 128,-1,29
 142 457 142 457 115 476 c 1,19,20
45 268 m 1,30,31
 24 297 24 297 14 324.5 c 128,-1,32
 4 352 4 352 4 378 c 0,33,34
 4 408 4 408 16 433.5 c 128,-1,35
 28 459 28 459 50.5 478 c 128,-1,36
 73 497 73 497 103.5 507.5 c 128,-1,37
 134 518 134 518 172 518 c 0,38,39
 205 518 205 518 241 509 c 1,40,41
 259 486 259 486 267 461.5 c 128,-1,42
 275 437 275 437 275 413 c 0,43,44
 275 382 275 382 262.5 353.5 c 128,-1,45
 250 325 250 325 227.5 303.5 c 128,-1,46
 205 282 205 282 174.5 269.5 c 128,-1,47
 144 257 144 257 109 257 c 0,48,49
 80 257 80 257 45 268 c 1,30,31
303 -4 m 1,50,51
 281 25 281 25 271.5 52.5 c 128,-1,52
 262 80 262 80 262 106 c 0,53,54
 262 136 262 136 274.5 162 c 128,-1,55
 287 188 287 188 309 206.5 c 128,-1,56
 331 225 331 225 362 236 c 128,-1,57
 393 247 393 247 431 247 c 0,58,59
 463 247 463 247 499 238 c 1,60,61
 533 192 533 192 533 143 c 0,62,63
 533 112 533 112 520 83.5 c 128,-1,64
 507 55 507 55 484.5 33.5 c 128,-1,65
 462 12 462 12 431.5 -1 c 128,-1,66
 401 -14 401 -14 365 -14 c 0,67,68
 333 -14 333 -14 303 -4 c 1,50,51
EndSplineSet
EndChar

StartChar: braceleft
Encoding: 123 123 94
Width: 254
Flags: W
LayerCount: 2
Fore
SplineSet
214 605 m 1,0,1
 200 548 200 548 191.5 490.5 c 128,-1,2
 183 433 183 433 179 375 c 0,3,4
 178 359 178 359 175.5 338.5 c 128,-1,5
 173 318 173 318 168.5 299 c 128,-1,6
 164 280 164 280 156 265.5 c 128,-1,7
 148 251 148 251 135 246 c 1,8,9
 148 241 148 241 157 228.5 c 128,-1,10
 166 216 166 216 172 200.5 c 128,-1,11
 178 185 178 185 181 168 c 128,-1,12
 184 151 184 151 186 138 c 0,13,14
 204 5 204 5 249 -114 c 1,15,16
 224 -111 224 -111 212 -109 c 128,-1,17
 200 -107 200 -107 191 -105 c 128,-1,18
 182 -103 182 -103 170.5 -101 c 128,-1,19
 159 -99 159 -99 137 -94 c 1,20,21
 104 -43 104 -43 84 16 c 128,-1,22
 64 75 64 75 56 138 c 0,23,24
 54 151 54 151 53 168 c 128,-1,25
 52 185 52 185 47.5 200.5 c 128,-1,26
 43 216 43 216 33.5 228.5 c 128,-1,27
 24 241 24 241 5 246 c 1,28,29
 24 250 24 250 34.5 265 c 128,-1,30
 45 280 45 280 50.5 299.5 c 128,-1,31
 56 319 56 319 58 339.5 c 128,-1,32
 60 360 60 360 63 376 c 0,33,34
 75 440 75 440 96.5 498.5 c 128,-1,35
 118 557 118 557 147 605 c 1,36,-1
 214 605 l 1,0,1
EndSplineSet
EndChar

StartChar: braceright
Encoding: 125 125 95
Width: 252
Flags: W
LayerCount: 2
Fore
SplineSet
40 -114 m 1,0,1
 68 1 68 1 76 116 c 0,2,3
 77 132 77 132 79 152.5 c 128,-1,4
 81 173 81 173 85.5 192 c 128,-1,5
 90 211 90 211 98 226 c 128,-1,6
 106 241 106 241 119 246 c 1,7,8
 106 250 106 250 97.5 262.5 c 128,-1,9
 89 275 89 275 83 291 c 128,-1,10
 77 307 77 307 73.5 323.5 c 128,-1,11
 70 340 70 340 68 353 c 0,12,13
 51 487 51 487 5 605 c 1,14,15
 30 602 30 602 42.5 600 c 128,-1,16
 55 598 55 598 64 596.5 c 128,-1,17
 73 595 73 595 84 592 c 128,-1,18
 95 589 95 589 117 585 c 1,19,20
 151 534 151 534 171 475 c 128,-1,21
 191 416 191 416 199 353 c 0,22,23
 200 340 200 340 201.5 323.5 c 128,-1,24
 203 307 203 307 207.5 291.5 c 128,-1,25
 212 276 212 276 221.5 263.5 c 128,-1,26
 231 251 231 251 250 246 c 1,27,28
 231 241 231 241 220.5 226.5 c 128,-1,29
 210 212 210 212 204.5 192.5 c 128,-1,30
 199 173 199 173 196.5 152.5 c 128,-1,31
 194 132 194 132 191 116 c 0,32,33
 180 52 180 52 158 -6.5 c 128,-1,34
 136 -65 136 -65 107 -114 c 1,35,-1
 40 -114 l 1,0,1
EndSplineSet
EndChar

StartChar: bracketleft
Encoding: 91 91 96
Width: 249
Flags: W
LayerCount: 2
Fore
SplineSet
234 605 m 1,0,1
 228 581 228 581 220 556.5 c 128,-1,2
 212 532 212 532 199 507 c 1,3,4
 193 506 193 506 185 506 c 128,-1,5
 177 506 177 506 167 506 c 1,6,7
 158 372 158 372 156 243 c 128,-1,8
 154 114 154 114 156 -17 c 1,9,10
 175 -18 175 -18 194 -18.5 c 128,-1,11
 213 -19 213 -19 234 -18 c 1,12,13
 228 -42 228 -42 220 -66.5 c 128,-1,14
 212 -91 212 -91 199 -116 c 1,15,16
 116 -119 116 -119 78 -115 c 128,-1,17
 40 -111 40 -111 41 -109 c 0,18,19
 58 74 58 74 61 253.5 c 128,-1,20
 64 433 64 433 58 615 c 1,21,22
 106 607 106 607 149.5 605.5 c 128,-1,23
 193 604 193 604 234 605 c 1,0,1
EndSplineSet
EndChar

StartChar: bracketright
Encoding: 93 93 97
Width: 248
Flags: W
LayerCount: 2
Fore
SplineSet
208 605 m 1,0,1
 190 423 190 423 185.5 245.5 c 128,-1,2
 181 68 181 68 185 -113 c 1,3,4
 145 -115 145 -115 98 -116 c 128,-1,5
 51 -117 51 -117 15 -111 c 1,6,7
 26 -85 26 -85 31 -59 c 128,-1,8
 36 -33 36 -33 37 -7 c 1,9,10
 48 -9 48 -9 59 -10.5 c 128,-1,11
 70 -12 70 -12 81 -14 c 1,12,13
 91 119 91 119 93 247.5 c 128,-1,14
 95 376 95 376 93 506 c 1,15,16
 70 506 70 506 49.5 507.5 c 128,-1,17
 29 509 29 509 15 512 c 1,18,19
 26 538 26 538 31 563.5 c 128,-1,20
 36 589 36 589 37 615 c 1,21,22
 44 613 44 613 59.5 611 c 128,-1,23
 75 609 75 609 93.5 608 c 128,-1,24
 112 607 112 607 132.5 606 c 128,-1,25
 153 605 153 605 169.5 604.5 c 128,-1,26
 186 604 186 604 197 604 c 128,-1,27
 208 604 208 604 208 605 c 1,0,1
EndSplineSet
EndChar

StartChar: daggerdbl
Encoding: 8225 8225 98
Width: 403
Flags: W
LayerCount: 2
Fore
SplineSet
14 421 m 1,0,1
 53 419 53 419 92 417.5 c 128,-1,2
 131 416 131 416 169 416 c 1,3,-1
 166 605 l 1,4,-1
 233 605 l 1,5,6
 231 557 231 557 230 510.5 c 128,-1,7
 229 464 229 464 228 416 c 1,8,9
 267 417 267 417 306 418 c 128,-1,10
 345 419 345 419 384 421 c 1,11,-1
 384 354 l 1,12,13
 306 359 306 359 227 360 c 1,14,15
 225 243 225 243 227 126 c 1,16,17
 266 126 266 126 305.5 127.5 c 128,-1,18
 345 129 345 129 384 131 c 1,19,-1
 384 63 l 1,20,21
 345 66 345 66 306 67.5 c 128,-1,22
 267 69 267 69 228 70 c 1,23,24
 229 24 229 24 230 -21.5 c 128,-1,25
 231 -67 231 -67 233 -114 c 1,26,-1
 166 -114 l 1,27,28
 167 -67 167 -67 167.5 -21.5 c 128,-1,29
 168 24 168 24 169 70 c 1,30,31
 131 69 131 69 92 67.5 c 128,-1,32
 53 66 53 66 14 63 c 1,33,-1
 14 131 l 1,34,35
 53 129 53 129 92 127.5 c 128,-1,36
 131 126 131 126 170 126 c 1,37,38
 171 243 171 243 170 360 c 1,39,40
 92 358 92 358 14 354 c 1,41,-1
 14 421 l 1,42,-1
 14 421 l 1,0,1
EndSplineSet
EndChar

StartChar: dagger
Encoding: 8224 8224 99
Width: 418
Flags: W
LayerCount: 2
Fore
SplineSet
19 421 m 1,0,1
 58 419 58 419 97 417.5 c 128,-1,2
 136 416 136 416 174 416 c 1,3,-1
 171 605 l 1,4,-1
 238 605 l 1,5,6
 236 557 236 557 235 510.5 c 128,-1,7
 234 464 234 464 233 416 c 1,8,9
 272 417 272 417 311 418 c 128,-1,10
 350 419 350 419 389 421 c 1,11,-1
 389 354 l 1,12,13
 311 359 311 359 232 360 c 1,14,15
 229 124 229 124 238 -114 c 1,16,-1
 171 -114 l 1,17,18
 174 5 174 5 175 123 c 128,-1,19
 176 241 176 241 175 360 c 1,20,21
 97 358 97 358 19 354 c 1,22,-1
 19 421 l 1,23,-1
 19 421 l 1,0,1
EndSplineSet
EndChar

StartChar: plusminus
Encoding: 177 177 100
Width: 284
Flags: W
LayerCount: 2
Fore
SplineSet
12 318 m 1,0,1
 64 315 64 315 118 315 c 1,2,3
 118 368 118 368 115 421 c 1,4,-1
 168 421 l 1,5,6
 166 395 166 395 164.5 368 c 128,-1,7
 163 341 163 341 163 315 c 1,8,9
 217 315 217 315 270 318 c 1,10,-1
 270 266 l 1,11,12
 244 268 244 268 217 269 c 128,-1,13
 190 270 190 270 163 271 c 1,14,15
 163 244 163 244 164.5 217 c 128,-1,16
 166 190 166 190 168 163 c 1,17,-1
 115 163 l 1,18,19
 118 217 118 217 118 271 c 1,20,21
 92 270 92 270 65 269 c 128,-1,22
 38 268 38 268 12 266 c 1,23,-1
 12 318 l 1,0,1
12 117 m 1,24,25
 77 112 77 112 141 112.5 c 128,-1,26
 205 113 205 113 270 117 c 1,27,-1
 270 64 l 1,28,29
 206 69 206 69 142 69 c 128,-1,30
 78 69 78 69 12 64 c 1,31,-1
 12 117 l 1,24,25
EndSplineSet
EndChar

StartChar: uni0406
Encoding: 1030 1030 101
Width: 396
Flags: W
LayerCount: 2
Fore
SplineSet
341 500 m 1,0,-1
 341 473 l 2,1,2
 341 355 341 355 334 237 c 128,-1,3
 327 119 327 119 308 0 c 1,4,-1
 68 0 l 1,5,6
 79 51 79 51 83 106.5 c 128,-1,7
 87 162 87 162 87 222 c 0,8,9
 87 290 87 290 82.5 359.5 c 128,-1,10
 78 429 78 429 71 500 c 1,11,-1
 341 500 l 1,0,-1
EndSplineSet
EndChar

StartChar: uni0456
Encoding: 1110 1110 102
Width: 396
Flags: W
LayerCount: 2
Fore
SplineSet
341 500 m 1,0,-1
 341 473 l 2,1,2
 341 355 341 355 334 237 c 128,-1,3
 327 119 327 119 308 0 c 1,4,-1
 68 0 l 1,5,6
 79 51 79 51 83 106.5 c 128,-1,7
 87 162 87 162 87 222 c 0,8,9
 87 290 87 290 82.5 359.5 c 128,-1,10
 78 429 78 429 71 500 c 1,11,-1
 341 500 l 1,0,-1
EndSplineSet
EndChar

StartChar: uni0405
Encoding: 1029 1029 103
Width: 635
Flags: W
LayerCount: 2
Fore
SplineSet
575 499 m 1,0,1
 568 472 568 472 557.5 438.5 c 128,-1,2
 547 405 547 405 536 380 c 1,3,4
 504 378 504 378 471 376 c 128,-1,5
 438 374 438 374 406 374 c 1,6,7
 412 390 412 390 416 407 c 128,-1,8
 420 424 420 424 423 440 c 1,9,10
 382 446 382 446 337 446 c 0,11,12
 316 446 316 446 293.5 444.5 c 128,-1,13
 271 443 271 443 249 440 c 1,14,15
 272 401 272 401 300 377 c 128,-1,16
 328 353 328 353 359 334.5 c 128,-1,17
 390 316 390 316 423.5 299.5 c 128,-1,18
 457 283 457 283 490 261 c 0,19,20
 508 249 508 249 530 229 c 128,-1,21
 552 209 552 209 572.5 182.5 c 128,-1,22
 593 156 593 156 609 125 c 128,-1,23
 625 94 625 94 631 61 c 1,24,25
 607 30 607 30 574.5 2 c 128,-1,26
 542 -26 542 -26 504.5 -48.5 c 128,-1,27
 467 -71 467 -71 425.5 -87.5 c 128,-1,28
 384 -104 384 -104 342 -112 c 1,29,30
 300 -109 300 -109 264.5 -99.5 c 128,-1,31
 229 -90 229 -90 197 -80 c 128,-1,32
 165 -70 165 -70 135.5 -62 c 128,-1,33
 106 -54 106 -54 77 -54 c 0,34,35
 54 -54 54 -54 32 -60 c 128,-1,36
 10 -66 10 -66 -14 -81 c 1,37,38
 -3 -49 -3 -49 12.5 -17 c 128,-1,39
 28 15 28 15 45 47 c 1,40,-1
 53 47 l 2,41,42
 109 47 109 47 150.5 34.5 c 128,-1,43
 192 22 192 22 227 7 c 128,-1,44
 262 -8 262 -8 293.5 -20.5 c 128,-1,45
 325 -33 325 -33 361 -33 c 0,46,47
 369 -33 369 -33 377 -32 c 128,-1,48
 385 -31 385 -31 393 -29 c 1,49,50
 393 5 393 5 382 31.5 c 128,-1,51
 371 58 371 58 353.5 78.5 c 128,-1,52
 336 99 336 99 313.5 116 c 128,-1,53
 291 133 291 133 267 150 c 2,54,-1
 250 162 l 2,55,56
 223 181 223 181 196 202 c 128,-1,57
 169 223 169 223 145.5 248.5 c 128,-1,58
 122 274 122 274 103.5 305.5 c 128,-1,59
 85 337 85 337 74 377 c 1,60,61
 87 406 87 406 105 441.5 c 128,-1,62
 123 477 123 477 137 500 c 1,63,64
 232 523 232 523 334 523 c 2,65,-1
 378 523 l 2,66,67
 464 523 464 523 575 499 c 1,0,1
EndSplineSet
EndChar

StartChar: uni0455
Encoding: 1109 1109 104
Width: 635
Flags: W
LayerCount: 2
Fore
SplineSet
575 499 m 1,0,1
 568 472 568 472 557.5 438.5 c 128,-1,2
 547 405 547 405 536 380 c 1,3,4
 504 378 504 378 471 376 c 128,-1,5
 438 374 438 374 406 374 c 1,6,7
 412 390 412 390 416 407 c 128,-1,8
 420 424 420 424 423 440 c 1,9,10
 382 446 382 446 337 446 c 0,11,12
 316 446 316 446 293.5 444.5 c 128,-1,13
 271 443 271 443 249 440 c 1,14,15
 272 401 272 401 300 377 c 128,-1,16
 328 353 328 353 359 334.5 c 128,-1,17
 390 316 390 316 423.5 299.5 c 128,-1,18
 457 283 457 283 490 261 c 0,19,20
 508 249 508 249 530 229 c 128,-1,21
 552 209 552 209 572.5 182.5 c 128,-1,22
 593 156 593 156 609 125 c 128,-1,23
 625 94 625 94 631 61 c 1,24,25
 607 30 607 30 574.5 2 c 128,-1,26
 542 -26 542 -26 504.5 -48.5 c 128,-1,27
 467 -71 467 -71 425.5 -87.5 c 128,-1,28
 384 -104 384 -104 342 -112 c 1,29,30
 300 -109 300 -109 264.5 -99.5 c 128,-1,31
 229 -90 229 -90 197 -80 c 128,-1,32
 165 -70 165 -70 135.5 -62 c 128,-1,33
 106 -54 106 -54 77 -54 c 0,34,35
 54 -54 54 -54 32 -60 c 128,-1,36
 10 -66 10 -66 -14 -81 c 1,37,38
 -3 -49 -3 -49 12.5 -17 c 128,-1,39
 28 15 28 15 45 47 c 1,40,-1
 53 47 l 2,41,42
 109 47 109 47 150.5 34.5 c 128,-1,43
 192 22 192 22 227 7 c 128,-1,44
 262 -8 262 -8 293.5 -20.5 c 128,-1,45
 325 -33 325 -33 361 -33 c 0,46,47
 369 -33 369 -33 377 -32 c 128,-1,48
 385 -31 385 -31 393 -29 c 1,49,50
 393 5 393 5 382 31.5 c 128,-1,51
 371 58 371 58 353.5 78.5 c 128,-1,52
 336 99 336 99 313.5 116 c 128,-1,53
 291 133 291 133 267 150 c 2,54,-1
 250 162 l 2,55,56
 223 181 223 181 196 202 c 128,-1,57
 169 223 169 223 145.5 248.5 c 128,-1,58
 122 274 122 274 103.5 305.5 c 128,-1,59
 85 337 85 337 74 377 c 1,60,61
 87 406 87 406 105 441.5 c 128,-1,62
 123 477 123 477 137 500 c 1,63,64
 232 523 232 523 334 523 c 2,65,-1
 378 523 l 2,66,67
 464 523 464 523 575 499 c 1,0,1
EndSplineSet
EndChar

StartChar: uni0408
Encoding: 1032 1032 105
Width: 531
Flags: W
LayerCount: 2
Fore
SplineSet
192 -45 m 1,0,1
 196 -3 196 -3 197.5 40.5 c 128,-1,2
 199 84 199 84 199 130 c 0,3,4
 199 220 199 220 193 313 c 128,-1,5
 187 406 187 406 176 500 c 1,6,-1
 446 500 l 1,7,8
 448 471 448 471 448 441.5 c 128,-1,9
 448 412 448 412 448 383 c 0,10,11
 448 284 448 284 441 186 c 128,-1,12
 434 88 434 88 420 0 c 1,13,14
 372 -45 372 -45 321.5 -69 c 128,-1,15
 271 -93 271 -93 223 -115 c 1,16,17
 155 -110 155 -110 104 -99.5 c 128,-1,18
 53 -89 53 -89 5 -70 c 1,19,20
 6 -38 6 -38 7.5 -7.5 c 128,-1,21
 9 23 9 23 11 52 c 1,22,23
 62 15 62 15 103.5 -7 c 128,-1,24
 145 -29 145 -29 192 -45 c 1,0,1
EndSplineSet
EndChar

StartChar: uni0458
Encoding: 1112 1112 106
Width: 531
Flags: W
LayerCount: 2
Fore
SplineSet
192 -45 m 1,0,1
 196 -3 196 -3 197.5 40.5 c 128,-1,2
 199 84 199 84 199 130 c 0,3,4
 199 220 199 220 193 313 c 128,-1,5
 187 406 187 406 176 500 c 1,6,-1
 446 500 l 1,7,8
 448 471 448 471 448 441.5 c 128,-1,9
 448 412 448 412 448 383 c 0,10,11
 448 284 448 284 441 186 c 128,-1,12
 434 88 434 88 420 0 c 1,13,14
 372 -45 372 -45 321.5 -69 c 128,-1,15
 271 -93 271 -93 223 -115 c 1,16,17
 155 -110 155 -110 104 -99.5 c 128,-1,18
 53 -89 53 -89 5 -70 c 1,19,20
 6 -38 6 -38 7.5 -7.5 c 128,-1,21
 9 23 9 23 11 52 c 1,22,23
 62 15 62 15 103.5 -7 c 128,-1,24
 145 -29 145 -29 192 -45 c 1,0,1
EndSplineSet
EndChar

StartChar: dollar
Encoding: 36 36 107
Width: 652
Flags: W
LayerCount: 2
Fore
SplineSet
120 499 m 1,0,1
 177 511 177 511 238 517 c 1,2,3
 237 528 237 528 237 538.5 c 128,-1,4
 237 549 237 549 236 560 c 1,5,-1
 300 560 l 1,6,7
 299 550 299 550 299 540.5 c 128,-1,8
 299 531 299 531 299 521 c 1,9,10
 313 522 313 522 327 522.5 c 128,-1,11
 341 523 341 523 355 523 c 1,12,13
 354 532 354 532 354 541 c 128,-1,14
 354 550 354 550 354 560 c 1,15,-1
 417 560 l 1,16,17
 417 550 417 550 416.5 540.5 c 128,-1,18
 416 531 416 531 416 522 c 1,19,20
 465 520 465 520 514.5 514.5 c 128,-1,21
 564 509 564 509 613 499 c 1,22,23
 607 469 607 469 599.5 436.5 c 128,-1,24
 592 404 592 404 583 379 c 1,25,26
 546 377 546 377 518.5 376.5 c 128,-1,27
 491 376 491 376 454 374 c 1,28,29
 464 401 464 401 463.5 417 c 128,-1,30
 463 433 463 433 452 442 c 128,-1,31
 441 451 441 451 421 453.5 c 128,-1,32
 401 456 401 456 373 456 c 0,33,34
 338 456 338 456 306 453.5 c 128,-1,35
 274 451 274 451 248 445 c 1,36,37
 272 410 272 410 302 387 c 128,-1,38
 332 364 332 364 365 346.5 c 128,-1,39
 398 329 398 329 434 314.5 c 128,-1,40
 470 300 470 300 505.5 282.5 c 128,-1,41
 541 265 541 265 576 241.5 c 128,-1,42
 611 218 611 218 642 183 c 1,43,44
 630 130 630 130 613.5 88 c 128,-1,45
 597 46 597 46 568 1 c 1,46,47
 539 -7 539 -7 500 -12 c 128,-1,48
 461 -17 461 -17 416 -20 c 1,49,50
 416 -30 416 -30 416 -39.5 c 128,-1,51
 416 -49 416 -49 417 -58 c 1,52,-1
 354 -58 l 1,53,54
 354 -49 354 -49 354 -40 c 128,-1,55
 354 -31 354 -31 355 -22 c 1,56,57
 341 -23 341 -23 327 -23 c 128,-1,58
 313 -23 313 -23 299 -23 c 1,59,60
 299 -32 299 -32 299 -41 c 128,-1,61
 299 -50 299 -50 300 -58 c 1,62,-1
 236 -58 l 1,63,64
 237 -49 237 -49 237 -40 c 128,-1,65
 237 -31 237 -31 238 -22 c 1,66,67
 173 -20 173 -20 114 -14.5 c 128,-1,68
 55 -9 55 -9 12 1 c 1,69,70
 19 33 19 33 28 70.5 c 128,-1,71
 37 108 37 108 46 133 c 1,72,73
 83 135 83 135 110.5 135.5 c 128,-1,74
 138 136 138 136 175 137 c 1,75,76
 154 83 154 83 174 63.5 c 128,-1,77
 194 44 194 44 251 44 c 0,78,79
 287 44 287 44 326.5 47 c 128,-1,80
 366 50 366 50 398 55 c 1,81,82
 376 79 376 79 346 100.5 c 128,-1,83
 316 122 316 122 282.5 144 c 128,-1,84
 249 166 249 166 214.5 190 c 128,-1,85
 180 214 180 214 149 243 c 128,-1,86
 118 272 118 272 93 307.5 c 128,-1,87
 68 343 68 343 54 388 c 1,88,89
 68 417 68 417 86.5 447.5 c 128,-1,90
 105 478 105 478 120 499 c 1,0,1
EndSplineSet
EndChar

StartChar: Euro
Encoding: 8364 8364 108
Width: 650
Flags: W
LayerCount: 2
Fore
SplineSet
640 499 m 1,0,1
 633 471 633 471 622 437 c 128,-1,2
 611 403 611 403 600 378 c 1,3,4
 569 375 569 375 535.5 373.5 c 128,-1,5
 502 372 502 372 470 371 c 1,6,7
 475 388 475 388 479.5 405.5 c 128,-1,8
 484 423 484 423 487 439 c 1,9,10
 448 445 448 445 413.5 444 c 128,-1,11
 379 443 379 443 341 434 c 1,12,13
 329 377 329 377 326 331 c 1,14,15
 420 331 420 331 513 334 c 1,16,-1
 496 279 l 1,17,18
 453 281 453 281 411 282 c 128,-1,19
 369 283 369 283 327 284 c 1,20,21
 328 257 328 257 336 231 c 1,22,23
 371 232 371 232 407 232 c 128,-1,24
 443 232 443 232 479 234 c 1,25,-1
 461 180 l 1,26,27
 435 181 435 181 408 182 c 128,-1,28
 381 183 381 183 354 183 c 1,29,30
 372 148 372 148 400.5 121 c 128,-1,31
 429 94 429 94 464 72 c 1,32,33
 512 103 512 103 552 140.5 c 128,-1,34
 592 178 592 178 630 225 c 1,35,36
 632 196 632 196 633.5 166.5 c 128,-1,37
 635 137 635 137 636 102 c 1,38,39
 606 79 606 79 571 55.5 c 128,-1,40
 536 32 536 32 492 14 c 128,-1,41
 448 -4 448 -4 393 -14 c 128,-1,42
 338 -24 338 -24 269 -22 c 1,43,44
 195 9 195 9 148.5 64 c 128,-1,45
 102 119 102 119 85 183 c 1,46,47
 65 182 65 182 45 181.5 c 128,-1,48
 25 181 25 181 5 180 c 1,49,-1
 25 234 l 1,50,51
 38 233 38 233 51 233 c 128,-1,52
 64 233 64 233 77 232 c 1,53,54
 77 238 77 238 76.5 243.5 c 128,-1,55
 76 249 76 249 76 254 c 0,56,57
 76 261 76 261 76.5 267.5 c 128,-1,58
 77 274 77 274 78 282 c 1,59,60
 60 281 60 281 41.5 280.5 c 128,-1,61
 23 280 23 280 5 279 c 1,62,-1
 25 334 l 1,63,64
 41 333 41 333 57 333 c 128,-1,65
 73 333 73 333 88 332 c 1,66,67
 106 383 106 383 147.5 426 c 128,-1,68
 189 469 189 469 257 494.5 c 128,-1,69
 325 520 325 520 420 523 c 128,-1,70
 515 526 515 526 640 499 c 1,0,1
EndSplineSet
EndChar

StartChar: uni041D
Encoding: 1053 1053 109
Width: 740
Flags: W
LayerCount: 2
Fore
SplineSet
697 500 m 1,0,1
 698 479 698 479 698.5 458 c 128,-1,2
 699 437 699 437 699 417 c 0,3,4
 699 308 699 308 688.5 204.5 c 128,-1,5
 678 101 678 101 661 0 c 1,6,-1
 422 0 l 1,7,8
 438 118 438 118 443 254 c 1,9,10
 420 268 420 268 387.5 279 c 128,-1,11
 355 290 355 290 327 293 c 1,12,13
 324 217 324 217 316 144.5 c 128,-1,14
 308 72 308 72 295 0 c 1,15,-1
 68 0 l 1,16,17
 75 51 75 51 78 106.5 c 128,-1,18
 81 162 81 162 81 220 c 0,19,20
 81 292 81 292 76.5 363.5 c 128,-1,21
 72 435 72 435 63 500 c 1,22,-1
 327 500 l 1,23,24
 329 469 329 469 329 438.5 c 128,-1,25
 329 408 329 408 329 378 c 1,26,27
 361 368 361 368 389.5 355.5 c 128,-1,28
 418 343 418 343 444 329 c 1,29,30
 444 372 444 372 442.5 415 c 128,-1,31
 441 458 441 458 437 500 c 1,32,-1
 697 500 l 1,0,1
EndSplineSet
EndChar

StartChar: uni041E
Encoding: 1054 1054 110
Width: 658
Flags: W
LayerCount: 2
Fore
SplineSet
123 3 m 1,0,1
 77 62 77 62 55.5 119.5 c 128,-1,2
 34 177 34 177 34 232 c 0,3,4
 34 250 34 250 36.5 269 c 128,-1,5
 39 288 39 288 44 305 c 0,6,7
 57 353 57 353 88 393 c 128,-1,8
 119 433 119 433 164 461.5 c 128,-1,9
 209 490 209 490 266 506.5 c 128,-1,10
 323 523 323 523 390 523 c 0,11,12
 430 523 430 523 471.5 517 c 128,-1,13
 513 511 513 511 555 498 c 1,14,15
 593 450 593 450 610 400.5 c 128,-1,16
 627 351 627 351 627 303 c 0,17,18
 627 283 627 283 624.5 264 c 128,-1,19
 622 245 622 245 617 228 c 0,20,21
 602 175 602 175 569.5 130 c 128,-1,22
 537 85 537 85 490 51 c 128,-1,23
 443 17 443 17 385 -2.5 c 128,-1,24
 327 -22 327 -22 261 -22 c 0,25,26
 196 -22 196 -22 123 3 c 1,0,1
275 436 m 1,27,28
 256 404 256 404 248 367.5 c 128,-1,29
 240 331 240 331 240 293 c 0,30,31
 240 254 240 254 249 216.5 c 128,-1,32
 258 179 258 179 275 146.5 c 128,-1,33
 292 114 292 114 316.5 88 c 128,-1,34
 341 62 341 62 373 47 c 1,35,36
 397 78 397 78 408.5 115 c 128,-1,37
 420 152 420 152 420 191 c 0,38,39
 420 227 420 227 410.5 263 c 128,-1,40
 401 299 401 299 382.5 331.5 c 128,-1,41
 364 364 364 364 337 391 c 128,-1,42
 310 418 310 418 275 436 c 1,27,28
EndSplineSet
EndChar

StartChar: uni0420
Encoding: 1056 1056 111
Width: 665
Flags: W
LayerCount: 2
Fore
SplineSet
294 145 m 1,0,1
 294 108 294 108 295.5 72 c 128,-1,2
 297 36 297 36 299 0 c 1,3,-1
 79 0 l 1,4,5
 60 73 60 73 49 160 c 128,-1,6
 38 247 38 247 38 338 c 0,7,8
 38 380 38 380 40.5 420.5 c 128,-1,9
 43 461 43 461 49 500 c 1,10,-1
 591 500 l 1,11,12
 599 470 599 470 604.5 440 c 128,-1,13
 610 410 610 410 614 378 c 128,-1,14
 618 346 618 346 620 310 c 128,-1,15
 622 274 622 274 623 231 c 1,16,17
 551 199 551 199 464.5 176.5 c 128,-1,18
 378 154 378 154 294 145 c 1,0,1
295 214 m 1,19,20
 307 215 307 215 322 218.5 c 128,-1,21
 337 222 337 222 352 226.5 c 128,-1,22
 367 231 367 231 380 236 c 128,-1,23
 393 241 393 241 402 246 c 1,24,25
 394 297 394 297 370.5 347.5 c 128,-1,26
 347 398 347 398 316 434 c 1,27,28
 307 378 307 378 302 323.5 c 128,-1,29
 297 269 297 269 295 214 c 1,19,20
EndSplineSet
EndChar

StartChar: uni0421
Encoding: 1057 1057 112
Width: 632
Flags: W
LayerCount: 2
Fore
SplineSet
602 498 m 1,0,1
 595 472 595 472 584 438 c 128,-1,2
 573 404 573 404 562 379 c 1,3,4
 530 376 530 376 497 374.5 c 128,-1,5
 464 373 464 373 432 373 c 1,6,7
 437 388 437 388 441.5 405.5 c 128,-1,8
 446 423 446 423 449 439 c 1,9,10
 414 445 414 445 385 445 c 0,11,12
 365 445 365 445 345 442 c 128,-1,13
 325 439 325 439 303 434 c 1,14,15
 295 399 295 399 291.5 368.5 c 128,-1,16
 288 338 288 338 288 311 c 0,17,18
 288 223 288 223 325 167 c 128,-1,19
 362 111 362 111 426 73 c 1,20,21
 474 105 474 105 514 141.5 c 128,-1,22
 554 178 554 178 592 225 c 1,23,24
 594 197 594 197 595 167.5 c 128,-1,25
 596 138 596 138 597 103 c 1,26,27
 568 80 568 80 535 58 c 128,-1,28
 502 36 502 36 461 18.5 c 128,-1,29
 420 1 420 1 369 -10 c 128,-1,30
 318 -21 318 -21 254 -21 c 2,31,-1
 231 -21 l 1,32,33
 184 -1 184 -1 148.5 29 c 128,-1,34
 113 59 113 59 88 95.5 c 128,-1,35
 63 132 63 132 50.5 172.5 c 128,-1,36
 38 213 38 213 38 254 c 0,37,38
 38 306 38 306 59.5 354.5 c 128,-1,39
 81 403 81 403 125 440.5 c 128,-1,40
 169 478 169 478 236.5 500.5 c 128,-1,41
 304 523 304 523 397 523 c 0,42,43
 443 523 443 523 493.5 517.5 c 128,-1,44
 544 512 544 512 602 498 c 1,0,1
EndSplineSet
EndChar

StartChar: uni0422
Encoding: 1058 1058 113
Width: 705
Flags: W
LayerCount: 2
Fore
SplineSet
472 435 m 1,0,1
 460 362 460 362 453 290.5 c 128,-1,2
 446 219 446 219 446 147 c 0,3,4
 446 110 446 110 448 73 c 128,-1,5
 450 36 450 36 454 0 c 1,6,-1
 236 0 l 1,7,8
 218 85 218 85 210 170 c 128,-1,9
 202 255 202 255 202 342 c 0,10,11
 202 365 202 365 202.5 388.5 c 128,-1,12
 203 412 203 412 204 435 c 1,13,14
 157 421 157 421 133 392 c 128,-1,15
 109 363 109 363 100 320 c 1,16,-1
 1 326 l 1,17,-1
 37 500 l 1,18,-1
 702 500 l 1,19,20
 693 451 693 451 683 408 c 128,-1,21
 673 365 673 365 656 320 c 1,22,-1
 555 326 l 1,23,24
 559 342 559 342 559 358 c 0,25,26
 559 400 559 400 533.5 417.5 c 128,-1,27
 508 435 508 435 472 435 c 1,0,1
EndSplineSet
EndChar

StartChar: uni0411
Encoding: 1041 1041 114
Width: 706
Flags: W
LayerCount: 2
Fore
SplineSet
315 250 m 1,0,1
 310 203 310 203 307.5 157.5 c 128,-1,2
 305 112 305 112 305 66 c 1,3,4
 331 66 331 66 361 68 c 128,-1,5
 391 70 391 70 417 77 c 1,6,7
 409 139 409 139 380.5 180 c 128,-1,8
 352 221 352 221 315 250 c 1,0,1
671 500 m 1,9,10
 665 469 665 469 657.5 438.5 c 128,-1,11
 650 408 650 408 639 379 c 1,12,13
 603 378 603 378 569.5 377 c 128,-1,14
 536 376 536 376 500 375 c 1,15,16
 505 389 505 389 508 405 c 128,-1,17
 511 421 511 421 512 435 c 1,18,19
 472 435 472 435 428.5 434 c 128,-1,20
 385 433 385 433 343 429 c 1,21,22
 337 402 337 402 332.5 374.5 c 128,-1,23
 328 347 328 347 323 319 c 1,24,25
 415 308 415 308 498 283 c 128,-1,26
 581 258 581 258 639 220 c 1,27,28
 634 164 634 164 623.5 108 c 128,-1,29
 613 52 613 52 596 0 c 1,30,-1
 94 0 l 1,31,32
 79 53 79 53 69 114 c 128,-1,33
 59 175 59 175 55 239.5 c 128,-1,34
 51 304 51 304 55 370 c 128,-1,35
 59 436 59 436 72 500 c 1,36,-1
 671 500 l 1,9,10
EndSplineSet
EndChar

StartChar: uni0413
Encoding: 1043 1043 115
Width: 603
Flags: W
LayerCount: 2
Fore
SplineSet
600 500 m 1,0,1
 597 485 597 485 593.5 464.5 c 128,-1,2
 590 444 590 444 585.5 423 c 128,-1,3
 581 402 581 402 576.5 382.5 c 128,-1,4
 572 363 572 363 568 348 c 1,5,6
 536 347 536 347 513.5 346.5 c 128,-1,7
 491 346 491 346 460 344 c 1,8,9
 477 397 477 397 460 415.5 c 128,-1,10
 443 434 443 434 396 435 c 0,11,12
 369 435 369 435 336 429 c 1,13,14
 310 323 310 323 295 213 c 128,-1,15
 280 103 280 103 288 0 c 1,16,-1
 71 0 l 1,17,18
 63 53 63 53 58 114.5 c 128,-1,19
 53 176 53 176 51.5 241 c 128,-1,20
 50 306 50 306 53 372 c 128,-1,21
 56 438 56 438 65 500 c 1,22,-1
 600 500 l 1,23,-1
 600 500 l 1,0,1
EndSplineSet
EndChar

StartChar: uni0414
Encoding: 1044 1044 116
Width: 743
Flags: W
LayerCount: 2
Fore
SplineSet
6 77 m 1,0,1
 22 75 22 75 37.5 74.5 c 128,-1,2
 53 74 53 74 69 73 c 1,3,4
 67 121 67 121 72.5 165.5 c 128,-1,5
 78 210 78 210 88 244 c 1,6,7
 160 265 160 265 215.5 314.5 c 128,-1,8
 271 364 271 364 300 423 c 1,9,10
 273 465 273 465 243 500 c 1,11,-1
 574 500 l 1,12,13
 618 407 618 407 642.5 297 c 128,-1,14
 667 187 667 187 672 69 c 1,15,16
 688 68 688 68 705.5 67.5 c 128,-1,17
 723 67 723 67 740 66 c 1,18,19
 731 17 731 17 720.5 -26.5 c 128,-1,20
 710 -70 710 -70 694 -115 c 1,21,22
 667 -113 667 -113 639 -112 c 128,-1,23
 611 -111 611 -111 584 -109 c 1,24,25
 606 -53 606 -53 584 -26.5 c 128,-1,26
 562 0 562 0 511 0 c 2,27,-1
 217 0 l 2,28,29
 166 0 166 0 147.5 -30.5 c 128,-1,30
 129 -61 129 -61 134 -114 c 1,31,32
 119 -114 119 -114 108.5 -113.5 c 128,-1,33
 98 -113 98 -113 89 -113 c 128,-1,34
 80 -113 80 -113 69.5 -112.5 c 128,-1,35
 59 -112 59 -112 44 -111 c 1,36,37
 39 -96 39 -96 33.5 -71 c 128,-1,38
 28 -46 28 -46 22.5 -18 c 128,-1,39
 17 10 17 10 12.5 35.5 c 128,-1,40
 8 61 8 61 6 77 c 1,0,1
339 356 m 1,41,42
 310 288 310 288 294.5 217 c 128,-1,43
 279 146 279 146 290 77 c 1,44,45
 326 72 326 72 358 69.5 c 128,-1,46
 390 67 390 67 426 66 c 1,47,48
 407 225 407 225 339 356 c 1,41,42
EndSplineSet
EndChar

StartChar: uni0416
Encoding: 1046 1046 117
Width: 1049
Flags: W
LayerCount: 2
Fore
SplineSet
640 293 m 1,0,1
 681 361 681 361 729.5 412.5 c 128,-1,2
 778 464 778 464 851 501 c 1,3,4
 876 505 876 505 901 505 c 128,-1,5
 926 505 926 505 950.5 505 c 128,-1,6
 975 505 975 505 998.5 508 c 128,-1,7
 1022 511 1022 511 1044 521 c 1,8,9
 1024 491 1024 491 1003 462 c 128,-1,10
 982 433 982 433 959 407 c 1,11,12
 902 404 902 404 844 424 c 1,13,14
 806 392 806 392 781 357.5 c 128,-1,15
 756 323 756 323 736 276 c 1,16,17
 787 264 787 264 843.5 256 c 128,-1,18
 900 248 900 248 971 245 c 1,19,20
 980 224 980 224 986.5 194 c 128,-1,21
 993 164 993 164 998.5 131 c 128,-1,22
 1004 98 1004 98 1007.5 64 c 128,-1,23
 1011 30 1011 30 1013 0 c 1,24,-1
 754 0 l 1,25,26
 746 37 746 37 732.5 72 c 128,-1,27
 719 107 719 107 702.5 137 c 128,-1,28
 686 167 686 167 668 189 c 128,-1,29
 650 211 650 211 632 223 c 1,30,31
 626 166 626 166 625 110.5 c 128,-1,32
 624 55 624 55 627 0 c 1,33,-1
 409 0 l 1,34,35
 401 55 401 55 397.5 110.5 c 128,-1,36
 394 166 394 166 393 223 c 1,37,38
 375 211 375 211 354.5 189.5 c 128,-1,39
 334 168 334 168 317 139 c 128,-1,40
 300 110 300 110 289 74.5 c 128,-1,41
 278 39 278 39 279 0 c 1,42,-1
 21 0 l 1,43,44
 22 30 22 30 25.5 64 c 128,-1,45
 29 98 29 98 34.5 131 c 128,-1,46
 40 164 40 164 46.5 194 c 128,-1,47
 53 224 53 224 62 245 c 1,48,49
 133 248 133 248 189.5 256 c 128,-1,50
 246 264 246 264 297 277 c 1,51,52
 279 323 279 323 256 357.5 c 128,-1,53
 233 392 233 392 196 424 c 1,54,55
 136 404 136 404 80 407 c 1,56,57
 59 433 59 433 39 462 c 128,-1,58
 19 491 19 491 0 521 c 1,59,60
 21 511 21 511 44.5 508 c 128,-1,61
 68 505 68 505 93 505 c 128,-1,62
 118 505 118 505 143 505 c 128,-1,63
 168 505 168 505 192 501 c 1,64,65
 263 464 263 464 309 412.5 c 128,-1,66
 355 361 355 361 393 294 c 1,67,68
 394 396 394 396 405 500 c 1,69,-1
 681 500 l 1,70,71
 667 446 667 446 657.5 395 c 128,-1,72
 648 344 648 344 640 293 c 1,0,1
EndSplineSet
EndChar

StartChar: uni0417
Encoding: 1047 1047 118
Width: 622
Flags: W
LayerCount: 2
Fore
SplineSet
89 499 m 1,0,1
 130 508 130 508 187 515.5 c 128,-1,2
 244 523 244 523 307 523 c 0,3,4
 361 523 361 523 411.5 516.5 c 128,-1,5
 462 510 462 510 497 499 c 0,6,7
 514 493 514 493 524 484.5 c 128,-1,8
 534 476 534 476 537.5 465.5 c 128,-1,9
 541 455 541 455 539.5 444 c 128,-1,10
 538 433 538 433 533 423 c 0,11,12
 511 381 511 381 487 347 c 128,-1,13
 463 313 463 313 435 286 c 1,14,15
 477 275 477 275 508.5 253 c 128,-1,16
 540 231 540 231 561.5 201.5 c 128,-1,17
 583 172 583 172 595 135.5 c 128,-1,18
 607 99 607 99 611 60 c 1,19,20
 587 29 587 29 554.5 1.5 c 128,-1,21
 522 -26 522 -26 484.5 -48.5 c 128,-1,22
 447 -71 447 -71 405.5 -87.5 c 128,-1,23
 364 -104 364 -104 322 -112 c 1,24,25
 264 -108 264 -108 217 -92.5 c 128,-1,26
 170 -77 170 -77 128.5 -66 c 128,-1,27
 87 -55 87 -55 47.5 -55.5 c 128,-1,28
 8 -56 8 -56 -35 -82 c 1,29,30
 -23 -49 -23 -49 -7.5 -17 c 128,-1,31
 8 15 8 15 25 46 c 1,32,33
 83 47 83 47 126 35 c 128,-1,34
 169 23 169 23 204.5 8 c 128,-1,35
 240 -7 240 -7 272.5 -20.5 c 128,-1,36
 305 -34 305 -34 341 -34 c 0,37,38
 356 -34 356 -34 373 -29 c 1,39,40
 379 -2 379 -2 375 35.5 c 128,-1,41
 371 73 371 73 360 111 c 0,42,43
 353 135 353 135 343.5 157 c 128,-1,44
 334 179 334 179 323.5 195.5 c 128,-1,45
 313 212 313 212 302 221.5 c 128,-1,46
 291 231 291 231 281 231 c 1,47,48
 211 213 211 213 190 217 c 1,49,50
 201 240 201 240 213 261.5 c 128,-1,51
 225 283 225 283 238 306 c 1,52,53
 273 307 273 307 304 306 c 128,-1,54
 335 305 335 305 363 301 c 1,55,56
 388 364 388 364 384 440 c 1,57,58
 374 443 374 443 354 444.5 c 128,-1,59
 334 446 334 446 312 446 c 128,-1,60
 290 446 290 446 270.5 444.5 c 128,-1,61
 251 443 251 443 241 440 c 1,62,63
 244 424 244 424 248.5 406.5 c 128,-1,64
 253 389 253 389 258 373 c 1,65,66
 226 374 226 374 193 375.5 c 128,-1,67
 160 377 160 377 129 379 c 1,68,69
 118 404 118 404 107 438 c 128,-1,70
 96 472 96 472 89 499 c 1,0,1
EndSplineSet
EndChar

StartChar: uni0418
Encoding: 1048 1048 119
Width: 775
Flags: W
LayerCount: 2
Fore
SplineSet
76 0 m 1,0,1
 83 57 83 57 86.5 120.5 c 128,-1,2
 90 184 90 184 89 249 c 128,-1,3
 88 314 88 314 83.5 378 c 128,-1,4
 79 442 79 442 71 500 c 1,5,-1
 335 500 l 1,6,7
 338 428 338 428 333.5 349 c 128,-1,8
 329 270 329 270 318 197 c 1,9,10
 352 228 352 228 391.5 274.5 c 128,-1,11
 431 321 431 321 461 369 c 1,12,13
 460 402 460 402 457.5 435 c 128,-1,14
 455 468 455 468 450 500 c 1,15,-1
 709 500 l 1,16,17
 715 369 715 369 704.5 244.5 c 128,-1,18
 694 120 694 120 673 0 c 1,19,-1
 434 0 l 1,20,21
 442 57 442 57 449 117.5 c 128,-1,22
 456 178 456 178 460 242 c 1,23,24
 443 215 443 215 421 184.5 c 128,-1,25
 399 154 399 154 374.5 122.5 c 128,-1,26
 350 91 350 91 325 59.5 c 128,-1,27
 300 28 300 28 276 0 c 1,28,-1
 76 0 l 1,0,1
EndSplineSet
EndChar

StartChar: at
Encoding: 64 64 120
Width: 540
Flags: W
LayerCount: 2
Fore
SplineSet
367 375 m 1,0,1
 380 344 380 344 388.5 309.5 c 128,-1,2
 397 275 397 275 405 237 c 0,3,4
 408 221 408 221 410.5 206.5 c 128,-1,5
 413 192 413 192 417.5 180.5 c 128,-1,6
 422 169 422 169 428.5 162.5 c 128,-1,7
 435 156 435 156 446 156 c 0,8,9
 459 156 459 156 467.5 167 c 128,-1,10
 476 178 476 178 481 193 c 128,-1,11
 486 208 486 208 488.5 224 c 128,-1,12
 491 240 491 240 491 250 c 0,13,14
 491 296 491 296 473.5 336.5 c 128,-1,15
 456 377 456 377 426 407 c 128,-1,16
 396 437 396 437 356 454.5 c 128,-1,17
 316 472 316 472 270 472 c 256,18,19
 224 472 224 472 183.5 454.5 c 128,-1,20
 143 437 143 437 113 407 c 128,-1,21
 83 377 83 377 65.5 336.5 c 128,-1,22
 48 296 48 296 48 250 c 256,23,24
 48 204 48 204 65.5 164 c 128,-1,25
 83 124 83 124 113 94 c 128,-1,26
 143 64 143 64 183.5 46.5 c 128,-1,27
 224 29 224 29 270 29 c 0,28,29
 308 29 308 29 342.5 41.5 c 128,-1,30
 377 54 377 54 406 76 c 1,31,-1
 426 55 l 1,32,33
 394 29 394 29 354.5 14.5 c 128,-1,34
 315 0 315 0 270 0 c 0,35,36
 218 0 218 0 172.5 19.5 c 128,-1,37
 127 39 127 39 93 73 c 128,-1,38
 59 107 59 107 39.5 152.5 c 128,-1,39
 20 198 20 198 20 250 c 256,40,41
 20 302 20 302 39.5 347.5 c 128,-1,42
 59 393 59 393 93 427 c 128,-1,43
 127 461 127 461 172.5 480.5 c 128,-1,44
 218 500 218 500 270 500 c 256,45,46
 322 500 322 500 367.5 480.5 c 128,-1,47
 413 461 413 461 447 427 c 128,-1,48
 481 393 481 393 500.5 347.5 c 128,-1,49
 520 302 520 302 520 250 c 0,50,51
 520 228 520 228 513 199.5 c 128,-1,52
 506 171 506 171 492 152 c 0,53,54
 476 130 476 130 453 119.5 c 128,-1,55
 430 109 430 109 395 109 c 0,56,57
 318 109 318 109 293 184 c 1,58,59
 294 184 294 184 285 175 c 128,-1,60
 276 166 276 166 263.5 155.5 c 128,-1,61
 251 145 251 145 239 136 c 128,-1,62
 227 127 227 127 223 126 c 1,63,-1
 107 126 l 1,64,65
 102 157 102 157 103.5 190.5 c 128,-1,66
 105 224 105 224 113 247 c 1,67,68
 148 258 148 258 182 282.5 c 128,-1,69
 216 307 216 307 231 337 c 1,70,71
 218 356 218 356 202 375 c 1,72,-1
 367 375 l 1,0,1
284 221 m 1,73,74
 277 243 277 243 269 263.5 c 128,-1,75
 261 284 261 284 250 304 c 1,76,77
 238 270 238 270 231.5 238 c 128,-1,78
 225 206 225 206 223 174 c 1,79,80
 256 191 256 191 284 221 c 1,73,74
EndSplineSet
EndChar

StartChar: registered
Encoding: 174 174 121
Width: 549
Flags: W
LayerCount: 2
Fore
SplineSet
301 239 m 1,0,1
 327 232 327 232 348.5 229.5 c 128,-1,2
 370 227 370 227 395 227 c 1,3,4
 408 209 408 209 417 183.5 c 128,-1,5
 426 158 426 158 430 127 c 1,6,-1
 301 127 l 1,7,8
 296 162 296 162 280.5 187 c 128,-1,9
 265 212 265 212 243 221 c 1,10,11
 242 173 242 173 246 127 c 1,12,-1
 137 127 l 1,13,14
 125 187 125 187 123 250 c 128,-1,15
 121 313 121 313 130 376 c 1,16,-1
 390 376 l 1,17,18
 398 344 398 344 400 322 c 128,-1,19
 402 300 402 300 401 272 c 1,20,21
 380 261 380 261 354.5 252.5 c 128,-1,22
 329 244 329 244 301 239 c 1,0,1
272 473 m 256,23,24
 226 473 226 473 186 455.5 c 128,-1,25
 146 438 146 438 116 408 c 128,-1,26
 86 378 86 378 68.5 337.5 c 128,-1,27
 51 297 51 297 51 251 c 256,28,29
 51 205 51 205 68.5 165 c 128,-1,30
 86 125 86 125 116 95 c 128,-1,31
 146 65 146 65 186 47.5 c 128,-1,32
 226 30 226 30 272 30 c 256,33,34
 318 30 318 30 358 47.5 c 128,-1,35
 398 65 398 65 428 95 c 128,-1,36
 458 125 458 125 475.5 165 c 128,-1,37
 493 205 493 205 493 251 c 256,38,39
 493 297 493 297 475.5 337.5 c 128,-1,40
 458 378 458 378 428 408 c 128,-1,41
 398 438 398 438 358 455.5 c 128,-1,42
 318 473 318 473 272 473 c 256,23,24
272 501 m 256,43,44
 324 501 324 501 369.5 481.5 c 128,-1,45
 415 462 415 462 449 428 c 128,-1,46
 483 394 483 394 502.5 348.5 c 128,-1,47
 522 303 522 303 522 251 c 256,48,49
 522 199 522 199 502.5 153.5 c 128,-1,50
 483 108 483 108 449 74 c 128,-1,51
 415 40 415 40 369.5 20.5 c 128,-1,52
 324 1 324 1 272 1 c 256,53,54
 220 1 220 1 174.5 20.5 c 128,-1,55
 129 40 129 40 95 74 c 128,-1,56
 61 108 61 108 41.5 153.5 c 128,-1,57
 22 199 22 199 22 251 c 256,58,59
 22 303 22 303 41.5 348.5 c 128,-1,60
 61 394 61 394 95 428 c 128,-1,61
 129 462 129 462 174.5 481.5 c 128,-1,62
 220 501 220 501 272 501 c 256,43,44
254 342 m 1,63,64
 248 299 248 299 245 256 c 1,65,66
 258 258 258 258 269.5 263 c 128,-1,67
 281 268 281 268 290 276 c 1,68,69
 284 296 284 296 275.5 311 c 128,-1,70
 267 326 267 326 254 342 c 1,63,64
EndSplineSet
EndChar

StartChar: copyright
Encoding: 169 169 122
Width: 541
Flags: W
LayerCount: 2
Fore
SplineSet
393 371 m 1,0,1
 390 358 390 358 384.5 341.5 c 128,-1,2
 379 325 379 325 374 313 c 1,3,4
 342 310 342 310 310 310 c 1,5,6
 313 318 313 318 314.5 326 c 128,-1,7
 316 334 316 334 318 342 c 1,8,9
 299 346 299 346 282.5 345.5 c 128,-1,10
 266 345 266 345 247 340 c 1,11,12
 239 304 239 304 240 276.5 c 128,-1,13
 241 249 241 249 249 228 c 128,-1,14
 257 207 257 207 272 191.5 c 128,-1,15
 287 176 287 176 307 164 c 1,16,17
 352 193 352 193 388 238 c 1,18,-1
 391 178 l 1,19,20
 362 155 362 155 320.5 135.5 c 128,-1,21
 279 116 279 116 212 118 c 1,22,23
 167 138 167 138 142.5 175 c 128,-1,24
 118 212 118 212 118 252 c 0,25,26
 118 283 118 283 134 311.5 c 128,-1,27
 150 340 150 340 183.5 358.5 c 128,-1,28
 217 377 217 377 269 382 c 128,-1,29
 321 387 321 387 393 371 c 1,0,1
263 472 m 256,30,31
 217 472 217 472 177 454.5 c 128,-1,32
 137 437 137 437 107 407 c 128,-1,33
 77 377 77 377 59.5 336.5 c 128,-1,34
 42 296 42 296 42 250 c 256,35,36
 42 204 42 204 59.5 164 c 128,-1,37
 77 124 77 124 107 94 c 128,-1,38
 137 64 137 64 177 46.5 c 128,-1,39
 217 29 217 29 263 29 c 256,40,41
 309 29 309 29 349.5 46.5 c 128,-1,42
 390 64 390 64 420 94 c 128,-1,43
 450 124 450 124 467.5 164 c 128,-1,44
 485 204 485 204 485 250 c 256,45,46
 485 296 485 296 467.5 336.5 c 128,-1,47
 450 377 450 377 420 407 c 128,-1,48
 390 437 390 437 349.5 454.5 c 128,-1,49
 309 472 309 472 263 472 c 256,30,31
263 500 m 256,50,51
 315 500 315 500 360.5 480.5 c 128,-1,52
 406 461 406 461 440 427 c 128,-1,53
 474 393 474 393 493.5 347.5 c 128,-1,54
 513 302 513 302 513 250 c 256,55,56
 513 198 513 198 493.5 152.5 c 128,-1,57
 474 107 474 107 440 73 c 128,-1,58
 406 39 406 39 360.5 19.5 c 128,-1,59
 315 0 315 0 263 0 c 256,60,61
 211 0 211 0 165.5 19.5 c 128,-1,62
 120 39 120 39 86 73 c 128,-1,63
 52 107 52 107 32.5 152.5 c 128,-1,64
 13 198 13 198 13 250 c 256,65,66
 13 302 13 302 32.5 347.5 c 128,-1,67
 52 393 52 393 86 427 c 128,-1,68
 120 461 120 461 165.5 480.5 c 128,-1,69
 211 500 211 500 263 500 c 256,50,51
EndSplineSet
EndChar

StartChar: uni041B
Encoding: 1051 1051 123
Width: 705
Flags: W
LayerCount: 2
Fore
SplineSet
566 500 m 1,0,1
 616 394 616 394 641 265.5 c 128,-1,2
 666 137 666 137 665 0 c 1,3,-1
 434 0 l 1,4,5
 416 201 416 201 332 357 c 1,6,7
 313 313 313 313 299.5 268 c 128,-1,8
 286 223 286 223 281 177.5 c 128,-1,9
 276 132 276 132 281 87 c 128,-1,10
 286 42 286 42 304 0 c 1,11,-1
 44 0 l 1,12,13
 39 31 39 31 37.5 64.5 c 128,-1,14
 36 98 36 98 38 130 c 128,-1,15
 40 162 40 162 44.5 191 c 128,-1,16
 49 220 49 220 56 244 c 1,17,18
 92 254 92 254 127.5 272.5 c 128,-1,19
 163 291 163 291 194.5 314.5 c 128,-1,20
 226 338 226 338 251.5 366 c 128,-1,21
 277 394 277 394 292 423 c 1,22,23
 279 443 279 443 264.5 462.5 c 128,-1,24
 250 482 250 482 235 500 c 1,25,-1
 566 500 l 1,0,1
EndSplineSet
EndChar

StartChar: uni041F
Encoding: 1055 1055 124
Width: 740
Flags: W
LayerCount: 2
Fore
SplineSet
679 500 m 1,0,1
 684 369 684 369 674 244.5 c 128,-1,2
 664 120 664 120 643 0 c 1,3,-1
 404 0 l 1,4,5
 418 100 418 100 424 211.5 c 128,-1,6
 430 323 430 323 424 435 c 1,7,8
 400 436 400 436 367.5 434.5 c 128,-1,9
 335 433 335 433 312 429 c 1,10,11
 314 317 314 317 305 210 c 128,-1,12
 296 103 296 103 278 0 c 1,13,-1
 50 0 l 1,14,15
 58 57 58 57 61 120.5 c 128,-1,16
 64 184 64 184 63.5 249 c 128,-1,17
 63 314 63 314 58.5 378 c 128,-1,18
 54 442 54 442 46 500 c 1,19,-1
 679 500 l 1,20,-1
 679 500 l 1,0,1
EndSplineSet
EndChar

StartChar: uni0424
Encoding: 1060 1060 125
Width: 879
Flags: W
LayerCount: 2
Fore
SplineSet
309 151 m 1,0,1
 228 159 228 159 158 176 c 128,-1,2
 88 193 88 193 22 225 c 1,3,4
 21 238 21 238 20.5 251 c 128,-1,5
 20 264 20 264 20 276 c 0,6,7
 20 341 20 341 31 396 c 128,-1,8
 42 451 42 451 64 500 c 1,9,-1
 284 500 l 1,10,11
 280 528 280 528 276 555.5 c 128,-1,12
 272 583 272 583 267 611 c 1,13,14
 339 599 339 599 411 587 c 128,-1,15
 483 575 483 575 555 562 c 1,16,17
 556 546 556 546 557.5 531 c 128,-1,18
 559 516 559 516 560 500 c 1,19,-1
 825 500 l 1,20,21
 842 458 842 458 850.5 414 c 128,-1,22
 859 370 859 370 859 321 c 0,23,24
 859 298 859 298 857 274.5 c 128,-1,25
 855 251 855 251 851 225 c 1,26,27
 785 193 785 193 716 176 c 128,-1,28
 647 159 647 159 566 151 c 1,29,30
 563 75 563 75 557 0 c 1,31,-1
 304 0 l 1,32,33
 306 38 306 38 307.5 75.5 c 128,-1,34
 309 113 309 113 309 151 c 1,0,1
293 432 m 1,35,36
 280 415 280 415 267.5 392 c 128,-1,37
 255 369 255 369 244.5 343.5 c 128,-1,38
 234 318 234 318 226.5 291.5 c 128,-1,39
 219 265 219 265 215 241 c 1,40,41
 238 232 238 232 260.5 227.5 c 128,-1,42
 283 223 283 223 308 221 c 1,43,44
 305 325 305 325 293 432 c 1,35,36
564 432 m 1,45,46
 567 352 567 352 567 274 c 2,47,-1
 567 221 l 1,48,49
 592 223 592 223 614 227.5 c 128,-1,50
 636 232 636 232 658 241 c 1,51,52
 654 265 654 265 644 291.5 c 128,-1,53
 634 318 634 318 620.5 343.5 c 128,-1,54
 607 369 607 369 592 392 c 128,-1,55
 577 415 577 415 564 432 c 1,45,46
EndSplineSet
EndChar

StartChar: uni0426
Encoding: 1062 1062 126
Width: 750
Flags: W
LayerCount: 2
Fore
SplineSet
55 0 m 1,0,1
 63 52 63 52 66 108.5 c 128,-1,2
 69 165 69 165 69 224 c 0,3,4
 69 296 69 296 64 366 c 128,-1,5
 59 436 59 436 51 500 c 1,6,-1
 315 500 l 1,7,8
 316 474 316 474 316.5 449 c 128,-1,9
 317 424 317 424 317 398 c 0,10,11
 317 314 317 314 311.5 234 c 128,-1,12
 306 154 306 154 295 76 c 1,13,14
 306 73 306 73 322 71 c 128,-1,15
 338 69 338 69 355 67.5 c 128,-1,16
 372 66 372 66 388.5 65.5 c 128,-1,17
 405 65 405 65 417 65 c 1,18,19
 424 126 424 126 428 190.5 c 128,-1,20
 432 255 432 255 432 321 c 0,21,22
 432 366 432 366 430 410.5 c 128,-1,23
 428 455 428 455 424 500 c 1,24,-1
 684 500 l 1,25,26
 685 478 685 478 685.5 456.5 c 128,-1,27
 686 435 686 435 686 414 c 0,28,29
 686 324 686 324 679 239 c 128,-1,30
 672 154 672 154 659 70 c 1,31,32
 678 68 678 68 700 67 c 128,-1,33
 722 66 722 66 744 65 c 1,34,35
 736 16 736 16 725.5 -27 c 128,-1,36
 715 -70 715 -70 699 -115 c 1,37,-1
 589 -109 l 1,38,39
 599 -83 599 -83 599 -62 c 0,40,41
 599 -30 599 -30 576.5 -15 c 128,-1,42
 554 0 554 0 515 0 c 2,43,-1
 55 0 l 1,0,1
EndSplineSet
EndChar

StartChar: uni0427
Encoding: 1063 1063 127
Width: 725
Flags: W
LayerCount: 2
Fore
SplineSet
409 218 m 1,0,1
 407 248 407 248 406 278 c 128,-1,2
 405 308 405 308 405 338 c 0,3,4
 405 379 405 379 406.5 419 c 128,-1,5
 408 459 408 459 412 500 c 1,6,-1
 688 500 l 1,7,8
 670 409 670 409 660.5 321.5 c 128,-1,9
 651 234 651 234 651 146 c 0,10,11
 651 109 651 109 652.5 72.5 c 128,-1,12
 654 36 654 36 658 0 c 1,13,-1
 439 0 l 1,14,15
 432 34 432 34 426.5 68.5 c 128,-1,16
 421 103 421 103 417 138 c 1,17,18
 392 154 392 154 347 162 c 128,-1,19
 302 170 302 170 245 170 c 0,20,21
 219 170 219 170 190 168.5 c 128,-1,22
 161 167 161 167 131 163 c 1,23,24
 96 242 96 242 74 326 c 128,-1,25
 52 410 52 410 41 500 c 1,26,-1
 296 500 l 1,27,28
 296 241 296 241 409 218 c 1,0,1
EndSplineSet
EndChar

StartChar: uni0428
Encoding: 1064 1064 128
Width: 1073
Flags: W
LayerCount: 2
Fore
SplineSet
1020 500 m 1,0,1
 1021 477 1021 477 1021.5 457 c 128,-1,2
 1022 437 1022 437 1022 417 c 0,3,4
 1022 311 1022 311 1011.5 205.5 c 128,-1,5
 1001 100 1001 100 984 0 c 1,6,-1
 59 0 l 1,7,8
 66 51 66 51 69 107 c 128,-1,9
 72 163 72 163 72 221 c 0,10,11
 72 293 72 293 67.5 364 c 128,-1,12
 63 435 63 435 54 500 c 1,13,-1
 318 500 l 1,14,15
 319 474 319 474 319.5 449 c 128,-1,16
 320 424 320 424 320 398 c 0,17,18
 320 314 320 314 314.5 234.5 c 128,-1,19
 309 155 309 155 298 77 c 1,20,21
 309 74 309 74 325 72 c 128,-1,22
 341 70 341 70 357.5 68.5 c 128,-1,23
 374 67 374 67 390.5 66.5 c 128,-1,24
 407 66 407 66 419 66 c 1,25,26
 425 142 425 142 425 224 c 0,27,28
 425 295 425 295 420.5 365.5 c 128,-1,29
 416 436 416 436 407 500 c 1,30,-1
 671 500 l 1,31,32
 672 487 672 487 672 474.5 c 128,-1,33
 672 462 672 462 672 449 c 0,34,35
 672 356 672 356 661.5 258 c 128,-1,36
 651 160 651 160 634 76 c 1,37,38
 645 74 645 74 660.5 72 c 128,-1,39
 676 70 676 70 692.5 68.5 c 128,-1,40
 709 67 709 67 725 66.5 c 128,-1,41
 741 66 741 66 753 66 c 1,42,43
 760 128 760 128 763.5 192.5 c 128,-1,44
 767 257 767 257 767 324 c 0,45,46
 767 369 767 369 765.5 412.5 c 128,-1,47
 764 456 764 456 760 500 c 1,48,-1
 1020 500 l 1,0,1
EndSplineSet
EndChar

StartChar: uni0429
Encoding: 1065 1065 129
Width: 1054
Flags: W
LayerCount: 2
Fore
SplineSet
32 0 m 1,0,1
 40 52 40 52 43 108.5 c 128,-1,2
 46 165 46 165 46 224 c 0,3,4
 46 295 46 295 41 365.5 c 128,-1,5
 36 436 36 436 28 500 c 1,6,-1
 292 500 l 1,7,8
 293 474 293 474 293.5 448.5 c 128,-1,9
 294 423 294 423 294 397 c 0,10,11
 294 313 294 313 288.5 233.5 c 128,-1,12
 283 154 283 154 272 76 c 1,13,14
 283 73 283 73 298.5 71 c 128,-1,15
 314 69 314 69 330.5 67.5 c 128,-1,16
 347 66 347 66 363.5 65.5 c 128,-1,17
 380 65 380 65 392 65 c 1,18,19
 396 103 396 103 397.5 143.5 c 128,-1,20
 399 184 399 184 399 225 c 0,21,22
 399 296 399 296 394 366 c 128,-1,23
 389 436 389 436 381 500 c 1,24,-1
 644 500 l 1,25,26
 645 486 645 486 645 471.5 c 128,-1,27
 645 457 645 457 645 443 c 0,28,29
 645 351 645 351 634.5 254.5 c 128,-1,30
 624 158 624 158 607 76 c 1,31,32
 618 73 618 73 633.5 71 c 128,-1,33
 649 69 649 69 665.5 67.5 c 128,-1,34
 682 66 682 66 698.5 65.5 c 128,-1,35
 715 65 715 65 727 65 c 1,36,37
 734 126 734 126 737.5 189.5 c 128,-1,38
 741 253 741 253 741 318 c 0,39,40
 741 364 741 364 739 409.5 c 128,-1,41
 737 455 737 455 733 500 c 1,42,-1
 993 500 l 1,43,44
 994 478 994 478 994.5 456 c 128,-1,45
 995 434 995 434 995 413 c 0,46,47
 995 324 995 324 988 239 c 128,-1,48
 981 154 981 154 968 70 c 1,49,50
 987 68 987 68 1009 67 c 128,-1,51
 1031 66 1031 66 1054 65 c 1,52,53
 1045 16 1045 16 1034.5 -27 c 128,-1,54
 1024 -70 1024 -70 1008 -115 c 1,55,-1
 898 -109 l 1,56,57
 908 -83 908 -83 908 -62 c 0,58,59
 908 -30 908 -30 885.5 -15 c 128,-1,60
 863 0 863 0 825 0 c 2,61,-1
 32 0 l 1,0,1
EndSplineSet
EndChar

StartChar: uni042A
Encoding: 1066 1066 130
Width: 758
Flags: W
LayerCount: 2
Fore
SplineSet
449 500 m 1,0,1
 442 460 442 460 436.5 417.5 c 128,-1,2
 431 375 431 375 428 330 c 1,3,4
 520 319 520 319 594 298.5 c 128,-1,5
 668 278 668 278 738 242 c 1,6,7
 737 205 737 205 735.5 174.5 c 128,-1,8
 734 144 734 144 730.5 115.5 c 128,-1,9
 727 87 727 87 721.5 59 c 128,-1,10
 716 31 716 31 707 0 c 1,11,-1
 198 0 l 1,12,13
 186 51 186 51 180 114 c 128,-1,14
 174 177 174 177 174 243 c 0,15,16
 174 294 174 294 177.5 343 c 128,-1,17
 181 392 181 392 188 435 c 1,18,19
 151 424 151 424 133.5 405 c 128,-1,20
 116 386 116 386 109 344 c 1,21,-1
 10 350 l 1,22,-1
 41 500 l 1,23,-1
 449 500 l 1,0,1
426 261 m 1,24,25
 426 212 426 212 431.5 163.5 c 128,-1,26
 437 115 437 115 451 67 c 1,27,28
 503 133 503 133 517 235 c 1,29,30
 498 244 498 244 475 251.5 c 128,-1,31
 452 259 452 259 426 261 c 1,24,25
EndSplineSet
EndChar

StartChar: uni042B
Encoding: 1067 1067 131
Width: 955
Flags: W
LayerCount: 2
Fore
SplineSet
294 329 m 1,0,1
 386 318 386 318 460 297 c 128,-1,2
 534 276 534 276 605 241 c 1,3,4
 604 204 604 204 602.5 174 c 128,-1,5
 601 144 601 144 597 116 c 128,-1,6
 593 88 593 88 587.5 60 c 128,-1,7
 582 32 582 32 573 0 c 1,8,-1
 63 0 l 1,9,10
 51 51 51 51 45.5 112.5 c 128,-1,11
 40 174 40 174 40 239 c 0,12,13
 40 313 40 313 47 382 c 128,-1,14
 54 451 54 451 68 500 c 1,15,-1
 315 500 l 1,16,17
 308 459 308 459 302.5 416.5 c 128,-1,18
 297 374 297 374 294 329 c 1,0,1
292 260 m 1,19,20
 292 211 292 211 297.5 162.5 c 128,-1,21
 303 114 303 114 317 66 c 1,22,23
 344 99 344 99 360 140.5 c 128,-1,24
 376 182 376 182 383 233 c 1,25,26
 364 243 364 243 341 250.5 c 128,-1,27
 318 258 318 258 292 260 c 1,19,20
913 500 m 1,28,29
 914 474 914 474 914.5 449 c 128,-1,30
 915 424 915 424 915 398 c 0,31,32
 915 294 915 294 906.5 195.5 c 128,-1,33
 898 97 898 97 881 0 c 1,34,-1
 654 0 l 1,35,36
 661 51 661 51 664 106.5 c 128,-1,37
 667 162 667 162 667 220 c 0,38,39
 667 292 667 292 662.5 363.5 c 128,-1,40
 658 435 658 435 649 500 c 1,41,-1
 913 500 l 1,28,29
EndSplineSet
EndChar

StartChar: uni042C
Encoding: 1068 1068 132
Width: 629
Flags: W
LayerCount: 2
Fore
SplineSet
307 330 m 1,0,1
 399 319 399 319 473 298 c 128,-1,2
 547 277 547 277 618 242 c 1,3,4
 617 205 617 205 615.5 174.5 c 128,-1,5
 614 144 614 144 610 115.5 c 128,-1,6
 606 87 606 87 600.5 59 c 128,-1,7
 595 31 595 31 587 0 c 1,8,-1
 77 0 l 1,9,10
 65 51 65 51 59 113 c 128,-1,11
 53 175 53 175 53 240 c 0,12,13
 53 314 53 314 60.5 382.5 c 128,-1,14
 68 451 68 451 82 500 c 1,15,-1
 328 500 l 1,16,17
 321 460 321 460 315.5 417.5 c 128,-1,18
 310 375 310 375 307 330 c 1,0,1
305 261 m 1,19,20
 305 212 305 212 310.5 163.5 c 128,-1,21
 316 115 316 115 330 67 c 1,22,23
 383 133 383 133 396 234 c 1,24,25
 377 244 377 244 354 251.5 c 128,-1,26
 331 259 331 259 305 261 c 1,19,20
EndSplineSet
EndChar

StartChar: uni042D
Encoding: 1069 1069 133
Width: 640
Flags: W
LayerCount: 2
Fore
SplineSet
54 498 m 1,0,1
 167 523 167 523 259 523 c 0,2,3
 352 523 352 523 419.5 500 c 128,-1,4
 487 477 487 477 531.5 439.5 c 128,-1,5
 576 402 576 402 597.5 353.5 c 128,-1,6
 619 305 619 305 619 253 c 0,7,8
 619 212 619 212 606 171.5 c 128,-1,9
 593 131 593 131 568.5 94.5 c 128,-1,10
 544 58 544 58 508 28 c 128,-1,11
 472 -2 472 -2 426 -22 c 1,12,-1
 403 -22 l 2,13,14
 338 -22 338 -22 287.5 -11 c 128,-1,15
 237 0 237 0 195.5 18 c 128,-1,16
 154 36 154 36 121 58 c 128,-1,17
 88 80 88 80 59 103 c 1,18,19
 61 170 61 170 65 225 c 1,20,21
 103 178 103 178 142.5 141 c 128,-1,22
 182 104 182 104 230 73 c 1,23,24
 271 97 271 97 301 127 c 128,-1,25
 331 157 331 157 348 199 c 1,26,27
 331 231 331 231 313 240.5 c 128,-1,28
 295 250 295 250 274 250 c 256,29,30
 253 250 253 250 230 245.5 c 128,-1,31
 207 241 207 241 184 241 c 0,32,33
 181 241 181 241 178 241.5 c 128,-1,34
 175 242 175 242 171 242 c 1,35,-1
 122 331 l 1,36,37
 129 330 129 330 136 330 c 128,-1,38
 143 330 143 330 150 330 c 0,39,40
 173 330 173 330 194.5 331.5 c 128,-1,41
 216 333 216 333 237 333 c 0,42,43
 274 333 274 333 306.5 321 c 128,-1,44
 339 309 339 309 366 269 c 1,45,46
 369 290 369 290 369 312 c 0,47,48
 369 366 369 366 353 433 c 1,49,50
 309 444 309 444 271 444 c 0,51,52
 241 444 241 444 207 438 c 1,53,54
 210 422 210 422 214.5 404.5 c 128,-1,55
 219 387 219 387 224 372 c 1,56,57
 193 373 193 373 159.5 374.5 c 128,-1,58
 126 376 126 376 94 378 c 1,59,60
 83 403 83 403 72 437 c 128,-1,61
 61 471 61 471 54 498 c 1,0,1
EndSplineSet
EndChar

StartChar: uni0404
Encoding: 1028 1028 134
Width: 617
Flags: W
LayerCount: 2
Fore
SplineSet
591 498 m 1,0,1
 584 471 584 471 573 437 c 128,-1,2
 562 403 562 403 551 378 c 1,3,4
 519 376 519 376 485.5 374.5 c 128,-1,5
 452 373 452 373 421 372 c 1,6,7
 426 387 426 387 430.5 404.5 c 128,-1,8
 435 422 435 422 438 438 c 1,9,10
 403 444 403 444 374 444 c 0,11,12
 336 444 336 444 292 433 c 1,13,14
 276 366 276 366 276 312 c 0,15,16
 276 290 276 290 279 269 c 1,17,18
 306 309 306 309 338 321 c 128,-1,19
 370 333 370 333 408 333 c 0,20,21
 429 333 429 333 450.5 331.5 c 128,-1,22
 472 330 472 330 495 330 c 0,23,24
 502 330 502 330 509 330 c 128,-1,25
 516 330 516 330 523 331 c 1,26,-1
 474 242 l 1,27,28
 470 242 470 242 467 241.5 c 128,-1,29
 464 241 464 241 461 241 c 0,30,31
 438 241 438 241 415 245.5 c 128,-1,32
 392 250 392 250 371 250 c 256,33,34
 350 250 350 250 332 240.5 c 128,-1,35
 314 231 314 231 297 199 c 1,36,37
 314 157 314 157 344 127 c 128,-1,38
 374 97 374 97 415 73 c 1,39,40
 463 104 463 104 502.5 141 c 128,-1,41
 542 178 542 178 580 225 c 1,42,43
 584 170 584 170 586 103 c 1,44,45
 557 80 557 80 524 58 c 128,-1,46
 491 36 491 36 449.5 18 c 128,-1,47
 408 0 408 0 357 -11 c 128,-1,48
 306 -22 306 -22 242 -22 c 2,49,-1
 219 -22 l 1,50,51
 173 -2 173 -2 137 28 c 128,-1,52
 101 58 101 58 76.5 94.5 c 128,-1,53
 52 131 52 131 39 171.5 c 128,-1,54
 26 212 26 212 26 253 c 0,55,56
 26 305 26 305 47.5 353.5 c 128,-1,57
 69 402 69 402 113.5 439.5 c 128,-1,58
 158 477 158 477 225.5 500 c 128,-1,59
 293 523 293 523 386 523 c 0,60,61
 478 523 478 523 591 498 c 1,0,1
EndSplineSet
EndChar

StartChar: uni0454
Encoding: 1108 1108 135
Width: 617
Flags: W
LayerCount: 2
Fore
SplineSet
591 498 m 1,0,1
 584 471 584 471 573 437 c 128,-1,2
 562 403 562 403 551 378 c 1,3,4
 519 376 519 376 485.5 374.5 c 128,-1,5
 452 373 452 373 421 372 c 1,6,7
 426 387 426 387 430.5 404.5 c 128,-1,8
 435 422 435 422 438 438 c 1,9,10
 403 444 403 444 374 444 c 0,11,12
 336 444 336 444 292 433 c 1,13,14
 276 366 276 366 276 312 c 0,15,16
 276 290 276 290 279 269 c 1,17,18
 306 309 306 309 338 321 c 128,-1,19
 370 333 370 333 408 333 c 0,20,21
 429 333 429 333 450.5 331.5 c 128,-1,22
 472 330 472 330 495 330 c 0,23,24
 502 330 502 330 509 330 c 128,-1,25
 516 330 516 330 523 331 c 1,26,-1
 474 242 l 1,27,28
 470 242 470 242 467 241.5 c 128,-1,29
 464 241 464 241 461 241 c 0,30,31
 438 241 438 241 415 245.5 c 128,-1,32
 392 250 392 250 371 250 c 256,33,34
 350 250 350 250 332 240.5 c 128,-1,35
 314 231 314 231 297 199 c 1,36,37
 314 157 314 157 344 127 c 128,-1,38
 374 97 374 97 415 73 c 1,39,40
 463 104 463 104 502.5 141 c 128,-1,41
 542 178 542 178 580 225 c 1,42,43
 584 170 584 170 586 103 c 1,44,45
 557 80 557 80 524 58 c 128,-1,46
 491 36 491 36 449.5 18 c 128,-1,47
 408 0 408 0 357 -11 c 128,-1,48
 306 -22 306 -22 242 -22 c 2,49,-1
 219 -22 l 1,50,51
 173 -2 173 -2 137 28 c 128,-1,52
 101 58 101 58 76.5 94.5 c 128,-1,53
 52 131 52 131 39 171.5 c 128,-1,54
 26 212 26 212 26 253 c 0,55,56
 26 305 26 305 47.5 353.5 c 128,-1,57
 69 402 69 402 113.5 439.5 c 128,-1,58
 158 477 158 477 225.5 500 c 128,-1,59
 293 523 293 523 386 523 c 0,60,61
 478 523 478 523 591 498 c 1,0,1
EndSplineSet
EndChar

StartChar: uni042E
Encoding: 1070 1070 136
Width: 961
Flags: W
LayerCount: 2
Fore
SplineSet
454 2 m 1,0,1
 409 59 409 59 388.5 117.5 c 128,-1,2
 368 176 368 176 367 228 c 1,3,4
 350 228 350 228 331.5 228 c 128,-1,5
 313 228 313 228 296 227 c 1,6,7
 291 169 291 169 284 112.5 c 128,-1,8
 277 56 277 56 267 0 c 1,9,-1
 40 0 l 1,10,11
 47 51 47 51 50.5 107.5 c 128,-1,12
 54 164 54 164 54 222 c 0,13,14
 54 294 54 294 49 364.5 c 128,-1,15
 44 435 44 435 35 500 c 1,16,-1
 299 500 l 1,17,18
 301 471 301 471 301 443.5 c 128,-1,19
 301 416 301 416 301 388 c 0,20,21
 301 365 301 365 301 342.5 c 128,-1,22
 301 320 301 320 300 297 c 1,23,24
 320 297 320 297 339 296 c 128,-1,25
 358 295 358 295 375 293 c 1,26,27
 388 350 388 350 422 393 c 128,-1,28
 456 436 456 436 502.5 465 c 128,-1,29
 549 494 549 494 604.5 508.5 c 128,-1,30
 660 523 660 523 716 523 c 0,31,32
 754 523 754 523 794.5 516.5 c 128,-1,33
 835 510 835 510 876 498 c 1,34,35
 913 450 913 450 930 400.5 c 128,-1,36
 947 351 947 351 947 302 c 0,37,38
 947 261 947 261 937 227 c 0,39,40
 923 176 923 176 891 130.5 c 128,-1,41
 859 85 859 85 813 51 c 128,-1,42
 767 17 767 17 710 -2.5 c 128,-1,43
 653 -22 653 -22 589 -22 c 0,44,45
 557 -22 557 -22 523 -15.5 c 128,-1,46
 489 -9 489 -9 454 2 c 1,0,1
603 430 m 1,47,48
 585 398 585 398 576.5 362.5 c 128,-1,49
 568 327 568 327 568 291 c 0,50,51
 568 253 568 253 577 216.5 c 128,-1,52
 586 180 586 180 603 148 c 128,-1,53
 620 116 620 116 644 91 c 128,-1,54
 668 66 668 66 699 51 c 1,55,56
 722 80 722 80 733 116.5 c 128,-1,57
 744 153 744 153 744 191 c 0,58,59
 744 226 744 226 735 261.5 c 128,-1,60
 726 297 726 297 708 328.5 c 128,-1,61
 690 360 690 360 663.5 386.5 c 128,-1,62
 637 413 637 413 603 430 c 1,47,48
EndSplineSet
EndChar

StartChar: uni042F
Encoding: 1071 1071 137
Width: 656
Flags: W
LayerCount: 2
Fore
SplineSet
269 225 m 1,0,1
 213 236 213 236 162 253 c 128,-1,2
 111 270 111 270 69 292 c 1,3,-1
 69 321 l 2,4,5
 69 343 69 343 70 363.5 c 128,-1,6
 71 384 71 384 74 405 c 128,-1,7
 77 426 77 426 81 449.5 c 128,-1,8
 85 473 85 473 91 500 c 1,9,-1
 613 500 l 1,10,11
 620 449 620 449 623.5 397.5 c 128,-1,12
 627 346 627 346 627 294 c 0,13,14
 627 145 627 145 598 0 c 1,15,-1
 380 0 l 1,16,17
 386 70 386 70 386 141 c 0,18,19
 386 153 386 153 386 165 c 128,-1,20
 386 177 386 177 385 190 c 1,21,22
 341 171 341 171 315 120.5 c 128,-1,23
 289 70 289 70 279 0 c 1,24,-1
 21 0 l 1,25,26
 23 30 23 30 26 55.5 c 128,-1,27
 29 81 29 81 34 104 c 128,-1,28
 39 127 39 127 45.5 149.5 c 128,-1,29
 52 172 52 172 62 197 c 1,30,31
 128 200 128 200 175 206.5 c 128,-1,32
 222 213 222 213 269 225 c 1,0,1
364 433 m 1,33,34
 338 400 338 400 321 370 c 128,-1,35
 304 340 304 340 293 299 c 1,36,37
 310 283 310 283 333 273.5 c 128,-1,38
 356 264 356 264 382 260 c 1,39,40
 376 345 376 345 364 433 c 1,33,34
EndSplineSet
EndChar

StartChar: uni0430
Encoding: 1072 1072 138
Width: 767
Flags: W
LayerCount: 2
Fore
SplineSet
591 500 m 1,0,1
 639 395 639 395 664.5 268.5 c 128,-1,2
 690 142 690 142 690 8 c 2,3,-1
 690 0 l 1,4,-1
 458 0 l 1,5,6
 456 31 456 31 451.5 60 c 128,-1,7
 447 89 447 89 441 118 c 1,8,9
 409 86 409 86 374 56 c 128,-1,10
 339 26 339 26 301 0 c 1,11,-1
 68 0 l 1,12,13
 64 22 64 22 62.5 44.5 c 128,-1,14
 61 67 61 67 61 90 c 0,15,16
 61 133 61 133 66.5 173 c 128,-1,17
 72 213 72 213 81 244 c 1,18,19
 116 254 116 254 151.5 272.5 c 128,-1,20
 187 291 187 291 218.5 314.5 c 128,-1,21
 250 338 250 338 275.5 366 c 128,-1,22
 301 394 301 394 316 423 c 1,23,24
 289 465 289 465 259 500 c 1,25,-1
 591 500 l 1,0,1
423 191 m 1,26,27
 397 280 397 280 355 359 c 1,28,29
 308 221 308 221 301 98 c 1,30,31
 333 115 333 115 365 138.5 c 128,-1,32
 397 162 397 162 423 191 c 1,26,27
EndSplineSet
EndChar

StartChar: uni0431
Encoding: 1073 1073 139
Width: 706
Flags: W
LayerCount: 2
Fore
SplineSet
315 250 m 1,0,1
 310 203 310 203 307.5 157.5 c 128,-1,2
 305 112 305 112 305 66 c 1,3,4
 331 66 331 66 361 68 c 128,-1,5
 391 70 391 70 417 77 c 1,6,7
 409 139 409 139 380.5 180 c 128,-1,8
 352 221 352 221 315 250 c 1,0,1
671 500 m 1,9,10
 665 469 665 469 657.5 438.5 c 128,-1,11
 650 408 650 408 639 379 c 1,12,13
 603 378 603 378 569.5 377 c 128,-1,14
 536 376 536 376 500 375 c 1,15,16
 505 389 505 389 508 405 c 128,-1,17
 511 421 511 421 512 435 c 1,18,19
 472 435 472 435 428.5 434 c 128,-1,20
 385 433 385 433 343 429 c 1,21,22
 337 402 337 402 332.5 374.5 c 128,-1,23
 328 347 328 347 323 319 c 1,24,25
 415 308 415 308 498 283 c 128,-1,26
 581 258 581 258 639 220 c 1,27,28
 634 164 634 164 623.5 108 c 128,-1,29
 613 52 613 52 596 0 c 1,30,-1
 94 0 l 1,31,32
 79 53 79 53 69 114 c 128,-1,33
 59 175 59 175 55 239.5 c 128,-1,34
 51 304 51 304 55 370 c 128,-1,35
 59 436 59 436 72 500 c 1,36,-1
 671 500 l 1,9,10
EndSplineSet
EndChar

StartChar: uni0432
Encoding: 1074 1074 140
Width: 695
Flags: W
LayerCount: 2
Fore
SplineSet
322 65 m 1,0,1
 351 65 351 65 380.5 67.5 c 128,-1,2
 410 70 410 70 433 76 c 1,3,4
 423 136 423 136 397.5 175.5 c 128,-1,5
 372 215 372 215 331 241 c 1,6,7
 322 152 322 152 322 65 c 1,0,1
644 500 m 1,8,9
 621 428 621 428 576 377 c 128,-1,10
 531 326 531 326 472 297 c 1,11,12
 527 277 527 277 572.5 250.5 c 128,-1,13
 618 224 618 224 656 183 c 1,14,15
 651 137 651 137 640 89.5 c 128,-1,16
 629 42 629 42 613 0 c 1,17,-1
 110 0 l 1,18,19
 91 66 91 66 80.5 142.5 c 128,-1,20
 70 219 70 219 70 300 c 0,21,22
 70 351 70 351 74.5 401 c 128,-1,23
 79 451 79 451 89 500 c 1,24,-1
 644 500 l 1,8,9
339 310 m 1,25,26
 361 316 361 316 384 326.5 c 128,-1,27
 407 337 407 337 427 352.5 c 128,-1,28
 447 368 447 368 463.5 388.5 c 128,-1,29
 480 409 480 409 490 434 c 1,30,31
 455 434 455 434 422.5 433 c 128,-1,32
 390 432 390 432 360 429 c 1,33,34
 348 371 348 371 339 310 c 1,25,26
EndSplineSet
EndChar

StartChar: uni0433
Encoding: 1075 1075 141
Width: 603
Flags: W
LayerCount: 2
Fore
SplineSet
600 500 m 1,0,1
 597 485 597 485 593.5 464.5 c 128,-1,2
 590 444 590 444 585.5 423 c 128,-1,3
 581 402 581 402 576.5 382.5 c 128,-1,4
 572 363 572 363 568 348 c 1,5,6
 536 347 536 347 513.5 346.5 c 128,-1,7
 491 346 491 346 460 344 c 1,8,9
 477 397 477 397 460 415.5 c 128,-1,10
 443 434 443 434 396 435 c 0,11,12
 369 435 369 435 336 429 c 1,13,14
 310 323 310 323 295 213 c 128,-1,15
 280 103 280 103 288 0 c 1,16,-1
 71 0 l 1,17,18
 63 53 63 53 58 114.5 c 128,-1,19
 53 176 53 176 51.5 241 c 128,-1,20
 50 306 50 306 53 372 c 128,-1,21
 56 438 56 438 65 500 c 1,22,-1
 600 500 l 1,23,-1
 600 500 l 1,0,1
EndSplineSet
EndChar

StartChar: uni0434
Encoding: 1076 1076 142
Width: 743
Flags: W
LayerCount: 2
Fore
SplineSet
6 77 m 1,0,1
 22 75 22 75 37.5 74.5 c 128,-1,2
 53 74 53 74 69 73 c 1,3,4
 67 121 67 121 72.5 165.5 c 128,-1,5
 78 210 78 210 88 244 c 1,6,7
 160 265 160 265 215.5 314.5 c 128,-1,8
 271 364 271 364 300 423 c 1,9,10
 273 465 273 465 243 500 c 1,11,-1
 574 500 l 1,12,13
 618 407 618 407 642.5 297 c 128,-1,14
 667 187 667 187 672 69 c 1,15,16
 688 68 688 68 705.5 67.5 c 128,-1,17
 723 67 723 67 740 66 c 1,18,19
 731 17 731 17 720.5 -26.5 c 128,-1,20
 710 -70 710 -70 694 -115 c 1,21,22
 667 -113 667 -113 639 -112 c 128,-1,23
 611 -111 611 -111 584 -109 c 1,24,25
 606 -53 606 -53 584 -26.5 c 128,-1,26
 562 0 562 0 511 0 c 2,27,-1
 217 0 l 2,28,29
 166 0 166 0 147.5 -30.5 c 128,-1,30
 129 -61 129 -61 134 -114 c 1,31,32
 119 -114 119 -114 108.5 -113.5 c 128,-1,33
 98 -113 98 -113 89 -113 c 128,-1,34
 80 -113 80 -113 69.5 -112.5 c 128,-1,35
 59 -112 59 -112 44 -111 c 1,36,37
 39 -96 39 -96 33.5 -71 c 128,-1,38
 28 -46 28 -46 22.5 -18 c 128,-1,39
 17 10 17 10 12.5 35.5 c 128,-1,40
 8 61 8 61 6 77 c 1,0,1
339 356 m 1,41,42
 310 288 310 288 294.5 217 c 128,-1,43
 279 146 279 146 290 77 c 1,44,45
 326 72 326 72 358 69.5 c 128,-1,46
 390 67 390 67 426 66 c 1,47,48
 407 225 407 225 339 356 c 1,41,42
EndSplineSet
EndChar

StartChar: uni0435
Encoding: 1077 1077 143
Width: 671
Flags: W
LayerCount: 2
Fore
SplineSet
614 500 m 1,0,1
 611 485 611 485 607.5 464.5 c 128,-1,2
 604 444 604 444 600 423 c 128,-1,3
 596 402 596 402 591 382.5 c 128,-1,4
 586 363 586 363 582 348 c 1,5,6
 550 346 550 346 527.5 345.5 c 128,-1,7
 505 345 505 345 474 344 c 1,8,9
 482 367 482 367 482 387 c 0,10,11
 482 414 482 414 463.5 424 c 128,-1,12
 445 434 445 434 410 435 c 0,13,14
 383 435 383 435 350 429 c 1,15,16
 340 387 340 387 331.5 345.5 c 128,-1,17
 323 304 323 304 316 262 c 1,18,19
 336 280 336 280 362.5 289.5 c 128,-1,20
 389 299 389 299 415 299 c 0,21,22
 438 299 438 299 462 296 c 128,-1,23
 486 293 486 293 509 293 c 0,24,25
 514 293 514 293 519.5 293 c 128,-1,26
 525 293 525 293 530 294 c 1,27,-1
 483 206 l 1,28,-1
 474 206 l 2,29,30
 446 206 446 206 419.5 216 c 128,-1,31
 393 226 393 226 370 227 c 0,32,33
 351 227 351 227 335 216.5 c 128,-1,34
 319 206 319 206 305 174 c 1,35,36
 301 125 301 125 299 76 c 1,37,38
 322 71 322 71 341.5 68.5 c 128,-1,39
 361 66 361 66 381 66 c 2,40,-1
 390 66 l 2,41,42
 431 66 431 66 457 84 c 128,-1,43
 483 102 483 102 495 153 c 1,44,-1
 615 148 l 1,45,46
 607 104 607 104 598 69.5 c 128,-1,47
 589 35 589 35 575 0 c 1,48,-1
 84 0 l 1,49,50
 75 61 75 61 69.5 132.5 c 128,-1,51
 64 204 64 204 64 280 c 0,52,53
 64 336 64 336 67 391 c 128,-1,54
 70 446 70 446 78 500 c 1,55,-1
 614 500 l 1,0,1
EndSplineSet
EndChar

StartChar: uni0436
Encoding: 1078 1078 144
Width: 1049
Flags: W
LayerCount: 2
Fore
SplineSet
640 293 m 1,0,1
 681 361 681 361 729.5 412.5 c 128,-1,2
 778 464 778 464 851 501 c 1,3,4
 876 505 876 505 901 505 c 128,-1,5
 926 505 926 505 950.5 505 c 128,-1,6
 975 505 975 505 998.5 508 c 128,-1,7
 1022 511 1022 511 1044 521 c 1,8,9
 1024 491 1024 491 1003 462 c 128,-1,10
 982 433 982 433 959 407 c 1,11,12
 902 404 902 404 844 424 c 1,13,14
 806 392 806 392 781 357.5 c 128,-1,15
 756 323 756 323 736 276 c 1,16,17
 787 264 787 264 843.5 256 c 128,-1,18
 900 248 900 248 971 245 c 1,19,20
 980 224 980 224 986.5 194 c 128,-1,21
 993 164 993 164 998.5 131 c 128,-1,22
 1004 98 1004 98 1007.5 64 c 128,-1,23
 1011 30 1011 30 1013 0 c 1,24,-1
 754 0 l 1,25,26
 746 37 746 37 732.5 72 c 128,-1,27
 719 107 719 107 702.5 137 c 128,-1,28
 686 167 686 167 668 189 c 128,-1,29
 650 211 650 211 632 223 c 1,30,31
 626 166 626 166 625 110.5 c 128,-1,32
 624 55 624 55 627 0 c 1,33,-1
 409 0 l 1,34,35
 401 55 401 55 397.5 110.5 c 128,-1,36
 394 166 394 166 393 223 c 1,37,38
 375 211 375 211 354.5 189.5 c 128,-1,39
 334 168 334 168 317 139 c 128,-1,40
 300 110 300 110 289 74.5 c 128,-1,41
 278 39 278 39 279 0 c 1,42,-1
 21 0 l 1,43,44
 22 30 22 30 25.5 64 c 128,-1,45
 29 98 29 98 34.5 131 c 128,-1,46
 40 164 40 164 46.5 194 c 128,-1,47
 53 224 53 224 62 245 c 1,48,49
 133 248 133 248 189.5 256 c 128,-1,50
 246 264 246 264 297 277 c 1,51,52
 279 323 279 323 256 357.5 c 128,-1,53
 233 392 233 392 196 424 c 1,54,55
 136 404 136 404 80 407 c 1,56,57
 59 433 59 433 39 462 c 128,-1,58
 19 491 19 491 0 521 c 1,59,60
 21 511 21 511 44.5 508 c 128,-1,61
 68 505 68 505 93 505 c 128,-1,62
 118 505 118 505 143 505 c 128,-1,63
 168 505 168 505 192 501 c 1,64,65
 263 464 263 464 309 412.5 c 128,-1,66
 355 361 355 361 393 294 c 1,67,68
 394 396 394 396 405 500 c 1,69,-1
 681 500 l 1,70,71
 667 446 667 446 657.5 395 c 128,-1,72
 648 344 648 344 640 293 c 1,0,1
EndSplineSet
EndChar

StartChar: uni0437
Encoding: 1079 1079 145
Width: 622
Flags: W
LayerCount: 2
Fore
SplineSet
89 499 m 1,0,1
 130 508 130 508 187 515.5 c 128,-1,2
 244 523 244 523 307 523 c 0,3,4
 361 523 361 523 411.5 516.5 c 128,-1,5
 462 510 462 510 497 499 c 0,6,7
 514 493 514 493 524 484.5 c 128,-1,8
 534 476 534 476 537.5 465.5 c 128,-1,9
 541 455 541 455 539.5 444 c 128,-1,10
 538 433 538 433 533 423 c 0,11,12
 511 381 511 381 487 347 c 128,-1,13
 463 313 463 313 435 286 c 1,14,15
 477 275 477 275 508.5 253 c 128,-1,16
 540 231 540 231 561.5 201.5 c 128,-1,17
 583 172 583 172 595 135.5 c 128,-1,18
 607 99 607 99 611 60 c 1,19,20
 587 29 587 29 554.5 1.5 c 128,-1,21
 522 -26 522 -26 484.5 -48.5 c 128,-1,22
 447 -71 447 -71 405.5 -87.5 c 128,-1,23
 364 -104 364 -104 322 -112 c 1,24,25
 264 -108 264 -108 217 -92.5 c 128,-1,26
 170 -77 170 -77 128.5 -66 c 128,-1,27
 87 -55 87 -55 47.5 -55.5 c 128,-1,28
 8 -56 8 -56 -35 -82 c 1,29,30
 -23 -49 -23 -49 -7.5 -17 c 128,-1,31
 8 15 8 15 25 46 c 1,32,33
 83 47 83 47 126 35 c 128,-1,34
 169 23 169 23 204.5 8 c 128,-1,35
 240 -7 240 -7 272.5 -20.5 c 128,-1,36
 305 -34 305 -34 341 -34 c 0,37,38
 356 -34 356 -34 373 -29 c 1,39,40
 379 -2 379 -2 375 35.5 c 128,-1,41
 371 73 371 73 360 111 c 0,42,43
 353 135 353 135 343.5 157 c 128,-1,44
 334 179 334 179 323.5 195.5 c 128,-1,45
 313 212 313 212 302 221.5 c 128,-1,46
 291 231 291 231 281 231 c 1,47,48
 211 213 211 213 190 217 c 1,49,50
 201 240 201 240 213 261.5 c 128,-1,51
 225 283 225 283 238 306 c 1,52,53
 273 307 273 307 304 306 c 128,-1,54
 335 305 335 305 363 301 c 1,55,56
 388 364 388 364 384 440 c 1,57,58
 374 443 374 443 354 444.5 c 128,-1,59
 334 446 334 446 312 446 c 128,-1,60
 290 446 290 446 270.5 444.5 c 128,-1,61
 251 443 251 443 241 440 c 1,62,63
 244 424 244 424 248.5 406.5 c 128,-1,64
 253 389 253 389 258 373 c 1,65,66
 226 374 226 374 193 375.5 c 128,-1,67
 160 377 160 377 129 379 c 1,68,69
 118 404 118 404 107 438 c 128,-1,70
 96 472 96 472 89 499 c 1,0,1
EndSplineSet
EndChar

StartChar: uni0438
Encoding: 1080 1080 146
Width: 775
Flags: W
LayerCount: 2
Fore
SplineSet
76 0 m 1,0,1
 83 57 83 57 86.5 120.5 c 128,-1,2
 90 184 90 184 89 249 c 128,-1,3
 88 314 88 314 83.5 378 c 128,-1,4
 79 442 79 442 71 500 c 1,5,-1
 335 500 l 1,6,7
 338 428 338 428 333.5 349 c 128,-1,8
 329 270 329 270 318 197 c 1,9,10
 352 228 352 228 391.5 274.5 c 128,-1,11
 431 321 431 321 461 369 c 1,12,13
 460 402 460 402 457.5 435 c 128,-1,14
 455 468 455 468 450 500 c 1,15,-1
 709 500 l 1,16,17
 715 369 715 369 704.5 244.5 c 128,-1,18
 694 120 694 120 673 0 c 1,19,-1
 434 0 l 1,20,21
 442 57 442 57 449 117.5 c 128,-1,22
 456 178 456 178 460 242 c 1,23,24
 443 215 443 215 421 184.5 c 128,-1,25
 399 154 399 154 374.5 122.5 c 128,-1,26
 350 91 350 91 325 59.5 c 128,-1,27
 300 28 300 28 276 0 c 1,28,-1
 76 0 l 1,0,1
EndSplineSet
EndChar

StartChar: uni043A
Encoding: 1082 1082 147
Width: 707
Flags: W
LayerCount: 2
Fore
SplineSet
293 292 m 1,0,1
 334 359 334 359 383 412 c 128,-1,2
 432 465 432 465 505 502 c 1,3,4
 521 505 521 505 537 506 c 128,-1,5
 553 507 553 507 570 507 c 2,6,-1
 603 507 l 2,7,8
 628 507 628 507 652 509 c 128,-1,9
 676 511 676 511 698 522 c 1,10,11
 678 492 678 492 657 463.5 c 128,-1,12
 636 435 636 435 613 409 c 1,13,-1
 597 409 l 2,14,15
 546 409 546 409 498 425 c 1,16,17
 460 393 460 393 434.5 357.5 c 128,-1,18
 409 322 409 322 389 276 c 1,19,20
 440 263 440 263 496.5 255 c 128,-1,21
 553 247 553 247 625 244 c 1,22,23
 634 223 634 223 640.5 193.5 c 128,-1,24
 647 164 647 164 652 131 c 128,-1,25
 657 98 657 98 660.5 64 c 128,-1,26
 664 30 664 30 666 0 c 1,27,-1
 407 0 l 1,28,29
 399 37 399 37 385.5 72 c 128,-1,30
 372 107 372 107 356 136.5 c 128,-1,31
 340 166 340 166 321.5 188 c 128,-1,32
 303 210 303 210 284 222 c 1,33,34
 281 187 281 187 279 152 c 128,-1,35
 277 117 277 117 277 82 c 0,36,37
 277 40 277 40 280 0 c 1,38,-1
 60 0 l 1,39,40
 52 64 52 64 46.5 129.5 c 128,-1,41
 41 195 41 195 41 261 c 0,42,43
 41 321 41 321 45.5 380.5 c 128,-1,44
 50 440 50 440 56 500 c 1,45,-1
 334 500 l 1,46,47
 321 446 321 446 310.5 394.5 c 128,-1,48
 300 343 300 343 293 292 c 1,0,1
EndSplineSet
EndChar

StartChar: uni043B
Encoding: 1083 1083 148
Width: 705
Flags: W
LayerCount: 2
Fore
SplineSet
566 500 m 1,0,1
 616 394 616 394 641 265.5 c 128,-1,2
 666 137 666 137 665 0 c 1,3,-1
 434 0 l 1,4,5
 416 201 416 201 332 357 c 1,6,7
 313 313 313 313 299.5 268 c 128,-1,8
 286 223 286 223 281 177.5 c 128,-1,9
 276 132 276 132 281 87 c 128,-1,10
 286 42 286 42 304 0 c 1,11,-1
 44 0 l 1,12,13
 39 31 39 31 37.5 64.5 c 128,-1,14
 36 98 36 98 38 130 c 128,-1,15
 40 162 40 162 44.5 191 c 128,-1,16
 49 220 49 220 56 244 c 1,17,18
 92 254 92 254 127.5 272.5 c 128,-1,19
 163 291 163 291 194.5 314.5 c 128,-1,20
 226 338 226 338 251.5 366 c 128,-1,21
 277 394 277 394 292 423 c 1,22,23
 279 443 279 443 264.5 462.5 c 128,-1,24
 250 482 250 482 235 500 c 1,25,-1
 566 500 l 1,0,1
EndSplineSet
EndChar

StartChar: uni043C
Encoding: 1084 1084 149
Width: 1052
Flags: W
LayerCount: 2
Fore
SplineSet
550 500 m 1,0,1
 570 445 570 445 584 389.5 c 128,-1,2
 598 334 598 334 607 276 c 1,3,4
 630 318 630 318 643.5 367 c 128,-1,5
 657 416 657 416 657 454 c 0,6,7
 657 481 657 481 649 500 c 1,8,-1
 934 500 l 1,9,10
 953 448 953 448 967 383.5 c 128,-1,11
 981 319 981 319 989.5 252 c 128,-1,12
 998 185 998 185 1002 119.5 c 128,-1,13
 1006 54 1006 54 1006 0 c 1,14,-1
 775 0 l 1,15,16
 772 83 772 83 757 174.5 c 128,-1,17
 742 266 742 266 716 347 c 1,18,19
 678 272 678 272 652 189.5 c 128,-1,20
 626 107 626 107 622 0 c 1,21,-1
 426 0 l 1,22,23
 413 98 413 98 388.5 184 c 128,-1,24
 364 270 364 270 326 348 c 1,25,26
 302 291 302 291 287 232.5 c 128,-1,27
 272 174 272 174 272 112 c 0,28,29
 272 84 272 84 275 56.5 c 128,-1,30
 278 29 278 29 286 0 c 1,31,-1
 43 0 l 1,32,33
 39 22 39 22 37.5 45 c 128,-1,34
 36 68 36 68 36 91 c 0,35,36
 36 134 36 134 41.5 173.5 c 128,-1,37
 47 213 47 213 56 244 c 1,38,39
 90 254 90 254 125 271.5 c 128,-1,40
 160 289 160 289 191 312 c 128,-1,41
 222 335 222 335 247.5 362 c 128,-1,42
 273 389 273 389 289 418 c 1,43,44
 263 461 263 461 234 500 c 1,45,-1
 550 500 l 1,0,1
EndSplineSet
EndChar

StartChar: uni043D
Encoding: 1085 1085 150
Width: 740
Flags: W
LayerCount: 2
Fore
SplineSet
697 500 m 1,0,1
 698 479 698 479 698.5 458 c 128,-1,2
 699 437 699 437 699 417 c 0,3,4
 699 308 699 308 688.5 204.5 c 128,-1,5
 678 101 678 101 661 0 c 1,6,-1
 422 0 l 1,7,8
 438 118 438 118 443 254 c 1,9,10
 420 268 420 268 387.5 279 c 128,-1,11
 355 290 355 290 327 293 c 1,12,13
 324 217 324 217 316 144.5 c 128,-1,14
 308 72 308 72 295 0 c 1,15,-1
 68 0 l 1,16,17
 75 51 75 51 78 106.5 c 128,-1,18
 81 162 81 162 81 220 c 0,19,20
 81 292 81 292 76.5 363.5 c 128,-1,21
 72 435 72 435 63 500 c 1,22,-1
 327 500 l 1,23,24
 329 469 329 469 329 438.5 c 128,-1,25
 329 408 329 408 329 378 c 1,26,27
 361 368 361 368 389.5 355.5 c 128,-1,28
 418 343 418 343 444 329 c 1,29,30
 444 372 444 372 442.5 415 c 128,-1,31
 441 458 441 458 437 500 c 1,32,-1
 697 500 l 1,0,1
EndSplineSet
EndChar

StartChar: uni043E
Encoding: 1086 1086 151
Width: 658
Flags: W
LayerCount: 2
Fore
SplineSet
123 3 m 1,0,1
 77 62 77 62 55.5 119.5 c 128,-1,2
 34 177 34 177 34 232 c 0,3,4
 34 250 34 250 36.5 269 c 128,-1,5
 39 288 39 288 44 305 c 0,6,7
 57 353 57 353 88 393 c 128,-1,8
 119 433 119 433 164 461.5 c 128,-1,9
 209 490 209 490 266 506.5 c 128,-1,10
 323 523 323 523 390 523 c 0,11,12
 430 523 430 523 471.5 517 c 128,-1,13
 513 511 513 511 555 498 c 1,14,15
 593 450 593 450 610 400.5 c 128,-1,16
 627 351 627 351 627 303 c 0,17,18
 627 283 627 283 624.5 264 c 128,-1,19
 622 245 622 245 617 228 c 0,20,21
 602 175 602 175 569.5 130 c 128,-1,22
 537 85 537 85 490 51 c 128,-1,23
 443 17 443 17 385 -2.5 c 128,-1,24
 327 -22 327 -22 261 -22 c 0,25,26
 196 -22 196 -22 123 3 c 1,0,1
275 436 m 1,27,28
 256 404 256 404 248 367.5 c 128,-1,29
 240 331 240 331 240 293 c 0,30,31
 240 254 240 254 249 216.5 c 128,-1,32
 258 179 258 179 275 146.5 c 128,-1,33
 292 114 292 114 316.5 88 c 128,-1,34
 341 62 341 62 373 47 c 1,35,36
 397 78 397 78 408.5 115 c 128,-1,37
 420 152 420 152 420 191 c 0,38,39
 420 227 420 227 410.5 263 c 128,-1,40
 401 299 401 299 382.5 331.5 c 128,-1,41
 364 364 364 364 337 391 c 128,-1,42
 310 418 310 418 275 436 c 1,27,28
EndSplineSet
EndChar

StartChar: uni043F
Encoding: 1087 1087 152
Width: 740
Flags: W
LayerCount: 2
Fore
SplineSet
679 500 m 1,0,1
 684 369 684 369 674 244.5 c 128,-1,2
 664 120 664 120 643 0 c 1,3,-1
 404 0 l 1,4,5
 418 100 418 100 424 211.5 c 128,-1,6
 430 323 430 323 424 435 c 1,7,8
 400 436 400 436 367.5 434.5 c 128,-1,9
 335 433 335 433 312 429 c 1,10,11
 314 317 314 317 305 210 c 128,-1,12
 296 103 296 103 278 0 c 1,13,-1
 50 0 l 1,14,15
 58 57 58 57 61 120.5 c 128,-1,16
 64 184 64 184 63.5 249 c 128,-1,17
 63 314 63 314 58.5 378 c 128,-1,18
 54 442 54 442 46 500 c 1,19,-1
 679 500 l 1,20,-1
 679 500 l 1,0,1
EndSplineSet
EndChar

StartChar: uni0440
Encoding: 1088 1088 153
Width: 665
Flags: W
LayerCount: 2
Fore
SplineSet
294 145 m 1,0,1
 294 108 294 108 295.5 72 c 128,-1,2
 297 36 297 36 299 0 c 1,3,-1
 79 0 l 1,4,5
 60 73 60 73 49 160 c 128,-1,6
 38 247 38 247 38 338 c 0,7,8
 38 380 38 380 40.5 420.5 c 128,-1,9
 43 461 43 461 49 500 c 1,10,-1
 591 500 l 1,11,12
 599 470 599 470 604.5 440 c 128,-1,13
 610 410 610 410 614 378 c 128,-1,14
 618 346 618 346 620 310 c 128,-1,15
 622 274 622 274 623 231 c 1,16,17
 551 199 551 199 464.5 176.5 c 128,-1,18
 378 154 378 154 294 145 c 1,0,1
295 214 m 1,19,20
 307 215 307 215 322 218.5 c 128,-1,21
 337 222 337 222 352 226.5 c 128,-1,22
 367 231 367 231 380 236 c 128,-1,23
 393 241 393 241 402 246 c 1,24,25
 394 297 394 297 370.5 347.5 c 128,-1,26
 347 398 347 398 316 434 c 1,27,28
 307 378 307 378 302 323.5 c 128,-1,29
 297 269 297 269 295 214 c 1,19,20
EndSplineSet
EndChar

StartChar: uni0441
Encoding: 1089 1089 154
Width: 632
Flags: W
LayerCount: 2
Fore
SplineSet
602 498 m 1,0,1
 595 472 595 472 584 438 c 128,-1,2
 573 404 573 404 562 379 c 1,3,4
 530 376 530 376 497 374.5 c 128,-1,5
 464 373 464 373 432 373 c 1,6,7
 437 388 437 388 441.5 405.5 c 128,-1,8
 446 423 446 423 449 439 c 1,9,10
 414 445 414 445 385 445 c 0,11,12
 365 445 365 445 345 442 c 128,-1,13
 325 439 325 439 303 434 c 1,14,15
 295 399 295 399 291.5 368.5 c 128,-1,16
 288 338 288 338 288 311 c 0,17,18
 288 223 288 223 325 167 c 128,-1,19
 362 111 362 111 426 73 c 1,20,21
 474 105 474 105 514 141.5 c 128,-1,22
 554 178 554 178 592 225 c 1,23,24
 594 197 594 197 595 167.5 c 128,-1,25
 596 138 596 138 597 103 c 1,26,27
 568 80 568 80 535 58 c 128,-1,28
 502 36 502 36 461 18.5 c 128,-1,29
 420 1 420 1 369 -10 c 128,-1,30
 318 -21 318 -21 254 -21 c 2,31,-1
 231 -21 l 1,32,33
 184 -1 184 -1 148.5 29 c 128,-1,34
 113 59 113 59 88 95.5 c 128,-1,35
 63 132 63 132 50.5 172.5 c 128,-1,36
 38 213 38 213 38 254 c 0,37,38
 38 306 38 306 59.5 354.5 c 128,-1,39
 81 403 81 403 125 440.5 c 128,-1,40
 169 478 169 478 236.5 500.5 c 128,-1,41
 304 523 304 523 397 523 c 0,42,43
 443 523 443 523 493.5 517.5 c 128,-1,44
 544 512 544 512 602 498 c 1,0,1
EndSplineSet
EndChar

StartChar: uni0442
Encoding: 1090 1090 155
Width: 705
Flags: W
LayerCount: 2
Fore
SplineSet
472 435 m 1,0,1
 460 362 460 362 453 290.5 c 128,-1,2
 446 219 446 219 446 147 c 0,3,4
 446 110 446 110 448 73 c 128,-1,5
 450 36 450 36 454 0 c 1,6,-1
 236 0 l 1,7,8
 218 85 218 85 210 170 c 128,-1,9
 202 255 202 255 202 342 c 0,10,11
 202 365 202 365 202.5 388.5 c 128,-1,12
 203 412 203 412 204 435 c 1,13,14
 157 421 157 421 133 392 c 128,-1,15
 109 363 109 363 100 320 c 1,16,-1
 1 326 l 1,17,-1
 37 500 l 1,18,-1
 702 500 l 1,19,20
 693 451 693 451 683 408 c 128,-1,21
 673 365 673 365 656 320 c 1,22,-1
 555 326 l 1,23,24
 559 342 559 342 559 358 c 0,25,26
 559 400 559 400 533.5 417.5 c 128,-1,27
 508 435 508 435 472 435 c 1,0,1
EndSplineSet
EndChar

StartChar: uni0443
Encoding: 1091 1091 156
Width: 683
Flags: W
LayerCount: 2
Fore
SplineSet
567 556 m 0,0,1
 585 562 585 562 604 563.5 c 128,-1,2
 623 565 623 565 641.5 567 c 128,-1,3
 660 569 660 569 678 573 c 128,-1,4
 696 577 696 577 711 587 c 1,5,6
 697 554 697 554 684.5 530 c 128,-1,7
 672 506 672 506 655 481 c 1,8,9
 639 477 639 477 624 475 c 128,-1,10
 609 473 609 473 594 473 c 0,11,12
 575 473 575 473 554 476 c 1,13,14
 529 446 529 446 510.5 406.5 c 128,-1,15
 492 367 492 367 477.5 323 c 128,-1,16
 463 279 463 279 452.5 233.5 c 128,-1,17
 442 188 442 188 433 146 c 0,18,19
 422 94 422 94 407 27.5 c 128,-1,20
 392 -39 392 -39 373 -109 c 128,-1,21
 354 -179 354 -179 331 -246.5 c 128,-1,22
 308 -314 308 -314 281 -368 c 1,23,24
 254 -376 254 -376 221.5 -383.5 c 128,-1,25
 189 -391 189 -391 157 -397 c 1,26,27
 187 -345 187 -345 212 -291 c 128,-1,28
 237 -237 237 -237 257.5 -185.5 c 128,-1,29
 278 -134 278 -134 293 -86.5 c 128,-1,30
 308 -39 308 -39 319 0 c 1,31,-1
 112 0 l 1,32,33
 74 122 74 122 53 247 c 128,-1,34
 32 372 32 372 30 500 c 1,35,-1
 322 500 l 1,36,37
 301 407 301 407 301 316 c 0,38,39
 301 253 301 253 310 190 c 128,-1,40
 319 127 319 127 335 64 c 1,41,42
 357 149 357 149 377.5 230 c 128,-1,43
 398 311 398 311 423 377.5 c 128,-1,44
 448 444 448 444 482 491 c 128,-1,45
 516 538 516 538 567 556 c 0,0,1
EndSplineSet
EndChar

StartChar: uni0444
Encoding: 1092 1092 157
Width: 910
Flags: W
LayerCount: 2
Fore
SplineSet
333 151 m 1,0,1
 252 159 252 159 182 176 c 128,-1,2
 112 193 112 193 46 225 c 1,3,4
 45 238 45 238 44.5 251 c 128,-1,5
 44 264 44 264 44 276 c 0,6,7
 44 341 44 341 55 396 c 128,-1,8
 66 451 66 451 88 500 c 1,9,-1
 308 500 l 1,10,11
 304 528 304 528 300 555.5 c 128,-1,12
 296 583 296 583 291 611 c 1,13,14
 363 599 363 599 435 587 c 128,-1,15
 507 575 507 575 579 562 c 1,16,17
 580 546 580 546 581.5 531 c 128,-1,18
 583 516 583 516 584 500 c 1,19,-1
 849 500 l 1,20,21
 866 458 866 458 874.5 414 c 128,-1,22
 883 370 883 370 883 321 c 0,23,24
 883 298 883 298 881 274.5 c 128,-1,25
 879 251 879 251 875 225 c 1,26,27
 809 193 809 193 740 176 c 128,-1,28
 671 159 671 159 590 151 c 1,29,30
 587 75 587 75 581 0 c 1,31,-1
 328 0 l 1,32,33
 330 38 330 38 331.5 75.5 c 128,-1,34
 333 113 333 113 333 151 c 1,0,1
317 432 m 1,35,36
 304 415 304 415 291.5 392 c 128,-1,37
 279 369 279 369 268.5 343.5 c 128,-1,38
 258 318 258 318 250.5 291.5 c 128,-1,39
 243 265 243 265 239 241 c 1,40,41
 262 232 262 232 284.5 227.5 c 128,-1,42
 307 223 307 223 332 221 c 1,43,44
 329 325 329 325 317 432 c 1,35,36
588 432 m 1,45,46
 591 352 591 352 591 274 c 2,47,-1
 591 221 l 1,48,49
 616 223 616 223 638 227.5 c 128,-1,50
 660 232 660 232 682 241 c 1,51,52
 678 265 678 265 668 291.5 c 128,-1,53
 658 318 658 318 644.5 343.5 c 128,-1,54
 631 369 631 369 616 392 c 128,-1,55
 601 415 601 415 588 432 c 1,45,46
EndSplineSet
EndChar

StartChar: uni0445
Encoding: 1093 1093 158
Width: 702
Flags: W
LayerCount: 2
Fore
SplineSet
588 555 m 0,0,1
 606 561 606 561 625 562.5 c 128,-1,2
 644 564 644 564 662.5 566 c 128,-1,3
 681 568 681 568 699 572 c 128,-1,4
 717 576 717 576 732 586 c 1,5,6
 718 553 718 553 705 529.5 c 128,-1,7
 692 506 692 506 675 481 c 1,8,9
 643 473 643 473 615 473 c 0,10,11
 596 473 596 473 575 476 c 1,12,13
 535 447 535 447 500 411.5 c 128,-1,14
 465 376 465 376 433 339 c 1,15,16
 473 276 473 276 522.5 194.5 c 128,-1,17
 572 113 572 113 626 0 c 1,18,-1
 377 0 l 1,19,20
 357 42 357 42 337 81.5 c 128,-1,21
 317 121 317 121 295 159 c 1,22,23
 244 86 244 86 199 13 c 128,-1,24
 154 -60 154 -60 124 -121 c 1,25,26
 96 -128 96 -128 67 -134 c 128,-1,27
 38 -140 38 -140 9 -147 c 1,28,29
 31 -108 31 -108 59 -63.5 c 128,-1,30
 87 -19 87 -19 119.5 27.5 c 128,-1,31
 152 74 152 74 188 122 c 128,-1,32
 224 170 224 170 260 217 c 1,33,34
 211 294 211 294 154 364 c 128,-1,35
 97 434 97 434 27 500 c 1,36,-1
 338 500 l 1,37,38
 351 473 351 473 366.5 445.5 c 128,-1,39
 382 418 382 418 402 388 c 1,40,41
 422 410 422 410 442.5 435 c 128,-1,42
 463 460 463 460 486 483.5 c 128,-1,43
 509 507 509 507 534 525.5 c 128,-1,44
 559 544 559 544 588 555 c 0,0,1
EndSplineSet
EndChar

StartChar: uni0446
Encoding: 1094 1094 159
Width: 750
Flags: W
LayerCount: 2
Fore
SplineSet
55 0 m 1,0,1
 63 52 63 52 66 108.5 c 128,-1,2
 69 165 69 165 69 224 c 0,3,4
 69 296 69 296 64 366 c 128,-1,5
 59 436 59 436 51 500 c 1,6,-1
 315 500 l 1,7,8
 316 474 316 474 316.5 449 c 128,-1,9
 317 424 317 424 317 398 c 0,10,11
 317 314 317 314 311.5 234 c 128,-1,12
 306 154 306 154 295 76 c 1,13,14
 306 73 306 73 322 71 c 128,-1,15
 338 69 338 69 355 67.5 c 128,-1,16
 372 66 372 66 388.5 65.5 c 128,-1,17
 405 65 405 65 417 65 c 1,18,19
 424 126 424 126 428 190.5 c 128,-1,20
 432 255 432 255 432 321 c 0,21,22
 432 366 432 366 430 410.5 c 128,-1,23
 428 455 428 455 424 500 c 1,24,-1
 684 500 l 1,25,26
 685 478 685 478 685.5 456.5 c 128,-1,27
 686 435 686 435 686 414 c 0,28,29
 686 324 686 324 679 239 c 128,-1,30
 672 154 672 154 659 70 c 1,31,32
 678 68 678 68 700 67 c 128,-1,33
 722 66 722 66 744 65 c 1,34,35
 736 16 736 16 725.5 -27 c 128,-1,36
 715 -70 715 -70 699 -115 c 1,37,-1
 589 -109 l 1,38,39
 599 -83 599 -83 599 -62 c 0,40,41
 599 -30 599 -30 576.5 -15 c 128,-1,42
 554 0 554 0 515 0 c 2,43,-1
 55 0 l 1,0,1
EndSplineSet
EndChar

StartChar: uni0447
Encoding: 1095 1095 160
Width: 725
Flags: W
LayerCount: 2
Fore
SplineSet
409 218 m 1,0,1
 407 248 407 248 406 278 c 128,-1,2
 405 308 405 308 405 338 c 0,3,4
 405 379 405 379 406.5 419 c 128,-1,5
 408 459 408 459 412 500 c 1,6,-1
 688 500 l 1,7,8
 670 409 670 409 660.5 321.5 c 128,-1,9
 651 234 651 234 651 146 c 0,10,11
 651 109 651 109 652.5 72.5 c 128,-1,12
 654 36 654 36 658 0 c 1,13,-1
 439 0 l 1,14,15
 432 34 432 34 426.5 68.5 c 128,-1,16
 421 103 421 103 417 138 c 1,17,18
 392 154 392 154 347 162 c 128,-1,19
 302 170 302 170 245 170 c 0,20,21
 219 170 219 170 190 168.5 c 128,-1,22
 161 167 161 167 131 163 c 1,23,24
 96 242 96 242 74 326 c 128,-1,25
 52 410 52 410 41 500 c 1,26,-1
 296 500 l 1,27,28
 296 241 296 241 409 218 c 1,0,1
EndSplineSet
EndChar

StartChar: uni0448
Encoding: 1096 1096 161
Width: 1073
Flags: W
LayerCount: 2
Fore
SplineSet
1020 500 m 1,0,1
 1021 477 1021 477 1021.5 457 c 128,-1,2
 1022 437 1022 437 1022 417 c 0,3,4
 1022 311 1022 311 1011.5 205.5 c 128,-1,5
 1001 100 1001 100 984 0 c 1,6,-1
 59 0 l 1,7,8
 66 51 66 51 69 107 c 128,-1,9
 72 163 72 163 72 221 c 0,10,11
 72 293 72 293 67.5 364 c 128,-1,12
 63 435 63 435 54 500 c 1,13,-1
 318 500 l 1,14,15
 319 474 319 474 319.5 449 c 128,-1,16
 320 424 320 424 320 398 c 0,17,18
 320 314 320 314 314.5 234.5 c 128,-1,19
 309 155 309 155 298 77 c 1,20,21
 309 74 309 74 325 72 c 128,-1,22
 341 70 341 70 357.5 68.5 c 128,-1,23
 374 67 374 67 390.5 66.5 c 128,-1,24
 407 66 407 66 419 66 c 1,25,26
 425 142 425 142 425 224 c 0,27,28
 425 295 425 295 420.5 365.5 c 128,-1,29
 416 436 416 436 407 500 c 1,30,-1
 671 500 l 1,31,32
 672 487 672 487 672 474.5 c 128,-1,33
 672 462 672 462 672 449 c 0,34,35
 672 356 672 356 661.5 258 c 128,-1,36
 651 160 651 160 634 76 c 1,37,38
 645 74 645 74 660.5 72 c 128,-1,39
 676 70 676 70 692.5 68.5 c 128,-1,40
 709 67 709 67 725 66.5 c 128,-1,41
 741 66 741 66 753 66 c 1,42,43
 760 128 760 128 763.5 192.5 c 128,-1,44
 767 257 767 257 767 324 c 0,45,46
 767 369 767 369 765.5 412.5 c 128,-1,47
 764 456 764 456 760 500 c 1,48,-1
 1020 500 l 1,0,1
EndSplineSet
EndChar

StartChar: uni0449
Encoding: 1097 1097 162
Width: 1054
Flags: W
LayerCount: 2
Fore
SplineSet
32 0 m 1,0,1
 40 52 40 52 43 108.5 c 128,-1,2
 46 165 46 165 46 224 c 0,3,4
 46 295 46 295 41 365.5 c 128,-1,5
 36 436 36 436 28 500 c 1,6,-1
 292 500 l 1,7,8
 293 474 293 474 293.5 448.5 c 128,-1,9
 294 423 294 423 294 397 c 0,10,11
 294 313 294 313 288.5 233.5 c 128,-1,12
 283 154 283 154 272 76 c 1,13,14
 283 73 283 73 298.5 71 c 128,-1,15
 314 69 314 69 330.5 67.5 c 128,-1,16
 347 66 347 66 363.5 65.5 c 128,-1,17
 380 65 380 65 392 65 c 1,18,19
 396 103 396 103 397.5 143.5 c 128,-1,20
 399 184 399 184 399 225 c 0,21,22
 399 296 399 296 394 366 c 128,-1,23
 389 436 389 436 381 500 c 1,24,-1
 644 500 l 1,25,26
 645 486 645 486 645 471.5 c 128,-1,27
 645 457 645 457 645 443 c 0,28,29
 645 351 645 351 634.5 254.5 c 128,-1,30
 624 158 624 158 607 76 c 1,31,32
 618 73 618 73 633.5 71 c 128,-1,33
 649 69 649 69 665.5 67.5 c 128,-1,34
 682 66 682 66 698.5 65.5 c 128,-1,35
 715 65 715 65 727 65 c 1,36,37
 734 126 734 126 737.5 189.5 c 128,-1,38
 741 253 741 253 741 318 c 0,39,40
 741 364 741 364 739 409.5 c 128,-1,41
 737 455 737 455 733 500 c 1,42,-1
 993 500 l 1,43,44
 994 478 994 478 994.5 456 c 128,-1,45
 995 434 995 434 995 413 c 0,46,47
 995 324 995 324 988 239 c 128,-1,48
 981 154 981 154 968 70 c 1,49,50
 987 68 987 68 1009 67 c 128,-1,51
 1031 66 1031 66 1054 65 c 1,52,53
 1045 16 1045 16 1034.5 -27 c 128,-1,54
 1024 -70 1024 -70 1008 -115 c 1,55,-1
 898 -109 l 1,56,57
 908 -83 908 -83 908 -62 c 0,58,59
 908 -30 908 -30 885.5 -15 c 128,-1,60
 863 0 863 0 825 0 c 2,61,-1
 32 0 l 1,0,1
EndSplineSet
EndChar

StartChar: uni044A
Encoding: 1098 1098 163
Width: 758
Flags: W
LayerCount: 2
Fore
SplineSet
449 500 m 1,0,1
 442 460 442 460 436.5 417.5 c 128,-1,2
 431 375 431 375 428 330 c 1,3,4
 520 319 520 319 594 298.5 c 128,-1,5
 668 278 668 278 738 242 c 1,6,7
 737 205 737 205 735.5 174.5 c 128,-1,8
 734 144 734 144 730.5 115.5 c 128,-1,9
 727 87 727 87 721.5 59 c 128,-1,10
 716 31 716 31 707 0 c 1,11,-1
 198 0 l 1,12,13
 186 51 186 51 180 114 c 128,-1,14
 174 177 174 177 174 243 c 0,15,16
 174 294 174 294 177.5 343 c 128,-1,17
 181 392 181 392 188 435 c 1,18,19
 151 424 151 424 133.5 405 c 128,-1,20
 116 386 116 386 109 344 c 1,21,-1
 10 350 l 1,22,-1
 41 500 l 1,23,-1
 449 500 l 1,0,1
426 261 m 1,24,25
 426 212 426 212 431.5 163.5 c 128,-1,26
 437 115 437 115 451 67 c 1,27,28
 503 133 503 133 517 235 c 1,29,30
 498 244 498 244 475 251.5 c 128,-1,31
 452 259 452 259 426 261 c 1,24,25
EndSplineSet
EndChar

StartChar: uni044B
Encoding: 1099 1099 164
Width: 955
Flags: W
LayerCount: 2
Fore
SplineSet
294 329 m 1,0,1
 386 318 386 318 460 297 c 128,-1,2
 534 276 534 276 605 241 c 1,3,4
 604 204 604 204 602.5 174 c 128,-1,5
 601 144 601 144 597 116 c 128,-1,6
 593 88 593 88 587.5 60 c 128,-1,7
 582 32 582 32 573 0 c 1,8,-1
 63 0 l 1,9,10
 51 51 51 51 45.5 112.5 c 128,-1,11
 40 174 40 174 40 239 c 0,12,13
 40 313 40 313 47 382 c 128,-1,14
 54 451 54 451 68 500 c 1,15,-1
 315 500 l 1,16,17
 308 459 308 459 302.5 416.5 c 128,-1,18
 297 374 297 374 294 329 c 1,0,1
292 260 m 1,19,20
 292 211 292 211 297.5 162.5 c 128,-1,21
 303 114 303 114 317 66 c 1,22,23
 344 99 344 99 360 140.5 c 128,-1,24
 376 182 376 182 383 233 c 1,25,26
 364 243 364 243 341 250.5 c 128,-1,27
 318 258 318 258 292 260 c 1,19,20
913 500 m 1,28,29
 914 474 914 474 914.5 449 c 128,-1,30
 915 424 915 424 915 398 c 0,31,32
 915 294 915 294 906.5 195.5 c 128,-1,33
 898 97 898 97 881 0 c 1,34,-1
 654 0 l 1,35,36
 661 51 661 51 664 106.5 c 128,-1,37
 667 162 667 162 667 220 c 0,38,39
 667 292 667 292 662.5 363.5 c 128,-1,40
 658 435 658 435 649 500 c 1,41,-1
 913 500 l 1,28,29
EndSplineSet
EndChar

StartChar: uni044C
Encoding: 1100 1100 165
Width: 629
Flags: W
LayerCount: 2
Fore
SplineSet
307 330 m 1,0,1
 399 319 399 319 473 298 c 128,-1,2
 547 277 547 277 618 242 c 1,3,4
 617 205 617 205 615.5 174.5 c 128,-1,5
 614 144 614 144 610 115.5 c 128,-1,6
 606 87 606 87 600.5 59 c 128,-1,7
 595 31 595 31 587 0 c 1,8,-1
 77 0 l 1,9,10
 65 51 65 51 59 113 c 128,-1,11
 53 175 53 175 53 240 c 0,12,13
 53 314 53 314 60.5 382.5 c 128,-1,14
 68 451 68 451 82 500 c 1,15,-1
 328 500 l 1,16,17
 321 460 321 460 315.5 417.5 c 128,-1,18
 310 375 310 375 307 330 c 1,0,1
305 261 m 1,19,20
 305 212 305 212 310.5 163.5 c 128,-1,21
 316 115 316 115 330 67 c 1,22,23
 383 133 383 133 396 234 c 1,24,25
 377 244 377 244 354 251.5 c 128,-1,26
 331 259 331 259 305 261 c 1,19,20
EndSplineSet
EndChar

StartChar: uni044D
Encoding: 1101 1101 166
Width: 640
Flags: W
LayerCount: 2
Fore
SplineSet
54 498 m 1,0,1
 167 523 167 523 259 523 c 0,2,3
 352 523 352 523 419.5 500 c 128,-1,4
 487 477 487 477 531.5 439.5 c 128,-1,5
 576 402 576 402 597.5 353.5 c 128,-1,6
 619 305 619 305 619 253 c 0,7,8
 619 212 619 212 606 171.5 c 128,-1,9
 593 131 593 131 568.5 94.5 c 128,-1,10
 544 58 544 58 508 28 c 128,-1,11
 472 -2 472 -2 426 -22 c 1,12,-1
 403 -22 l 2,13,14
 338 -22 338 -22 287.5 -11 c 128,-1,15
 237 0 237 0 195.5 18 c 128,-1,16
 154 36 154 36 121 58 c 128,-1,17
 88 80 88 80 59 103 c 1,18,19
 61 170 61 170 65 225 c 1,20,21
 103 178 103 178 142.5 141 c 128,-1,22
 182 104 182 104 230 73 c 1,23,24
 271 97 271 97 301 127 c 128,-1,25
 331 157 331 157 348 199 c 1,26,27
 331 231 331 231 313 240.5 c 128,-1,28
 295 250 295 250 274 250 c 256,29,30
 253 250 253 250 230 245.5 c 128,-1,31
 207 241 207 241 184 241 c 0,32,33
 181 241 181 241 178 241.5 c 128,-1,34
 175 242 175 242 171 242 c 1,35,-1
 122 331 l 1,36,37
 129 330 129 330 136 330 c 128,-1,38
 143 330 143 330 150 330 c 0,39,40
 173 330 173 330 194.5 331.5 c 128,-1,41
 216 333 216 333 237 333 c 0,42,43
 274 333 274 333 306.5 321 c 128,-1,44
 339 309 339 309 366 269 c 1,45,46
 369 290 369 290 369 312 c 0,47,48
 369 366 369 366 353 433 c 1,49,50
 309 444 309 444 271 444 c 0,51,52
 241 444 241 444 207 438 c 1,53,54
 210 422 210 422 214.5 404.5 c 128,-1,55
 219 387 219 387 224 372 c 1,56,57
 193 373 193 373 159.5 374.5 c 128,-1,58
 126 376 126 376 94 378 c 1,59,60
 83 403 83 403 72 437 c 128,-1,61
 61 471 61 471 54 498 c 1,0,1
EndSplineSet
EndChar

StartChar: uni044E
Encoding: 1102 1102 167
Width: 961
Flags: W
LayerCount: 2
Fore
SplineSet
454 2 m 1,0,1
 409 59 409 59 388.5 117.5 c 128,-1,2
 368 176 368 176 367 228 c 1,3,4
 350 228 350 228 331.5 228 c 128,-1,5
 313 228 313 228 296 227 c 1,6,7
 291 169 291 169 284 112.5 c 128,-1,8
 277 56 277 56 267 0 c 1,9,-1
 40 0 l 1,10,11
 47 51 47 51 50.5 107.5 c 128,-1,12
 54 164 54 164 54 222 c 0,13,14
 54 294 54 294 49 364.5 c 128,-1,15
 44 435 44 435 35 500 c 1,16,-1
 299 500 l 1,17,18
 301 471 301 471 301 443.5 c 128,-1,19
 301 416 301 416 301 388 c 0,20,21
 301 365 301 365 301 342.5 c 128,-1,22
 301 320 301 320 300 297 c 1,23,24
 320 297 320 297 339 296 c 128,-1,25
 358 295 358 295 375 293 c 1,26,27
 388 350 388 350 422 393 c 128,-1,28
 456 436 456 436 502.5 465 c 128,-1,29
 549 494 549 494 604.5 508.5 c 128,-1,30
 660 523 660 523 716 523 c 0,31,32
 754 523 754 523 794.5 516.5 c 128,-1,33
 835 510 835 510 876 498 c 1,34,35
 913 450 913 450 930 400.5 c 128,-1,36
 947 351 947 351 947 302 c 0,37,38
 947 261 947 261 937 227 c 0,39,40
 923 176 923 176 891 130.5 c 128,-1,41
 859 85 859 85 813 51 c 128,-1,42
 767 17 767 17 710 -2.5 c 128,-1,43
 653 -22 653 -22 589 -22 c 0,44,45
 557 -22 557 -22 523 -15.5 c 128,-1,46
 489 -9 489 -9 454 2 c 1,0,1
603 430 m 1,47,48
 585 398 585 398 576.5 362.5 c 128,-1,49
 568 327 568 327 568 291 c 0,50,51
 568 253 568 253 577 216.5 c 128,-1,52
 586 180 586 180 603 148 c 128,-1,53
 620 116 620 116 644 91 c 128,-1,54
 668 66 668 66 699 51 c 1,55,56
 722 80 722 80 733 116.5 c 128,-1,57
 744 153 744 153 744 191 c 0,58,59
 744 226 744 226 735 261.5 c 128,-1,60
 726 297 726 297 708 328.5 c 128,-1,61
 690 360 690 360 663.5 386.5 c 128,-1,62
 637 413 637 413 603 430 c 1,47,48
EndSplineSet
EndChar

StartChar: uni044F
Encoding: 1103 1103 168
Width: 656
Flags: W
LayerCount: 2
Fore
SplineSet
269 225 m 1,0,1
 213 236 213 236 162 253 c 128,-1,2
 111 270 111 270 69 292 c 1,3,-1
 69 321 l 2,4,5
 69 343 69 343 70 363.5 c 128,-1,6
 71 384 71 384 74 405 c 128,-1,7
 77 426 77 426 81 449.5 c 128,-1,8
 85 473 85 473 91 500 c 1,9,-1
 613 500 l 1,10,11
 620 449 620 449 623.5 397.5 c 128,-1,12
 627 346 627 346 627 294 c 0,13,14
 627 145 627 145 598 0 c 1,15,-1
 380 0 l 1,16,17
 386 70 386 70 386 141 c 0,18,19
 386 153 386 153 386 165 c 128,-1,20
 386 177 386 177 385 190 c 1,21,22
 341 171 341 171 315 120.5 c 128,-1,23
 289 70 289 70 279 0 c 1,24,-1
 21 0 l 1,25,26
 23 30 23 30 26 55.5 c 128,-1,27
 29 81 29 81 34 104 c 128,-1,28
 39 127 39 127 45.5 149.5 c 128,-1,29
 52 172 52 172 62 197 c 1,30,31
 128 200 128 200 175 206.5 c 128,-1,32
 222 213 222 213 269 225 c 1,0,1
364 433 m 1,33,34
 338 400 338 400 321 370 c 128,-1,35
 304 340 304 340 293 299 c 1,36,37
 310 283 310 283 333 273.5 c 128,-1,38
 356 264 356 264 382 260 c 1,39,40
 376 345 376 345 364 433 c 1,33,34
EndSplineSet
EndChar

StartChar: uni0409
Encoding: 1033 1033 169
Width: 964
Flags: W
LayerCount: 2
Fore
SplineSet
638 330 m 1,0,1
 730 319 730 319 804 298 c 128,-1,2
 878 277 878 277 948 242 c 1,3,4
 947 205 947 205 945.5 174.5 c 128,-1,5
 944 144 944 144 940.5 115.5 c 128,-1,6
 937 87 937 87 931.5 59 c 128,-1,7
 926 31 926 31 917 0 c 1,8,-1
 407 0 l 1,9,10
 395 51 395 51 389 113.5 c 128,-1,11
 383 176 383 176 383 242 c 0,12,13
 383 259 383 259 383.5 275.5 c 128,-1,14
 384 292 384 292 385 309 c 1,15,16
 353 288 353 288 330.5 260 c 128,-1,17
 308 232 308 232 294.5 200.5 c 128,-1,18
 281 169 281 169 275 135 c 128,-1,19
 269 101 269 101 269 68 c 0,20,21
 269 31 269 31 275 0 c 1,22,-1
 15 0 l 1,23,24
 17 27 17 27 21.5 59.5 c 128,-1,25
 26 92 26 92 31.5 124.5 c 128,-1,26
 37 157 37 157 44 188 c 128,-1,27
 51 219 51 219 59 244 c 1,28,29
 147 269 147 269 236 312 c 128,-1,30
 325 355 325 355 396 420 c 1,31,32
 399 443 399 443 403 463 c 128,-1,33
 407 483 407 483 412 500 c 1,34,-1
 659 500 l 1,35,36
 652 460 652 460 646.5 417.5 c 128,-1,37
 641 375 641 375 638 330 c 1,0,1
636 261 m 1,38,39
 636 212 636 212 641.5 163.5 c 128,-1,40
 647 115 647 115 661 67 c 1,41,42
 714 133 714 133 726 234 c 1,43,44
 708 244 708 244 685 251.5 c 128,-1,45
 662 259 662 259 636 261 c 1,38,39
EndSplineSet
EndChar

StartChar: uni0459
Encoding: 1113 1113 170
Width: 964
Flags: W
LayerCount: 2
Fore
SplineSet
638 330 m 1,0,1
 730 319 730 319 804 298 c 128,-1,2
 878 277 878 277 948 242 c 1,3,4
 947 205 947 205 945.5 174.5 c 128,-1,5
 944 144 944 144 940.5 115.5 c 128,-1,6
 937 87 937 87 931.5 59 c 128,-1,7
 926 31 926 31 917 0 c 1,8,-1
 407 0 l 1,9,10
 395 51 395 51 389 113.5 c 128,-1,11
 383 176 383 176 383 242 c 0,12,13
 383 259 383 259 383.5 275.5 c 128,-1,14
 384 292 384 292 385 309 c 1,15,16
 353 288 353 288 330.5 260 c 128,-1,17
 308 232 308 232 294.5 200.5 c 128,-1,18
 281 169 281 169 275 135 c 128,-1,19
 269 101 269 101 269 68 c 0,20,21
 269 31 269 31 275 0 c 1,22,-1
 15 0 l 1,23,24
 17 27 17 27 21.5 59.5 c 128,-1,25
 26 92 26 92 31.5 124.5 c 128,-1,26
 37 157 37 157 44 188 c 128,-1,27
 51 219 51 219 59 244 c 1,28,29
 147 269 147 269 236 312 c 128,-1,30
 325 355 325 355 396 420 c 1,31,32
 399 443 399 443 403 463 c 128,-1,33
 407 483 407 483 412 500 c 1,34,-1
 659 500 l 1,35,36
 652 460 652 460 646.5 417.5 c 128,-1,37
 641 375 641 375 638 330 c 1,0,1
636 261 m 1,38,39
 636 212 636 212 641.5 163.5 c 128,-1,40
 647 115 647 115 661 67 c 1,41,42
 714 133 714 133 726 234 c 1,43,44
 708 244 708 244 685 251.5 c 128,-1,45
 662 259 662 259 636 261 c 1,38,39
EndSplineSet
EndChar

StartChar: uni040A
Encoding: 1034 1034 171
Width: 990
Flags: W
LayerCount: 2
Fore
SplineSet
674 500 m 1,0,1
 676 491 676 491 676 470.5 c 128,-1,2
 676 450 676 450 676 426 c 0,3,4
 676 410 676 410 676 394 c 128,-1,5
 676 378 676 378 675.5 364.5 c 128,-1,6
 675 351 675 351 674.5 341.5 c 128,-1,7
 674 332 674 332 674 330 c 1,8,9
 766 319 766 319 839 298.5 c 128,-1,10
 912 278 912 278 982 242 c 1,11,12
 978 173 978 173 958.5 110 c 128,-1,13
 939 47 939 47 910 1 c 1,14,-1
 400 1 l 1,15,16
 408 61 408 61 413.5 124.5 c 128,-1,17
 419 188 419 188 421 255 c 1,18,19
 398 269 398 269 365.5 280 c 128,-1,20
 333 291 333 291 305 294 c 1,21,22
 302 218 302 218 294 145.5 c 128,-1,23
 286 73 286 73 273 1 c 1,24,-1
 46 1 l 1,25,26
 54 53 54 53 57 109.5 c 128,-1,27
 60 166 60 166 60 225 c 0,28,29
 60 296 60 296 55 366 c 128,-1,30
 50 436 50 436 42 500 c 1,31,-1
 305 500 l 1,32,33
 306 477 306 477 306.5 455 c 128,-1,34
 307 433 307 433 307 411 c 2,35,-1
 307 379 l 1,36,37
 339 368 339 368 367.5 356 c 128,-1,38
 396 344 396 344 422 330 c 1,39,40
 422 373 422 373 420.5 415.5 c 128,-1,41
 419 458 419 458 415 500 c 1,42,-1
 674 500 l 1,0,1
671 261 m 1,43,44
 667 211 667 211 662 163 c 128,-1,45
 657 115 657 115 649 67 c 1,46,47
 668 80 668 80 686.5 98.5 c 128,-1,48
 705 117 705 117 720 138.5 c 128,-1,49
 735 160 735 160 746 184.5 c 128,-1,50
 757 209 757 209 760 235 c 1,51,52
 742 244 742 244 719 251.5 c 128,-1,53
 696 259 696 259 671 261 c 1,43,44
EndSplineSet
EndChar

StartChar: uni045A
Encoding: 1114 1114 172
Width: 990
Flags: W
LayerCount: 2
Fore
SplineSet
674 500 m 1,0,1
 676 491 676 491 676 470.5 c 128,-1,2
 676 450 676 450 676 426 c 0,3,4
 676 410 676 410 676 394 c 128,-1,5
 676 378 676 378 675.5 364.5 c 128,-1,6
 675 351 675 351 674.5 341.5 c 128,-1,7
 674 332 674 332 674 330 c 1,8,9
 766 319 766 319 839 298.5 c 128,-1,10
 912 278 912 278 982 242 c 1,11,12
 978 173 978 173 958.5 110 c 128,-1,13
 939 47 939 47 910 1 c 1,14,-1
 400 1 l 1,15,16
 408 61 408 61 413.5 124.5 c 128,-1,17
 419 188 419 188 421 255 c 1,18,19
 398 269 398 269 365.5 280 c 128,-1,20
 333 291 333 291 305 294 c 1,21,22
 302 218 302 218 294 145.5 c 128,-1,23
 286 73 286 73 273 1 c 1,24,-1
 46 1 l 1,25,26
 54 53 54 53 57 109.5 c 128,-1,27
 60 166 60 166 60 225 c 0,28,29
 60 296 60 296 55 366 c 128,-1,30
 50 436 50 436 42 500 c 1,31,-1
 305 500 l 1,32,33
 306 477 306 477 306.5 455 c 128,-1,34
 307 433 307 433 307 411 c 2,35,-1
 307 379 l 1,36,37
 339 368 339 368 367.5 356 c 128,-1,38
 396 344 396 344 422 330 c 1,39,40
 422 373 422 373 420.5 415.5 c 128,-1,41
 419 458 419 458 415 500 c 1,42,-1
 674 500 l 1,0,1
671 261 m 1,43,44
 667 211 667 211 662 163 c 128,-1,45
 657 115 657 115 649 67 c 1,46,47
 668 80 668 80 686.5 98.5 c 128,-1,48
 705 117 705 117 720 138.5 c 128,-1,49
 735 160 735 160 746 184.5 c 128,-1,50
 757 209 757 209 760 235 c 1,51,52
 742 244 742 244 719 251.5 c 128,-1,53
 696 259 696 259 671 261 c 1,43,44
EndSplineSet
EndChar

StartChar: uni0490
Encoding: 1168 1168 173
Width: 595
Flags: W
LayerCount: 2
Fore
SplineSet
402 500 m 2,0,1
 440 500 440 500 465 519 c 128,-1,2
 490 538 490 538 501 587 c 1,3,4
 532 586 532 586 555 585.5 c 128,-1,5
 578 585 578 585 609 583 c 1,6,7
 601 539 601 539 592 504.5 c 128,-1,8
 583 470 583 470 569 435 c 1,9,-1
 386 435 l 2,10,11
 373 435 373 435 358 434 c 128,-1,12
 343 433 343 433 326 430 c 1,13,14
 305 339 305 339 290.5 246 c 128,-1,15
 276 153 276 153 276 63 c 0,16,17
 276 47 276 47 276 31.5 c 128,-1,18
 276 16 276 16 278 0 c 1,19,-1
 61 0 l 1,20,21
 52 61 52 61 46.5 133 c 128,-1,22
 41 205 41 205 41 281 c 0,23,24
 41 337 41 337 44 392 c 128,-1,25
 47 447 47 447 55 500 c 1,26,-1
 402 500 l 2,0,1
EndSplineSet
EndChar

StartChar: uni0491
Encoding: 1169 1169 174
Width: 595
Flags: W
LayerCount: 2
Fore
SplineSet
402 500 m 2,0,1
 440 500 440 500 465 519 c 128,-1,2
 490 538 490 538 501 587 c 1,3,4
 532 586 532 586 555 585.5 c 128,-1,5
 578 585 578 585 609 583 c 1,6,7
 601 539 601 539 592 504.5 c 128,-1,8
 583 470 583 470 569 435 c 1,9,-1
 386 435 l 2,10,11
 373 435 373 435 358 434 c 128,-1,12
 343 433 343 433 326 430 c 1,13,14
 305 339 305 339 290.5 246 c 128,-1,15
 276 153 276 153 276 63 c 0,16,17
 276 47 276 47 276 31.5 c 128,-1,18
 276 16 276 16 278 0 c 1,19,-1
 61 0 l 1,20,21
 52 61 52 61 46.5 133 c 128,-1,22
 41 205 41 205 41 281 c 0,23,24
 41 337 41 337 44 392 c 128,-1,25
 47 447 47 447 55 500 c 1,26,-1
 402 500 l 2,0,1
EndSplineSet
EndChar

StartChar: uni040B
Encoding: 1035 1035 175
Width: 838
Flags: W
LayerCount: 2
Fore
SplineSet
489 435 m 1,0,1
 477 364 477 364 471 292 c 1,2,3
 531 271 531 271 585 262.5 c 128,-1,4
 639 254 639 254 703 254 c 0,5,6
 715 254 715 254 727 254 c 128,-1,7
 739 254 739 254 752 255 c 1,8,9
 780 196 780 196 796 134 c 128,-1,10
 812 72 812 72 819 0 c 1,11,-1
 564 0 l 1,12,13
 564 64 564 64 559 103.5 c 128,-1,14
 554 143 554 143 542.5 166 c 128,-1,15
 531 189 531 189 512 199.5 c 128,-1,16
 493 210 493 210 465 216 c 1,17,18
 464 199 464 199 464 183.5 c 128,-1,19
 464 168 464 168 464 151 c 0,20,21
 464 113 464 113 465.5 75.5 c 128,-1,22
 467 38 467 38 471 0 c 1,23,-1
 253 0 l 1,24,25
 235 85 235 85 227 170 c 128,-1,26
 219 255 219 255 219 342 c 0,27,28
 219 365 219 365 219.5 388.5 c 128,-1,29
 220 412 220 412 221 435 c 1,30,31
 174 421 174 421 150 392 c 128,-1,32
 126 363 126 363 118 320 c 1,33,-1
 19 326 l 1,34,-1
 54 500 l 1,35,-1
 719 500 l 1,36,37
 711 451 711 451 700.5 408 c 128,-1,38
 690 365 690 365 674 320 c 1,39,-1
 572 326 l 1,40,41
 576 342 576 342 576 358 c 0,42,43
 576 400 576 400 550.5 417.5 c 128,-1,44
 525 435 525 435 489 435 c 1,0,1
EndSplineSet
EndChar

StartChar: uni045B
Encoding: 1115 1115 176
Width: 838
Flags: W
LayerCount: 2
Fore
SplineSet
489 435 m 1,0,1
 477 364 477 364 471 292 c 1,2,3
 531 271 531 271 585 262.5 c 128,-1,4
 639 254 639 254 703 254 c 0,5,6
 715 254 715 254 727 254 c 128,-1,7
 739 254 739 254 752 255 c 1,8,9
 780 196 780 196 796 134 c 128,-1,10
 812 72 812 72 819 0 c 1,11,-1
 564 0 l 1,12,13
 564 64 564 64 559 103.5 c 128,-1,14
 554 143 554 143 542.5 166 c 128,-1,15
 531 189 531 189 512 199.5 c 128,-1,16
 493 210 493 210 465 216 c 1,17,18
 464 199 464 199 464 183.5 c 128,-1,19
 464 168 464 168 464 151 c 0,20,21
 464 113 464 113 465.5 75.5 c 128,-1,22
 467 38 467 38 471 0 c 1,23,-1
 253 0 l 1,24,25
 235 85 235 85 227 170 c 128,-1,26
 219 255 219 255 219 342 c 0,27,28
 219 365 219 365 219.5 388.5 c 128,-1,29
 220 412 220 412 221 435 c 1,30,31
 174 421 174 421 150 392 c 128,-1,32
 126 363 126 363 118 320 c 1,33,-1
 19 326 l 1,34,-1
 54 500 l 1,35,-1
 719 500 l 1,36,37
 711 451 711 451 700.5 408 c 128,-1,38
 690 365 690 365 674 320 c 1,39,-1
 572 326 l 1,40,41
 576 342 576 342 576 358 c 0,42,43
 576 400 576 400 550.5 417.5 c 128,-1,44
 525 435 525 435 489 435 c 1,0,1
EndSplineSet
EndChar

StartChar: uni040F
Encoding: 1039 1039 177
Width: 652
Flags: W
LayerCount: 2
Fore
SplineSet
610 500 m 1,0,1
 612 464 612 464 613 427 c 128,-1,2
 614 390 614 390 614 352 c 0,3,4
 614 278 614 278 610.5 205 c 128,-1,5
 607 132 607 132 599 63 c 1,6,7
 555 36 555 36 499 19.5 c 128,-1,8
 443 3 443 3 380 0 c 1,9,10
 378 -23 378 -23 373.5 -47 c 128,-1,11
 369 -71 369 -71 364 -95 c 1,12,13
 359 -96 359 -96 353.5 -96 c 128,-1,14
 348 -96 348 -96 342 -96 c 0,15,16
 327 -96 327 -96 310 -94.5 c 128,-1,17
 293 -93 293 -93 283 -89 c 1,18,19
 288 -66 288 -66 290.5 -43.5 c 128,-1,20
 293 -21 293 -21 294 2 c 1,21,22
 156 11 156 11 61 63 c 1,23,24
 55 117 55 117 52 165 c 128,-1,25
 49 213 49 213 49 261 c 0,26,27
 49 316 49 316 52.5 373.5 c 128,-1,28
 56 431 56 431 63 500 c 1,29,-1
 321 500 l 1,30,31
 301 395 301 395 291 295.5 c 128,-1,32
 281 196 281 196 281 99 c 1,33,34
 295 88 295 88 323.5 75.5 c 128,-1,35
 352 63 352 63 399 63 c 0,36,37
 447 63 447 63 472.5 71.5 c 128,-1,38
 498 80 498 80 513 90 c 1,39,40
 514 111 514 111 514.5 132 c 128,-1,41
 515 153 515 153 515 173 c 0,42,43
 515 254 515 254 508.5 333.5 c 128,-1,44
 502 413 502 413 488 500 c 1,45,-1
 610 500 l 1,0,1
EndSplineSet
EndChar

StartChar: uni045F
Encoding: 1119 1119 178
Width: 652
Flags: W
LayerCount: 2
Fore
SplineSet
610 500 m 1,0,1
 612 464 612 464 613 427 c 128,-1,2
 614 390 614 390 614 352 c 0,3,4
 614 278 614 278 610.5 205 c 128,-1,5
 607 132 607 132 599 63 c 1,6,7
 555 36 555 36 499 19.5 c 128,-1,8
 443 3 443 3 380 0 c 1,9,10
 378 -23 378 -23 373.5 -47 c 128,-1,11
 369 -71 369 -71 364 -95 c 1,12,13
 359 -96 359 -96 353.5 -96 c 128,-1,14
 348 -96 348 -96 342 -96 c 0,15,16
 327 -96 327 -96 310 -94.5 c 128,-1,17
 293 -93 293 -93 283 -89 c 1,18,19
 288 -66 288 -66 290.5 -43.5 c 128,-1,20
 293 -21 293 -21 294 2 c 1,21,22
 156 11 156 11 61 63 c 1,23,24
 55 117 55 117 52 165 c 128,-1,25
 49 213 49 213 49 261 c 0,26,27
 49 316 49 316 52.5 373.5 c 128,-1,28
 56 431 56 431 63 500 c 1,29,-1
 321 500 l 1,30,31
 301 395 301 395 291 295.5 c 128,-1,32
 281 196 281 196 281 99 c 1,33,34
 295 88 295 88 323.5 75.5 c 128,-1,35
 352 63 352 63 399 63 c 0,36,37
 447 63 447 63 472.5 71.5 c 128,-1,38
 498 80 498 80 513 90 c 1,39,40
 514 111 514 111 514.5 132 c 128,-1,41
 515 153 515 153 515 173 c 0,42,43
 515 254 515 254 508.5 333.5 c 128,-1,44
 502 413 502 413 488 500 c 1,45,-1
 610 500 l 1,0,1
EndSplineSet
EndChar

StartChar: uni0407
Encoding: 1031 1031 179
Width: 396
Flags: W
LayerCount: 2
Fore
SplineSet
330 500 m 1,0,1
 331 474 331 474 331.5 449 c 128,-1,2
 332 424 332 424 332 398 c 0,3,4
 332 294 332 294 323.5 195.5 c 128,-1,5
 315 97 315 97 298 0 c 1,6,-1
 71 0 l 1,7,8
 78 52 78 52 81.5 108 c 128,-1,9
 85 164 85 164 85 222 c 0,10,11
 85 294 85 294 80 364.5 c 128,-1,12
 75 435 75 435 66 500 c 1,13,-1
 330 500 l 1,0,1
71 678 m 1,14,15
 124 673 124 673 175 672 c 1,16,17
 170 648 170 648 161.5 623.5 c 128,-1,18
 153 599 153 599 140 575 c 1,19,20
 115 575 115 575 90 575 c 128,-1,21
 65 575 65 575 40 576 c 1,22,23
 51 602 51 602 59 627.5 c 128,-1,24
 67 653 67 653 71 678 c 1,14,15
254 678 m 1,25,26
 307 673 307 673 359 672 c 1,27,28
 353 648 353 648 344.5 623.5 c 128,-1,29
 336 599 336 599 324 575 c 1,30,31
 298 575 298 575 273.5 575 c 128,-1,32
 249 575 249 575 223 576 c 1,33,34
 234 602 234 602 242 627.5 c 128,-1,35
 250 653 250 653 254 678 c 1,25,26
EndSplineSet
EndChar

StartChar: uni0457
Encoding: 1111 1111 180
Width: 396
Flags: W
LayerCount: 2
Fore
SplineSet
330 500 m 1,0,1
 331 474 331 474 331.5 449 c 128,-1,2
 332 424 332 424 332 398 c 0,3,4
 332 294 332 294 323.5 195.5 c 128,-1,5
 315 97 315 97 298 0 c 1,6,-1
 71 0 l 1,7,8
 78 52 78 52 81.5 108 c 128,-1,9
 85 164 85 164 85 222 c 0,10,11
 85 294 85 294 80 364.5 c 128,-1,12
 75 435 75 435 66 500 c 1,13,-1
 330 500 l 1,0,1
71 678 m 1,14,15
 124 673 124 673 175 672 c 1,16,17
 170 648 170 648 161.5 623.5 c 128,-1,18
 153 599 153 599 140 575 c 1,19,20
 115 575 115 575 90 575 c 128,-1,21
 65 575 65 575 40 576 c 1,22,23
 51 602 51 602 59 627.5 c 128,-1,24
 67 653 67 653 71 678 c 1,14,15
254 678 m 1,25,26
 307 673 307 673 359 672 c 1,27,28
 353 648 353 648 344.5 623.5 c 128,-1,29
 336 599 336 599 324 575 c 1,30,31
 298 575 298 575 273.5 575 c 128,-1,32
 249 575 249 575 223 576 c 1,33,34
 234 602 234 602 242 627.5 c 128,-1,35
 250 653 250 653 254 678 c 1,25,26
EndSplineSet
EndChar

